<?xml version="1.0" encoding="UTF-8" standalone="no"?>
<!-- Created with Inkscape (http://www.inkscape.org/) -->

<svg
   width="192.33688mm"
   height="26.559999mm"
   viewBox="0 0 192.33688 26.559998"
   version="1.1"
   id="svg5"
   inkscape:version="1.2.1 (9c6d41e410, 2022-07-14)"
   sodipodi:docname="accesses.svg"
   xml:space="preserve"
   xmlns:inkscape="http://www.inkscape.org/namespaces/inkscape"
   xmlns:sodipodi="http://sodipodi.sourceforge.net/DTD/sodipodi-0.dtd"
   xmlns="http://www.w3.org/2000/svg"
   xmlns:svg="http://www.w3.org/2000/svg"><g
     aria-label="分"
     id="text426"
     style="font-size:9.45523px;font-family:'Noto Sans JP';-inkscape-font-specification:'Noto Sans JP';stroke-width:0.393968"><path
       d="m 183.19282,15.653898 c -0.58623,1.44665 -1.63576,2.751472 -2.82712,3.555167 0.1702,0.122918 0.47277,0.387664 0.59568,0.538948 1.19136,-0.888792 2.28817,-2.297621 2.96895,-3.8861 z m -1.29537,3.356607 v 0.680776 h 1.92887 c -0.21747,1.597934 -0.73751,3.09186 -2.95949,3.829368 0.16074,0.151284 0.3593,0.434941 0.45385,0.61459 2.40163,-0.869881 3.00677,-2.581277 3.2526,-4.443958 h 2.43945 c -0.11346,2.382718 -0.24584,3.328241 -0.49167,3.564622 -0.0851,0.104007 -0.19856,0.122918 -0.39712,0.122918 -0.21747,0 -0.8037,-0.0095 -1.41829,-0.06619 0.13238,0.208015 0.21747,0.491672 0.23639,0.699687 0.58622,0.02837 1.17244,0.04728 1.48447,0.01891 0.33093,-0.03782 0.52949,-0.09455 0.72805,-0.330933 0.32148,-0.359299 0.46331,-1.44665 0.59568,-4.349406 0.009,-0.09455 0.0189,-0.340388 0.0189,-0.340388 z m 3.89556,-3.110771 c 0.69968,1.399374 1.89104,2.921666 2.93112,3.763182 0.13237,-0.19856 0.39712,-0.472762 0.57677,-0.624046 -1.02117,-0.718597 -2.23144,-2.136881 -2.84603,-3.403882 z"
       id="path428" /></g><sodipodi:namedview
     id="namedview7"
     pagecolor="#ffffff"
     bordercolor="#ffffff"
     borderopacity="1"
     inkscape:showpageshadow="0"
     inkscape:pageopacity="1"
     inkscape:pagecheckerboard="false"
     inkscape:deskcolor="#505050"
     inkscape:document-units="mm"
     showgrid="false"
     inkscape:zoom="1"
     inkscape:cx="12.5"
     inkscape:cy="202"
     inkscape:window-width="1920"
     inkscape:window-height="1009"
     inkscape:window-x="-8"
     inkscape:window-y="-8"
     inkscape:window-maximized="1"
     inkscape:current-layer="svg5" /><defs
     id="defs2" /><path
     style="font-weight:300;font-size:17.0224px;font-family:'Noto Sans JP';-inkscape-font-specification:'Noto Sans JP Light';stroke-width:0.0945368"
     d="m 171.04596,0.56350169 c -1.84453,0 -3.47241,0.51205801 -4.88428,1.53681301 -1.38909,1.024744 -2.48212,2.459512 -3.27914,4.304047 -0.77426,1.844546 -1.16157,4.0078383 -1.16157,6.4899673 0,2.48216 0.38731,4.645976 1.16157,6.490522 0.79702,1.844535 1.89005,3.278759 3.27914,4.303503 1.41187,1.024744 3.03975,1.537357 4.88428,1.537357 1.86731,0 3.49573,-0.512613 4.88484,-1.537357 1.38907,-1.024744 2.47073,-2.458968 3.24498,-4.303503 0.77425,-1.844546 1.16156,-4.008362 1.16156,-6.490522 0,-2.482129 -0.38731,-4.6454213 -1.16156,-6.4899673 -0.77425,-1.844535 -1.85591,-3.279303 -3.24498,-4.304047 -1.38911,-1.024755 -3.01753,-1.53681301 -4.88484,-1.53681301 z m 0,3.62078601 c 0.8198,0 1.54885,0.216436 2.18647,0.649108 0.66039,0.409896 1.21802,1.001701 1.67345,1.775951 0.47822,0.77425 0.84274,1.696405 1.09324,2.766691 0.25049,1.0702833 0.3758,2.2430513 0.3758,3.5182913 0,1.275249 -0.12531,2.448006 -0.3758,3.518292 -0.2505,1.070297 -0.61502,1.992996 -1.09324,2.767246 -0.45543,0.77426 -1.01306,1.377485 -1.67345,1.810115 -0.63762,0.409905 -1.36667,0.614944 -2.18647,0.614944 -0.8198,0 -1.55969,-0.205039 -2.22007,-0.614944 -0.6604,-0.43263 -1.22997,-1.035855 -1.70818,-1.810115 -0.45545,-0.77425 -0.80803,-1.696949 -1.05852,-2.767246 -0.2505,-1.070286 -0.3758,-2.243043 -0.3758,-3.518292 0,-1.27524 0.1253,-2.448008 0.3758,-3.5182913 0.25049,-1.070286 0.60307,-1.992441 1.05852,-2.766691 0.47821,-0.77425 1.04778,-1.366055 1.70818,-1.775951 0.66038,-0.432672 1.40027,-0.649108 2.22007,-0.649108 z"
     id="path310" /><path
     style="font-weight:300;font-size:17.0224px;font-family:'Noto Sans JP';-inkscape-font-specification:'Noto Sans JP Light';stroke-width:0.0945368"
     d="m 156.25536,0.56350169 -9.52998,2.15175701 v 3.82576 l 5.56811,-1.536813 V 24.849915 h 3.96187 z"
     id="path308" /><style
     type="text/css"
     id="style747">
	.st0{fill:#FFFFFF;}
	.st1{fill:#011A68;}
	.st2{fill:#FCFCFC;}
</style><path
     style="font-weight:300;font-size:17.0224px;font-family:'Noto Sans JP';-inkscape-font-specification:'Noto Sans JP Light';stroke-width:0.0901769"
     d="m 74.116225,1.3024982 v 3.616743 H 85.422674 L 76.07151,24.110918 h 4.105022 L 91.157106,1.3024972 Z"
     id="path1511" /><path
     id="path1505"
     style="font-weight:300;font-size:17.0224px;font-family:'Noto Sans JP';-inkscape-font-specification:'Noto Sans JP Light';stroke-width:0.11726"
     d="m 120.07528,15.856889 c -0.0694,0.295416 -0.19999,0.695049 -0.339,1.025211 h -1.7989 v 2.545938 0.217345 h -1.27674 v 0.747037 h 1.23367 c -0.0956,1.025239 -0.41726,2.120166 -1.39906,2.936884 0.18246,0.104222 0.49554,0.399267 0.61718,0.555666 1.11214,-0.912292 1.48549,-2.276168 1.58976,-3.49255 h 3.77072 v 2.502195 c 0,0.139007 -0.0434,0.182684 -0.18249,0.191373 -0.14771,0 -0.61667,-4.45e-4 -1.07716,-0.01778 0.11295,0.217211 0.22565,0.565354 0.26041,0.782578 0.68639,0 1.14723,-0.0093 1.43393,-0.13054 0.30409,-0.139019 0.39094,-0.373641 0.39094,-0.816753 v -2.511081 h 1.11202 v -0.747036 h -1.11202 V 16.882094 H 120.579 c 0.1564,-0.278038 0.33026,-0.608053 0.48664,-0.929525 z m -8.80177,0.05263 c 0,0.295415 6.3e-4,0.581981 0.009,0.868693 h -2.58968 v 4.353043 h 0.79993 v -0.495522 h 2.19805 c 0.12168,0.529994 0.27839,1.008 0.46955,1.425043 -1.15557,0.52999 -2.59783,0.868437 -4.07487,1.068267 0.13902,0.182466 0.37329,0.547681 0.46886,0.738837 1.39885,-0.23459 2.78886,-0.590809 3.97918,-1.146871 0.49525,0.712446 1.16462,1.129784 2.06819,1.129784 0.80803,0 1.08618,-0.32184 1.24256,-1.616416 -0.20852,-0.06944 -0.48665,-0.225873 -0.66912,-0.390947 -0.0869,0.973103 -0.19143,1.23367 -0.55635,1.23367 -0.55606,0 -1.00798,-0.260283 -1.36421,-0.738152 0.62558,-0.364906 1.17311,-0.799362 1.60753,-1.329355 l -0.78258,-0.356773 c -0.31279,0.390974 -0.72983,0.729808 -1.2077,1.025211 -0.139,-0.304093 -0.26071,-0.651324 -0.36497,-1.042298 h 2.51997 v -3.857525 h -2.93689 c -0.009,-0.286725 -0.009,-0.573278 0,-0.868694 z m 17.58577,0.302777 -3.23214,6.84e-4 v 4.5533 h 2.62385 c -0.0173,0.46918 -0.0436,0.851174 -0.0697,1.163956 -0.0956,-0.269348 -0.24294,-0.608234 -0.40803,-0.877579 l -0.34789,0.121651 c 0.19983,0.347541 0.38227,0.816806 0.45177,1.120899 l 0.28707,-0.112777 c -0.0608,0.582128 -0.12154,0.851234 -0.20847,0.955495 -0.0694,0.07817 -0.13905,0.09569 -0.24332,0.09569 -0.11295,0 -0.35603,-3.3e-5 -0.62537,-0.03485 0.0956,0.173776 0.16491,0.452007 0.1736,0.643149 0.31278,0.01733 0.60832,0.01689 0.79078,-0.0095 0.19984,-0.01733 0.34764,-0.08716 0.48664,-0.252202 0.21721,-0.269335 0.31265,-1.050929 0.41691,-3.153547 0.009,-0.09562 0.0171,-0.304146 0.0171,-0.304146 h -1.2774 v -0.669164 h 1.00812 v -0.634263 h -1.00812 V 18.15883 h 1.00808 v -0.634266 h -1.00812 v -0.643148 h 1.16463 z m 0.63427,6.84e-4 v 3.284774 c 0,1.251126 -0.0612,2.858663 -0.83453,3.962094 0.18247,0.07817 0.51303,0.286604 0.65205,0.416921 0.7472,-1.068675 0.91234,-2.702574 0.9384,-4.00584 h 0.61649 c 0.28672,1.807202 0.79937,3.232079 1.9028,4.014041 0.10422,-0.208535 0.34771,-0.512333 0.52149,-0.651351 -0.94705,-0.616886 -1.45125,-1.86827 -1.70322,-3.36269 h 1.32116 v -3.657947 z m 14.65709,0.0089 c -0.009,0.243265 -0.0255,0.53022 -0.069,0.825637 -0.11295,0.79065 -0.25221,1.98075 -0.25221,2.797458 0,0.573439 0.0522,1.077795 0.0958,1.407955 l 0.85161,-0.06083 c -0.0608,-0.417054 -0.061,-0.712523 -0.0349,-0.999237 0.0782,-1.146881 1.04239,-2.71134 2.10237,-2.71134 0.82541,0 1.28629,0.886392 1.28629,2.241793 0,2.154742 -1.42506,2.858827 -3.32782,3.154229 l 0.5208,0.790778 c 2.21557,-0.408363 3.72766,-1.520919 3.72766,-3.945007 0,-1.868016 -0.87768,-3.031889 -2.0593,-3.031889 -1.05131,0 -1.88548,0.929653 -2.26776,1.720302 0.0521,-0.547371 0.22616,-1.598735 0.37386,-2.146107 z m -6.82039,0.06083 c 0.0521,0.191142 0.078,0.573504 0.0868,0.938411 0,0.373607 0.009,0.999215 0.009,1.511842 0,0.495235 0.0348,1.268344 0.0608,1.954733 -0.20852,-0.01733 -0.42594,-0.03486 -0.64315,-0.03486 -1.53787,0 -2.26776,0.66907 -2.26776,1.511843 0,1.068688 0.94747,1.459899 2.16387,1.459899 1.28589,0 1.70253,-0.660556 1.70253,-1.399069 0,-0.130277 7e-5,-0.286202 -0.009,-0.459977 0.84278,0.330171 1.58128,0.87728 2.11125,1.407272 l 0.5215,-0.816752 c -0.6082,-0.564752 -1.56436,-1.17309 -2.67648,-1.485873 -0.0348,-0.712444 -0.0868,-1.511445 -0.0868,-2.067506 0.70377,-0.01733 1.78115,-0.06124 2.53706,-0.139429 l -0.0349,-0.81675 c -0.7472,0.08689 -1.80711,0.130673 -2.50219,0.139428 0,-0.278038 -0.009,-0.547596 0,-0.764806 0.009,-0.295416 0.035,-0.721199 0.0697,-0.938411 z m -11.0169,0.60009 h 0.71286 v 0.643149 h -0.71286 z m 3.93612,0.06903 h 1.92876 v 2.17208 h -1.92876 z m -20.75709,0.538578 h 1.81598 c 0.009,0.295417 0.0259,0.582456 0.052,0.860494 h -1.86793 z m 2.61566,0 h 2.10235 v 0.860494 h -2.05042 c -0.026,-0.278038 -0.0432,-0.565077 -0.052,-0.860493 z m 6.63788,0.140112 h 3.72699 v 2.015564 h -3.72699 v -0.20846 z m 1.30339,0.19069 -0.54747,0.443574 c 0.5387,0.373608 1.15522,0.903318 1.43325,1.285613 l 0.58232,-0.486633 c -0.30411,-0.382296 -0.92942,-0.895015 -1.4681,-1.242554 z m 6.26404,0.339003 h 0.71286 v 0.660235 h -0.71286 z m -16.82097,0.877579 h 1.93765 c 0.0348,0.304106 0.0694,0.59974 0.12168,0.886467 h -2.0593 z m 2.72842,0 h 1.98959 v 0.886467 h -1.85972 c -0.0521,-0.278038 -0.0952,-0.573671 -0.12988,-0.886467 z m 14.09255,0.416919 h 0.71286 v 0.669122 h -0.71286 z m -6.25584,1.198813 v 2.624538 h 0.79967 v -2.624587 z m 5.52588,0.546778 c -0.0348,0.755907 -0.14767,1.52051 -0.45177,1.96362 l 0.43468,0.243316 c 0.34754,-0.495247 0.43432,-1.320794 0.47775,-2.120133 z m 1.61642,0.02598 -0.37386,0.0786 c 0.14771,0.443112 0.27808,1.025463 0.30415,1.399071 l 0.39983,-0.08749 c -0.0348,-0.373608 -0.17372,-0.955764 -0.33012,-1.390184 z m -0.60829,0.113453 -0.39095,0.04306 c 0.0782,0.512626 0.12142,1.15602 0.10396,1.590442 l 0.40871,-0.06083 c 0.009,-0.425733 -0.0348,-1.068749 -0.12168,-1.572673 z m 10.13933,0.07791 h 6.9e-4 c 0.26908,4.5e-5 0.52965,0.02653 0.79009,0.0786 0.009,0.173776 0.009,0.321056 0.009,0.434006 0,0.590818 -0.26919,0.868694 -0.8687,0.868694 -0.73851,0 -1.1988,-0.216636 -1.1988,-0.668436 h -6.9e-4 c 0,-0.442986 0.46024,-0.71271 1.26785,-0.712863 z" /><path
     id="path1503"
     style="font-weight:300;font-size:17.0224px;font-family:'Noto Sans JP';-inkscape-font-specification:'Noto Sans JP Light';stroke-width:0.11726"
     d="m 3.6269613,15.873635 -0.773008,6.84e-4 v 1.694331 h -1.017008 v 0.747035 h 1.017008 v 1.746959 c -0.417056,0.104221 -0.7999,0.199786 -1.112694,0.269288 l 0.217344,0.781894 c 0.269347,-0.07817 0.582555,-0.165306 0.89535,-0.252202 v 2.05042 c 0,0.112951 -0.03492,0.147828 -0.156515,0.156516 -0.09562,0 -0.425957,-4.68e-4 -0.764807,-0.0095 0.09562,0.199831 0.200162,0.521232 0.22623,0.721066 0.547371,0 0.903114,-0.01733 1.155069,-0.147631 0.23459,-0.11295 0.313031,-0.321389 0.313031,-0.721065 v -2.267788 l 0.947295,-0.27749 -0.104565,-0.738835 -0.842723,0.234432 v -1.5467 h 0.903552 V 17.56801 h -0.903552 z m 40.0276267,0.05331 v 3.005915 h -1.772247 v -2.249994 h -0.807865 v 3.031889 h 2.580112 v 2.806343 h -2.093479 v -2.284852 h -0.816752 v 3.605323 h 0.816752 v -0.529695 h 5.134936 v 0.512609 h 0.833838 v -3.588237 h -0.833838 v 2.284852 h -2.215822 v -2.806342 h 2.710657 v -3.040775 h -0.850925 v 2.258881 h -1.859732 v -3.005916 z m -29.940242,0.06083 v 6.620124 H 10.54303 v 0.816751 h 7.775877 V 22.607899 H 14.58304 v -3.232145 h 3.136461 V 18.567887 H 14.58304 v -2.580112 z m 9.044405,0.207777 -3.232146,6.82e-4 v 4.552619 h 2.624539 c -0.01733,0.469178 -0.04353,0.851172 -0.06971,1.163954 -0.09562,-0.269335 -0.243643,-0.608233 -0.408717,-0.877581 l -0.347205,0.121653 c 0.199832,0.347539 0.382274,0.816803 0.451777,1.120896 l 0.286375,-0.112778 c -0.06084,0.582127 -0.121547,0.851233 -0.20846,0.955494 -0.06944,0.07817 -0.139042,0.09569 -0.243316,0.09569 -0.11295,0 -0.356031,-1.78e-4 -0.625379,-0.03485 0.09562,0.173762 0.164914,0.452005 0.173603,0.643148 0.312794,0.01733 0.608326,0.01688 0.790779,-0.0095 0.199845,-0.01733 0.347614,-0.08637 0.486633,-0.251518 0.217211,-0.269334 0.312657,-1.051626 0.416918,-3.154231 0.0093,-0.09562 0.01778,-0.304146 0.01778,-0.304146 h -1.277411 v -0.66917 h 1.008123 v -0.634263 h -1.008123 v -0.660236 h 1.008123 v -0.634263 h -1.008123 v -0.643147 h 1.163954 z m 0.634264,6.82e-4 v 3.284091 c 0,1.251141 -0.06058,2.858663 -0.833838,3.962095 0.182466,0.07817 0.512345,0.286591 0.65135,0.41692 0.747217,-1.068689 0.912341,-2.702561 0.93841,-4.00584 h 0.617176 c 0.286714,1.807203 0.799358,3.232763 1.90279,4.014725 0.104221,-0.208534 0.347714,-0.513016 0.52149,-0.652035 -0.947047,-0.616873 -1.45126,-1.868269 -1.703216,-3.362689 h 1.320471 v -3.657267 z m 44.346496,0.0075 c -0.0093,0.243266 -0.0262,0.530221 -0.06971,0.825636 -0.11295,0.79065 -0.252202,1.980752 -0.252202,2.797459 0,0.573438 0.05218,1.077792 0.09569,1.407955 l 0.851614,-0.06083 c -0.06084,-0.417043 -0.06092,-0.712525 -0.03486,-0.999239 0.07816,-1.146878 1.043083,-2.710655 2.103043,-2.710655 0.825409,0 1.285622,0.885711 1.285622,2.24111 0,2.154741 -1.425064,2.858828 -3.327839,3.15423 l 0.521489,0.790779 c 2.215557,-0.408366 3.726987,-1.520921 3.726987,-3.945009 0,-1.868015 -0.876991,-3.031887 -2.058617,-3.031887 -1.05131,0 -1.885488,0.929651 -2.267773,1.7203 0.05211,-0.547369 0.225464,-1.598733 0.373172,-2.146106 z m -6.820382,0.06151 c 0.05211,0.191143 0.07807,0.573491 0.0868,0.93841 0,0.373608 0.0095,0.999217 0.0095,1.511844 0,0.495234 0.03477,1.268344 0.06083,1.954733 -0.208522,-0.01733 -0.425255,-0.03418 -0.642466,-0.03418 -1.537868,0 -2.267765,0.669055 -2.267765,1.511844 0,1.068673 0.946798,1.459216 2.163193,1.459216 1.285885,0 1.703217,-0.659874 1.703217,-1.398388 0,-0.130277 -6.29e-4,-0.286899 -0.0095,-0.460661 0.842774,0.330158 1.581257,0.877267 2.11125,1.407272 l 0.52149,-0.816753 c -0.608197,-0.56475 -1.563677,-1.17309 -2.675799,-1.485872 -0.03478,-0.712458 -0.08749,-1.511446 -0.08749,-2.067506 0.70377,-0.01733 1.781148,-0.06124 2.537054,-0.13943 l -0.03418,-0.816066 c -0.747203,0.08689 -1.8078,0.130011 -2.50288,0.138744 0,-0.278022 -0.0093,-0.547596 0,-0.764805 0.0093,-0.295404 0.03506,-0.721212 0.06971,-0.93841 z M 4.8695173,16.378697 v 4.95245 h 0.781893 V 20.87937 h 1.120896 v 2.953975 h 0.764806 V 20.87937 h 1.112012 v 0.434005 h 0.816751 V 16.37874 Z M 49.52836,16.734832 v 6.916067 h 0.833837 v -0.721064 h 4.865648 v 0.686208 h 0.87758 v -6.881231 z m -17.993809,0.01706 -2.120135,6.403464 h 1.025211 l 0.547462,-1.824191 h 2.224023 l 0.538577,1.824191 h 1.068953 l -2.120135,-6.403464 z m 5.577828,0.06083 c -0.738528,0 -1.329138,0.321404 -1.833076,0.781894 l 0.52149,0.626063 c 0.364919,-0.36492 0.781494,-0.608292 1.276729,-0.608292 0.608197,0 0.982151,0.338606 0.982151,0.894666 0,0.59951 -0.417413,1.060068 -1.677243,1.060068 v 0.738841 c 1.442295,0 1.894588,0.442708 1.894588,1.129098 0,0.625563 -0.495435,1.016324 -1.216583,1.016324 -0.660322,0 -1.138248,-0.32101 -1.511844,-0.703292 l -0.486633,0.642464 c 0.425733,0.477871 1.077417,0.87758 2.085279,0.87758 1.172908,0 2.137221,-0.660321 2.137221,-1.78113 0,-0.842776 -0.581957,-1.381336 -1.320471,-1.563789 v -0.04306 c 0.677701,-0.25197 1.103127,-0.729867 1.103127,-1.451016 0,-1.025225 -0.807855,-1.616415 -1.954735,-1.616415 z m -16.898883,0.05194 h 0.712179 v 0.643149 h -0.712179 z m 3.935441,0.06972 h 1.929446 v 2.172077 H 24.148937 Z M 5.6514103,17.116876 h 1.120896 v 1.137982 h -1.120896 z m 1.885702,0 h 1.112012 v 1.137982 h -1.112012 z m 24.5360157,0.43469 h 0.04306 c 0.191141,0.721148 0.382878,1.433256 0.600089,2.128337 l 0.251518,0.860492 H 31.22152 l 0.261087,-0.860492 c 0.208535,-0.695081 0.408069,-1.398501 0.590521,-2.128337 z m 18.289069,0 h 4.865648 v 4.552617 h -4.865648 z m -30.148701,0.590521 h 0.712179 V 18.80232 H 20.213496 Z M 5.6514103,18.984808 h 1.120896 v 1.164639 h -1.120896 z m 1.885702,0 h 1.112012 v 1.164639 h -1.112012 z m 12.6763837,0.451778 h 0.712179 v 0.669119 h -0.712179 z m -0.729949,1.746275 c -0.03478,0.755892 -0.147685,1.520507 -0.451777,1.963618 l 0.434006,0.243318 c 0.34754,-0.495235 0.434984,-1.320111 0.478432,-2.119454 z m 1.615731,0.02665 -0.373177,0.07791 c 0.147708,0.443123 0.278077,1.025461 0.304145,1.399071 l 0.39915,-0.0868 c -0.03478,-0.373609 -0.173721,-0.955764 -0.330118,-1.390187 z m -0.608292,0.112778 -0.390263,0.04306 c 0.07817,0.512624 0.121349,1.15602 0.10389,1.590442 l 0.408034,-0.06083 c 0.0093,-0.425732 -0.03476,-1.068748 -0.121653,-1.572673 z m 39.828736,0.07791 c 0.269335,0 0.529437,0.02649 0.790096,0.0786 0.0093,0.173776 0.0095,0.321056 0.0095,0.434006 0,0.590818 -0.269187,0.869377 -0.868696,0.869377 -0.738513,0 -1.199496,-0.21732 -1.199496,-0.669119 0,-0.443113 0.460497,-0.712863 1.268527,-0.712863 z" /><g
     transform="matrix(0.00252628,0,0,-0.00252628,2.9288284,12.706791)"
     id="g718"><path
       fill="#8f76d6"
       d="m 1130.2899,2478.9454 c -883.85027,0 -1600.37601,-715.8229 -1600.37601,-1599.89236 0,-884.0802178 716.52574,-1600.10759 1600.37601,-1600.10759 882.8525,0 1599.6239,716.0273722 1599.6239,1600.10759 0,884.06946 -716.7714,1599.89236 -1599.6239,1599.89236"
       id="path712" /><path
       fill="#ffffff"
       d="m 2004.4783,879.05304 c 0,-482.48193 -391.7881,-874.2859252 -874.1884,-874.2859252 -483.73494,0 -875.44128,391.8039952 -875.44128,874.2859252 0,483.03086 391.70634,874.82406 875.44128,874.82406 482.4003,0 874.1884,-391.7932 874.1884,-874.82406"
       id="path714" /><path
       d="M 1544.0772,593.28571 V 368.35063 h -876.75 l 484.7036,797.77207 H 749.89955 v 225.893 H 1597.1271 L 1115.4156,593.28571 h 428.6616"
       id="path716" /></g><g
     id="g745"
     transform="matrix(0.02018044,0,0,0.02018044,14.649658,10.474402)"><circle
       r="199"
       fill="#ec6e65"
       id="circle730"
       cx="0"
       cy="0" /><circle
       r="109"
       fill="#ffffff"
       id="circle732"
       cx="0"
       cy="0" /><path
       d="m -65,62 h 35 l 8,-21 h 44 l 8,21 H 65 L 18,-62 H -18 Z M -13,16 0,-23 13,16 Z"
       id="path734" /></g><g
     id="g776"
     transform="matrix(0.02653677,0,0,0.02653677,19.440158,6.3370711)"><polygon
       class="st0"
       points=""
       id="polygon749"
       style="fill:#ffffff" /><circle
       transform="matrix(0.118,-0.993,0.993,0.118,-17.1895,292.4594)"
       class="st1"
       cx="156.03999"
       cy="155.91"
       id="ellipse751"
       r="154.77"
       style="fill:#011a68" /><circle
       transform="matrix(0.1181,-0.993,0.993,0.1181,-17.205,292.4398)"
       class="st2"
       cx="156.03999"
       cy="155.91"
       id="ellipse753"
       r="122.27"
       style="fill:#fcfcfc" /><g
       id="g757"><path
         class="st1"
         d="m 167.29,175.67 h 22.85 v 3.13 c 0,6.1 0.93,10.44 2.8,13.04 1.87,2.59 4.99,3.89 9.35,3.89 3.44,0 6.17,-1.16 8.19,-3.49 2.01,-2.33 3.02,-5.5 3.02,-9.51 0,-5.62 -4.76,-11.85 -14.26,-18.69 -0.63,-0.43 -1.09,-0.75 -1.38,-0.96 -5,-3.58 -8.99,-6.52 -11.97,-8.83 -2.98,-2.3 -5.2,-4.2 -6.66,-5.7 -3.93,-3.96 -6.62,-7.69 -8.08,-11.19 -1.46,-3.5 -2.18,-7.82 -2.18,-12.96 0,-9.89 3.07,-17.78 9.21,-23.67 6.14,-5.88 14.4,-8.82 24.78,-8.82 10.72,0 18.79,2.73 24.2,8.18 5.41,5.46 8.12,13.56 8.12,24.31 v 3.13 h -22.2 v -0.64 c 0,-5.56 -0.91,-9.75 -2.73,-12.56 -1.82,-2.81 -4.55,-4.21 -8.19,-4.21 -3.3,0 -5.93,1.1 -7.9,3.29 -1.97,2.19 -2.95,5.16 -2.95,8.9 0,6.37 6.21,13.61 18.63,21.74 3.2,2.14 5.68,3.82 7.42,5.05 7.03,4.92 11.92,9.64 14.67,14.16 2.74,4.52 4.11,9.91 4.11,16.17 0,11.5 -3.06,20.16 -9.17,25.99 -6.11,5.83 -15.16,8.75 -27.15,8.75 -11.26,0 -19.52,-2.77 -24.78,-8.3 -5.26,-5.54 -7.9,-14.21 -7.9,-26.03 0,-0.43 0.02,-1.1 0.07,-2.01 0.06,-0.9 0.08,-1.62 0.08,-2.16 z"
         id="path755"
         style="fill:#011a68" /></g><g
       id="g761"><path
         class="st1"
         d="M 77.13,92.6 H 96.97 V 214.88 H 77.13 Z m 13.74,70.13 33.11,-70.14 h 23.73 L 92.24,196.21 Z m 12.66,-12.27 15.49,-12.53 32.81,76.95 h -22.74 z"
         id="path759"
         style="fill:#011a68" /></g></g><g
     id="g793"
     transform="matrix(0.02053521,0,0,0.02053521,108.16191,6.3656375)"><rect
       style="fill:#ffffff;stroke:#006cba;stroke-width:44.5;stroke-linejoin:round"
       rx="89"
       ry="89"
       x="22.25"
       y="22.25"
       width="355.5"
       height="355.5"
       id="rect778" /><path
       d="M 122.566,146.785 H 78.005 v -24.497 h 120.381 v 24.497 h -44.617 v 131.094 h -31.203"
       id="path780" /><path
       d="m 301.771,150.792 c -9.775,-4.234 -20.688,-6.735 -31.603,-6.735 -10.687,0 -24.552,4.718 -24.552,21.712 0,26.969 68.259,15.601 68.259,67.72 0,34.156 -26.995,47.115 -58.428,47.115 -16.937,0 -24.554,-2.271 -39.898,-6.078 l 2.843,-28.021 c 10.685,5.799 23.019,9.549 35.293,9.549 11.824,0 27.51,-6.023 27.51,-20.121 0,-29.608 -68.146,-17.334 -68.146,-68.828 0,-34.813 26.997,-47.487 54.508,-47.487 13.299,0 25.689,1.733 37.229,5.569 z"
       id="path782" /></g><g
     aria-label="分"
     id="text422"
     style="font-size:9.45523px;font-family:'Noto Sans JP';-inkscape-font-specification:'Noto Sans JP';stroke-width:0.393968"><path
       d="m 88.721939,15.653898 c -0.586224,1.44665 -1.635755,2.751472 -2.827114,3.555167 0.170194,0.122918 0.472762,0.387664 0.59568,0.538948 1.191359,-0.888792 2.288165,-2.297621 2.968942,-3.8861 z m -1.295367,3.356607 v 0.680776 h 1.928867 c -0.21747,1.597934 -0.737508,3.09186 -2.959487,3.829368 0.160739,0.151284 0.359299,0.434941 0.453851,0.61459 2.401629,-0.869881 3.006763,-2.581277 3.252599,-4.443958 h 2.43945 c -0.113463,2.382718 -0.245836,3.328241 -0.491672,3.564622 -0.0851,0.104007 -0.19856,0.122918 -0.39712,0.122918 -0.21747,0 -0.803694,-0.0095 -1.418284,-0.06619 0.132373,0.208015 0.21747,0.491672 0.23638,0.699687 0.586225,0.02837 1.172449,0.04728 1.484471,0.01891 0.330934,-0.03782 0.529493,-0.09455 0.728053,-0.330933 0.321478,-0.359299 0.463306,-1.44665 0.59568,-4.349406 0.0095,-0.09455 0.01891,-0.340388 0.01891,-0.340388 z m 3.895555,-3.110771 c 0.699687,1.399374 1.891046,2.921666 2.931121,3.763182 0.132374,-0.19856 0.39712,-0.472762 0.576769,-0.624046 -1.021164,-0.718597 -2.231434,-2.136881 -2.846024,-3.403882 z"
       id="path431" /></g></svg>
