<?xml version="1.0" encoding="UTF-8" standalone="no"?>
<!-- Created with Inkscape (http://www.inkscape.org/) -->

<svg
   width="192.33688mm"
   height="64.560097mm"
   viewBox="0 0 192.33688 64.560095"
   version="1.1"
   id="svg5"
   inkscape:version="1.2.1 (9c6d41e410, 2022-07-14)"
   sodipodi:docname="dates.svg"
   xml:space="preserve"
   xmlns:inkscape="http://www.inkscape.org/namespaces/inkscape"
   xmlns:sodipodi="http://sodipodi.sourceforge.net/DTD/sodipodi-0.dtd"
   xmlns="http://www.w3.org/2000/svg"
   xmlns:svg="http://www.w3.org/2000/svg"><sodipodi:namedview
     id="namedview7"
     pagecolor="#ffffff"
     bordercolor="#ffffff"
     borderopacity="1"
     inkscape:showpageshadow="0"
     inkscape:pageopacity="1"
     inkscape:pagecheckerboard="false"
     inkscape:deskcolor="#505050"
     inkscape:document-units="mm"
     showgrid="false"
     inkscape:zoom="0.35355339"
     inkscape:cx="304.05592"
     inkscape:cy="-610.94026"
     inkscape:window-width="1920"
     inkscape:window-height="1009"
     inkscape:window-x="-8"
     inkscape:window-y="-8"
     inkscape:window-maximized="1"
     inkscape:current-layer="svg5" /><defs
     id="defs2" /><path
     style="font-weight:300;font-size:17.0224px;font-family:'Noto Sans JP';-inkscape-font-specification:'Noto Sans JP Light';stroke-width:0.0886589"
     d="m 172.90448,48.411942 c -0.28493,0 -0.52712,0.0998 -0.72657,0.29921 -0.18996,0.18995 -0.28474,0.42219 -0.28474,0.69763 0,0.26594 0.0948,0.49869 0.28474,0.69815 0.19945,0.19945 0.44164,0.2992 0.72657,0.2992 0.28494,0 0.52215,-0.0998 0.7121,-0.2992 0.18996,-0.19946 0.28526,-0.43221 0.28526,-0.69815 0,-0.27544 -0.0953,-0.50768 -0.28526,-0.69763 -0.18995,-0.19946 -0.42716,-0.29921 -0.7121,-0.29921 z"
     id="path378" /><path
     style="font-weight:300;font-size:17.0224px;font-family:'Noto Sans JP';-inkscape-font-specification:'Noto Sans JP Light';stroke-width:0.0886589"
     d="m 60.682915,49.049399 c -0.284936,0 -0.527116,0.0998 -0.726571,0.2992 -0.189957,0.18996 -0.285254,0.42271 -0.285254,0.69815 0,0.26594 0.0953,0.49818 0.285254,0.69763 0.199455,0.19946 0.441635,0.29921 0.726571,0.29921 0.284936,0 0.522144,-0.0998 0.712101,-0.29921 0.189957,-0.19945 0.285254,-0.43169 0.285254,-0.69763 0,-0.27544 -0.0953,-0.50819 -0.285254,-0.69815 -0.189957,-0.19945 -0.427165,-0.2992 -0.712101,-0.2992 z"
     id="path376" /><path
     style="font-weight:300;font-size:17.0224px;font-family:'Noto Sans JP';-inkscape-font-specification:'Noto Sans JP Light';stroke-width:0.0886589"
     d="m 172.90448,43.026222 c -0.28493,0 -0.52712,0.0998 -0.72657,0.29921 -0.18996,0.18995 -0.28474,0.42271 -0.28474,0.69815 0,0.26594 0.0948,0.49869 0.28474,0.69815 0.19945,0.19945 0.44164,0.2992 0.72657,0.2992 0.28494,0 0.52215,-0.0998 0.7121,-0.2992 0.18996,-0.19946 0.28526,-0.43221 0.28526,-0.69815 0,-0.27544 -0.0953,-0.5082 -0.28526,-0.69815 -0.18995,-0.19946 -0.42716,-0.29921 -0.7121,-0.29921 z"
     id="path374" /><path
     style="font-weight:300;font-size:17.0224px;font-family:'Noto Sans JP';-inkscape-font-specification:'Noto Sans JP Light';stroke-width:0.0886589"
     d="m 60.682915,43.663679 c -0.284936,0 -0.527116,0.0998 -0.726571,0.2992 -0.189957,0.18996 -0.285254,0.42271 -0.285254,0.69815 0,0.26594 0.0953,0.4987 0.285254,0.69815 0.199455,0.19945 0.441635,0.29921 0.726571,0.29921 0.284936,0 0.522144,-0.0998 0.712101,-0.29921 0.189957,-0.19945 0.285254,-0.43221 0.285254,-0.69815 0,-0.27544 -0.0953,-0.50819 -0.285254,-0.69815 -0.189957,-0.19945 -0.427165,-0.2992 -0.712101,-0.2992 z"
     id="path372" /><path
     style="font-weight:300;font-size:17.0224px;font-family:'Noto Sans JP';-inkscape-font-specification:'Noto Sans JP Light';stroke-width:0.0886589"
     d="m 166.66455,40.177302 -3.16311,4.24522 c -0.24695,0.31343 -0.45091,0.66976 -0.61237,1.06867 -0.15196,0.38941 -0.22789,0.8167 -0.22789,1.28209 0,0.73133 0.16128,1.36309 0.48421,1.89498 0.33242,0.53184 0.77411,0.94031 1.32498,1.22524 0.55088,0.27544 1.16824,0.4129 1.85208,0.4129 0.68385,0 1.30121,-0.13746 1.85209,-0.4129 0.55088,-0.28493 0.98759,-0.6934 1.31051,-1.22524 0.33243,-0.53189 0.49868,-1.16365 0.49868,-1.89498 0,-0.47489 -0.0853,-0.91161 -0.25632,-1.31051 -0.16146,-0.39892 -0.38478,-0.74085 -0.66972,-1.02578 -0.27544,-0.29444 -0.59355,-0.51777 -0.95447,-0.66973 -0.36092,-0.16146 -0.7361,-0.24236 -1.12551,-0.24236 -0.34192,0 -0.6362,0.0427 -0.88315,0.12816 -0.0485,0.0149 -0.0963,0.0338 -0.14366,0.0553 l 2.85047,-3.53105 z m -0.3421,4.50153 c 0.37992,0 0.72185,0.0903 1.02578,0.27079 0.30393,0.17096 0.54114,0.41811 0.7121,0.74104 0.18046,0.31343 0.27079,0.67421 0.27079,1.08262 0,0.40841 -0.0903,0.76474 -0.27079,1.06867 -0.17096,0.30393 -0.40817,0.54611 -0.7121,0.72657 -0.30393,0.17096 -0.64586,0.25631 -1.02578,0.25631 -0.37991,0 -0.72184,-0.0854 -1.02577,-0.25631 -0.30394,-0.18046 -0.54611,-0.42264 -0.72657,-0.72657 -0.17096,-0.30393 -0.25632,-0.66026 -0.25632,-1.06867 0,-0.40841 0.0854,-0.76919 0.25632,-1.08262 0.18046,-0.32293 0.42263,-0.57008 0.72657,-0.74104 0.30393,-0.18046 0.64586,-0.27079 1.02577,-0.27079 z"
     id="path370" /><path
     style="font-weight:300;font-size:17.0224px;font-family:'Noto Sans JP';-inkscape-font-specification:'Noto Sans JP Light';stroke-width:0.0886589"
     d="m 188.46219,40.006252 c -0.76933,0 -1.44874,0.21338 -2.0376,0.64079 -0.57938,0.4274 -1.03494,1.02591 -1.36736,1.79524 -0.32293,0.76932 -0.48473,1.67154 -0.48473,2.70681 0,1.03527 0.1618,1.93749 0.48473,2.70681 0.33242,0.76933 0.78798,1.36784 1.36736,1.79524 0.58886,0.42741 1.26827,0.64131 2.0376,0.64131 0.77882,0 1.45772,-0.2139 2.03708,-0.64131 0.57938,-0.4274 1.03048,-1.02591 1.35341,-1.79524 0.32293,-0.76932 0.48421,-1.67154 0.48421,-2.70681 0,-1.03527 -0.16128,-1.93749 -0.48421,-2.70681 -0.32293,-0.76933 -0.77403,-1.36784 -1.35341,-1.79524 -0.57936,-0.42741 -1.25826,-0.64079 -2.03708,-0.64079 z m 0,1.50999 c 0.34192,0 0.64563,0.0903 0.91157,0.27078 0.27543,0.17096 0.50819,0.4176 0.69815,0.74052 0.19945,0.32294 0.35131,0.70806 0.45579,1.15446 0.10447,0.44639 0.15657,0.9352 0.15657,1.46709 0,0.53188 -0.0521,1.02121 -0.15657,1.46761 -0.10448,0.4464 -0.25634,0.83101 -0.45579,1.15394 -0.18996,0.32292 -0.42272,0.57453 -0.69815,0.75499 -0.26594,0.17096 -0.56965,0.25631 -0.91157,0.25631 -0.34192,0 -0.6506,-0.0854 -0.92604,-0.25631 -0.27544,-0.18046 -0.51317,-0.43207 -0.71262,-0.75499 -0.18996,-0.32293 -0.33685,-0.70754 -0.44132,-1.15394 -0.10448,-0.4464 -0.15709,-0.93573 -0.15709,-1.46761 0,-0.53189 0.0526,-1.0207 0.15709,-1.46709 0.10447,-0.4464 0.25136,-0.83152 0.44132,-1.15446 0.19945,-0.32292 0.43718,-0.56956 0.71262,-0.74052 0.27544,-0.18046 0.58412,-0.27078 0.92604,-0.27078 z"
     id="path368" /><path
     style="font-weight:300;font-size:17.0224px;font-family:'Noto Sans JP';-inkscape-font-specification:'Noto Sans JP Light';stroke-width:0.0886589"
     d="m 179.55782,40.006252 c -0.76932,0 -1.44873,0.21338 -2.0376,0.64079 -0.57937,0.4274 -1.03493,1.02591 -1.36736,1.79524 -0.32292,0.76932 -0.48472,1.67154 -0.48472,2.70681 0,1.03527 0.1618,1.93749 0.48472,2.70681 0.33243,0.76933 0.78799,1.36784 1.36736,1.79524 0.58887,0.42741 1.26828,0.64131 2.0376,0.64131 0.77883,0 1.45772,-0.2139 2.03709,-0.64131 0.57937,-0.4274 1.03048,-1.02591 1.3534,-1.79524 0.32293,-0.76932 0.48473,-1.67154 0.48473,-2.70681 0,-1.03527 -0.1618,-1.93749 -0.48473,-2.70681 -0.32292,-0.76933 -0.77403,-1.36784 -1.3534,-1.79524 -0.57937,-0.42741 -1.25826,-0.64079 -2.03709,-0.64079 z m 0,1.50999 c 0.34192,0 0.64563,0.0903 0.91157,0.27078 0.27544,0.17096 0.50819,0.4176 0.69815,0.74052 0.19946,0.32294 0.35131,0.70806 0.45579,1.15446 0.10447,0.44639 0.1571,0.9352 0.1571,1.46709 0,0.53188 -0.0526,1.02121 -0.1571,1.46761 -0.10448,0.4464 -0.25633,0.83101 -0.45579,1.15394 -0.18996,0.32292 -0.42271,0.57453 -0.69815,0.75499 -0.26594,0.17096 -0.56965,0.25631 -0.91157,0.25631 -0.34192,0 -0.65061,-0.0854 -0.92604,-0.25631 -0.27544,-0.18046 -0.51316,-0.43207 -0.71262,-0.75499 -0.18996,-0.32293 -0.33684,-0.70754 -0.44131,-1.15394 -0.10448,-0.4464 -0.1571,-0.93573 -0.1571,-1.46761 0,-0.53189 0.0526,-1.0207 0.1571,-1.46709 0.10447,-0.4464 0.25135,-0.83152 0.44131,-1.15446 0.19946,-0.32292 0.43718,-0.56956 0.71262,-0.74052 0.27543,-0.18046 0.58412,-0.27078 0.92604,-0.27078 z"
     id="path366" /><path
     style="font-weight:300;font-size:17.0224px;font-family:'Noto Sans JP';-inkscape-font-specification:'Noto Sans JP Light';stroke-width:0.0886589"
     d="m 160.2391,40.006252 -3.97495,0.89762 v 1.59525 l 2.32234,-0.64079 v 8.27702 h 1.65261 z"
     id="path364" /><path
     style="font-weight:300;font-size:17.0224px;font-family:'Noto Sans JP';-inkscape-font-specification:'Noto Sans JP Light';stroke-width:0.0886589"
     d="m 76.240105,40.643709 c -0.769324,0 -1.448221,0.21338 -2.037085,0.64078 -0.57937,0.4274 -1.035453,1.02592 -1.367875,1.79524 -0.322927,0.76933 -0.484208,1.67155 -0.484208,2.70682 0,1.03524 0.161281,1.93748 0.484208,2.70681 0.332422,0.76932 0.788505,1.36784 1.367875,1.79524 0.588864,0.4274 1.267761,0.6413 2.037085,0.6413 0.778821,0 1.458232,-0.2139 2.037602,-0.6413 0.579366,-0.4274 1.030481,-1.02592 1.353405,-1.79524 0.322927,-0.76933 0.484208,-1.67157 0.484208,-2.70681 0,-1.03527 -0.161281,-1.93749 -0.484208,-2.70682 -0.322924,-0.76932 -0.774039,-1.36784 -1.353405,-1.79524 -0.57937,-0.4274 -1.258781,-0.64078 -2.037602,-0.64078 z m 0,1.50998 c 0.341923,0 0.646148,0.0903 0.912089,0.27079 0.275438,0.17096 0.508194,0.41811 0.698148,0.74104 0.199456,0.32292 0.351311,0.70753 0.455787,1.15393 0.104476,0.4464 0.156579,0.93522 0.156579,1.4671 0,0.53185 -0.0521,1.02121 -0.156579,1.46761 -0.104476,0.44639 -0.256331,0.831 -0.455787,1.15393 -0.189954,0.32293 -0.42271,0.57453 -0.698148,0.75499 -0.265941,0.17096 -0.570166,0.25632 -0.912089,0.25632 -0.341923,0 -0.650604,-0.0854 -0.926042,-0.25632 -0.275438,-0.18046 -0.512646,-0.43206 -0.712101,-0.75499 -0.189957,-0.32293 -0.337357,-0.70754 -0.441834,-1.15393 -0.104472,-0.4464 -0.156579,-0.93576 -0.156579,-1.46761 0,-0.53188 0.05211,-1.0207 0.156579,-1.4671 0.104477,-0.4464 0.251877,-0.83101 0.441834,-1.15393 0.199455,-0.32293 0.436663,-0.57008 0.712101,-0.74104 0.275438,-0.18046 0.584119,-0.27079 0.926042,-0.27079 z"
     id="path362" /><path
     style="font-weight:300;font-size:17.0224px;font-family:'Noto Sans JP';-inkscape-font-specification:'Noto Sans JP Light';stroke-width:0.0886589"
     d="m 67.336256,40.643709 c -0.769327,0 -1.448738,0.21338 -2.037602,0.64078 -0.57937,0.4274 -1.034934,1.02592 -1.367359,1.79524 -0.322924,0.76933 -0.484725,1.67155 -0.484725,2.70682 0,1.03524 0.161801,1.93748 0.484725,2.70681 0.332425,0.76932 0.787989,1.36784 1.367359,1.79524 0.588864,0.4274 1.268275,0.6413 2.037602,0.6413 0.778821,0 1.457715,-0.2139 2.037085,-0.6413 0.579365,-0.4274 1.030481,-1.02592 1.353405,-1.79524 0.322927,-0.76933 0.484208,-1.67157 0.484208,-2.70681 0,-1.03527 -0.161281,-1.93749 -0.484208,-2.70682 -0.322924,-0.76932 -0.77404,-1.36784 -1.353405,-1.79524 -0.57937,-0.4274 -1.258264,-0.64078 -2.037085,-0.64078 z m 0,1.50998 c 0.34192,0 0.645632,0.0903 0.911572,0.27079 0.275438,0.17096 0.508194,0.41811 0.698148,0.74104 0.199455,0.32292 0.35131,0.70753 0.455787,1.15393 0.104473,0.4464 0.156579,0.93522 0.156579,1.4671 0,0.53185 -0.05211,1.02121 -0.156579,1.46761 -0.104477,0.44639 -0.256332,0.831 -0.455787,1.15393 -0.189954,0.32293 -0.42271,0.57453 -0.698148,0.75499 -0.26594,0.17096 -0.569652,0.25632 -0.911572,0.25632 -0.341923,0 -0.650604,-0.0854 -0.926042,-0.25632 -0.275438,-0.18046 -0.513163,-0.43206 -0.712618,-0.75499 -0.189957,-0.32293 -0.337357,-0.70754 -0.441834,-1.15393 -0.104476,-0.4464 -0.156579,-0.93576 -0.156579,-1.46761 0,-0.53188 0.0521,-1.0207 0.156579,-1.4671 0.104477,-0.4464 0.251877,-0.83101 0.441834,-1.15393 0.199455,-0.32293 0.43718,-0.57008 0.712618,-0.74104 0.275438,-0.18046 0.584119,-0.27079 0.926042,-0.27079 z"
     id="path360" /><path
     style="font-weight:300;font-size:17.0224px;font-family:'Noto Sans JP';-inkscape-font-specification:'Noto Sans JP Light';stroke-width:0.0886589"
     d="m 54.571143,40.643709 c -0.607859,0 -1.144846,0.12357 -1.610237,0.37052 -0.465396,0.23744 -0.831151,0.56498 -1.097091,0.98288 -0.256442,0.4179 -0.384473,0.90226 -0.384473,1.45314 h 1.581299 c 0,-0.39891 0.1474,-0.72644 0.441834,-0.98288 0.29443,-0.26594 0.655217,-0.39894 1.082621,-0.39894 0.303931,0 0.555537,0.0571 0.754993,0.17104 0.199452,0.11398 0.346854,0.27526 0.441833,0.48421 0.104477,0.19946 0.15658,0.43221 0.15658,0.69815 0,0.20895 -0.04713,0.40846 -0.142111,0.59841 -0.08548,0.18996 -0.214027,0.3607 -0.384989,0.51263 -0.161463,0.14247 -0.360967,0.25662 -0.598413,0.3421 -0.237446,0.076 -0.507905,0.11369 -0.811837,0.11369 v 0.29921 0.95498 c 0.341923,0 0.645636,0.0377 0.911572,0.11369 0.275439,0.076 0.508192,0.18516 0.698149,0.32762 0.199455,0.14248 0.35131,0.31816 0.455786,0.5271 0.104477,0.20896 0.157097,0.44668 0.157097,0.71262 0,0.33243 -0.07147,0.61728 -0.213941,0.85473 -0.13297,0.22795 -0.327501,0.40363 -0.583944,0.5271 -0.256439,0.12347 -0.5557,0.185 -0.897619,0.185 -0.332425,0 -0.636651,-0.0615 -0.912089,-0.185 -0.26594,-0.13297 -0.479324,-0.31808 -0.640788,-0.55552 -0.151965,-0.23745 -0.227893,-0.51287 -0.227893,-0.82631 h -1.695504 c 0,0.40842 0.0809,0.79748 0.242363,1.16789 0.161464,0.36092 0.389246,0.684 0.683679,0.96893 0.303932,0.27544 0.664719,0.49379 1.082621,0.65526 0.427404,0.15197 0.907309,0.22789 1.439189,0.22789 0.683843,0 1.281841,-0.1186 1.794722,-0.35605 0.512884,-0.23744 0.911894,-0.56995 1.196826,-0.99735 0.284936,-0.42741 0.427365,-0.92565 0.427365,-1.49552 0,-0.49389 -0.09975,-0.91672 -0.299207,-1.26814 -0.199454,-0.36092 -0.47934,-0.6552 -0.840259,-0.88315 -0.251755,-0.1633 -0.535471,-0.29487 -0.850594,-0.39481 0.521589,-0.20762 0.933415,-0.49855 1.235067,-0.87333 0.313429,-0.3894 0.470255,-0.83607 0.470255,-1.33945 0,-0.49389 -0.123575,-0.94003 -0.37052,-1.33894 -0.237443,-0.40841 -0.583836,-0.73594 -1.039729,-0.98288 -0.455897,-0.24695 -1.006758,-0.37052 -1.652613,-0.37052 z"
     id="path358" /><path
     style="font-weight:300;font-size:17.0224px;font-family:'Noto Sans JP';-inkscape-font-specification:'Noto Sans JP Light';stroke-width:0.0886589"
     d="m 48.55859,40.643709 -3.974951,0.89762 v 1.59525 l 2.322339,-0.64079 v 8.27753 h 1.652612 z"
     id="path356" /><path
     style="font-weight:300;font-size:17.0224px;font-family:'Noto Sans JP';-inkscape-font-specification:'Noto Sans JP Light';stroke-width:0.0886589"
     d="m 170.82916,33.991111 1.0945,1.896011 1.09451,1.89549 1.09451,-1.89549 1.09399,-1.896011 h -2.1885 z"
     id="path354" /><path
     style="font-weight:300;font-size:17.0224px;font-family:'Noto Sans JP';-inkscape-font-specification:'Noto Sans JP Light';stroke-width:0.0886589"
     d="m 59.655587,35.641939 1.09399,1.89601 1.094507,1.89549 1.094507,-1.89549 1.094507,-1.89601 h -2.189014 z"
     id="path352" /><path
     style="font-weight:300;font-size:17.0224px;font-family:'Noto Sans JP';-inkscape-font-specification:'Noto Sans JP Light';stroke-width:0.0886589"
     d="m 172.36291,28.615731 c -0.28493,0 -0.52712,0.0998 -0.72657,0.29921 -0.18996,0.18996 -0.28474,0.42271 -0.28474,0.69815 0,0.26594 0.0948,0.49818 0.28474,0.69763 0.19945,0.19945 0.44164,0.29921 0.72657,0.29921 0.28494,0 0.52267,-0.0998 0.71262,-0.29921 0.18996,-0.19945 0.28474,-0.43169 0.28474,-0.69763 0,-0.27544 -0.0948,-0.50819 -0.28474,-0.69815 -0.18995,-0.19945 -0.42768,-0.29921 -0.71262,-0.29921 z"
     id="path350" /><path
     style="font-weight:300;font-size:17.0224px;font-family:'Noto Sans JP';-inkscape-font-specification:'Noto Sans JP Light';stroke-width:0.0886589"
     d="m 61.381064,29.253189 c -0.284936,0 -0.527116,0.0998 -0.726571,0.2992 -0.189957,0.18996 -0.285254,0.42271 -0.285254,0.69815 0,0.26594 0.0953,0.4987 0.285254,0.69815 0.199455,0.19945 0.441635,0.29869 0.726571,0.29869 0.284932,0 0.522144,-0.0992 0.712101,-0.29869 0.189957,-0.19945 0.284737,-0.43221 0.284737,-0.69815 0,-0.27544 -0.09478,-0.50819 -0.284737,-0.69815 -0.189957,-0.19945 -0.427169,-0.2992 -0.712101,-0.2992 z"
     id="path348" /><path
     style="font-weight:300;font-size:17.0224px;font-family:'Noto Sans JP';-inkscape-font-specification:'Noto Sans JP Light';stroke-width:0.0886589"
     d="m 172.36291,23.230011 c -0.28493,0 -0.52712,0.0998 -0.72657,0.29921 -0.18996,0.18996 -0.28474,0.42271 -0.28474,0.69815 0,0.26594 0.0948,0.4987 0.28474,0.69815 0.19945,0.19945 0.44164,0.2992 0.72657,0.2992 0.28494,0 0.52267,-0.0998 0.71262,-0.2992 0.18996,-0.19945 0.28474,-0.43221 0.28474,-0.69815 0,-0.27544 -0.0948,-0.50819 -0.28474,-0.69815 -0.18995,-0.19945 -0.42768,-0.29921 -0.71262,-0.29921 z"
     id="path346" /><path
     style="font-weight:300;font-size:17.0224px;font-family:'Noto Sans JP';-inkscape-font-specification:'Noto Sans JP Light';stroke-width:0.0886589"
     d="m 61.381064,23.867989 c -0.284936,0 -0.527116,0.0998 -0.726571,0.2992 -0.189957,0.18996 -0.285254,0.42223 -0.285254,0.69763 0,0.26594 0.0953,0.4987 0.285254,0.69815 0.199455,0.19946 0.441635,0.29921 0.726571,0.29921 0.284932,0 0.522144,-0.0998 0.712101,-0.29921 0.189957,-0.19945 0.284737,-0.43221 0.284737,-0.69815 0,-0.2754 -0.09478,-0.50767 -0.284737,-0.69763 -0.189957,-0.19945 -0.427169,-0.2992 -0.712101,-0.2992 z"
     id="path344" /><path
     style="font-weight:300;font-size:17.0224px;font-family:'Noto Sans JP';-inkscape-font-specification:'Noto Sans JP Light';stroke-width:0.0886589"
     d="m 187.92062,20.210041 c -0.76933,0 -1.44822,0.21339 -2.03709,0.64079 -0.57937,0.4274 -1.03545,1.02591 -1.36787,1.79524 -0.32293,0.76933 -0.48421,1.67155 -0.48421,2.70681 0,1.03527 0.16128,1.93749 0.48421,2.70681 0.33242,0.76933 0.7885,1.36784 1.36787,1.79524 0.58887,0.42741 1.26776,0.64131 2.03709,0.64131 0.77883,0 1.45772,-0.2139 2.03708,-0.64131 0.57938,-0.4274 1.03048,-1.02591 1.35341,-1.79524 0.32293,-0.76932 0.48472,-1.67154 0.48472,-2.70681 0,-1.03526 -0.16179,-1.93748 -0.48472,-2.70681 -0.32293,-0.76933 -0.77403,-1.36784 -1.35341,-1.79524 -0.57936,-0.4274 -1.25825,-0.64079 -2.03708,-0.64079 z m 0,1.50999 c 0.34193,0 0.64563,0.0903 0.91157,0.27078 0.27543,0.17096 0.50819,0.41812 0.69815,0.74104 0.19945,0.32293 0.35182,0.70754 0.4563,1.15394 0.10448,0.4464 0.15658,0.93521 0.15658,1.46709 0,0.53189 -0.0521,1.02121 -0.15658,1.46761 -0.10448,0.4464 -0.25685,0.831 -0.4563,1.15394 -0.18996,0.32292 -0.42272,0.57453 -0.69815,0.75499 -0.26594,0.17096 -0.56964,0.25632 -0.91157,0.25632 -0.34192,0 -0.6506,-0.0854 -0.92604,-0.25632 -0.27544,-0.18046 -0.51265,-0.43207 -0.7121,-0.75499 -0.18996,-0.32294 -0.33736,-0.70754 -0.44184,-1.15394 -0.10448,-0.4464 -0.15658,-0.93572 -0.15658,-1.46761 0,-0.53188 0.0521,-1.02069 0.15658,-1.46709 0.10448,-0.4464 0.25188,-0.83101 0.44184,-1.15394 0.19945,-0.32292 0.43666,-0.57008 0.7121,-0.74104 0.27544,-0.18046 0.58412,-0.27078 0.92604,-0.27078 z"
     id="path342" /><path
     style="font-weight:300;font-size:17.0224px;font-family:'Noto Sans JP';-inkscape-font-specification:'Noto Sans JP Light';stroke-width:0.0886589"
     d="m 179.01625,20.210041 c -0.76932,0 -1.44822,0.21339 -2.03708,0.64079 -0.57937,0.4274 -1.03546,1.02591 -1.36788,1.79524 -0.32292,0.76933 -0.48421,1.67155 -0.48421,2.70681 0,1.03527 0.16129,1.93749 0.48421,2.70681 0.33242,0.76933 0.78851,1.36784 1.36788,1.79524 0.58886,0.42741 1.26776,0.64131 2.03708,0.64131 0.77883,0 1.45827,-0.2139 2.0376,-0.64131 0.57938,-0.4274 1.03048,-1.02591 1.35341,-1.79524 0.32293,-0.76932 0.48421,-1.67154 0.48421,-2.70681 0,-1.03526 -0.16128,-1.93748 -0.48421,-2.70681 -0.32293,-0.76933 -0.77403,-1.36784 -1.35341,-1.79524 -0.57933,-0.4274 -1.25877,-0.64079 -2.0376,-0.64079 z m 0,1.50999 c 0.34193,0 0.64615,0.0903 0.91209,0.27078 0.27544,0.17096 0.50819,0.41812 0.69815,0.74104 0.19945,0.32293 0.35131,0.70754 0.45579,1.15394 0.10447,0.4464 0.15658,0.93521 0.15658,1.46709 0,0.53189 -0.0521,1.02121 -0.15658,1.46761 -0.10448,0.4464 -0.25634,0.831 -0.45579,1.15394 -0.18996,0.32292 -0.42271,0.57453 -0.69815,0.75499 -0.26594,0.17096 -0.57016,0.25632 -0.91209,0.25632 -0.34192,0 -0.6506,-0.0854 -0.92604,-0.25632 -0.27544,-0.18046 -0.51265,-0.43207 -0.7121,-0.75499 -0.18996,-0.32294 -0.33736,-0.70754 -0.44183,-1.15394 -0.10448,-0.4464 -0.15658,-0.93572 -0.15658,-1.46761 0,-0.53188 0.0521,-1.02069 0.15658,-1.46709 0.10447,-0.4464 0.25187,-0.83101 0.44183,-1.15394 0.19945,-0.32292 0.43666,-0.57008 0.7121,-0.74104 0.27544,-0.18046 0.58412,-0.27078 0.92604,-0.27078 z"
     id="path340" /><path
     style="font-weight:300;font-size:17.0224px;font-family:'Noto Sans JP';-inkscape-font-specification:'Noto Sans JP Light';stroke-width:0.0886589"
     d="m 166.25114,20.210041 c -0.60786,0 -1.14433,0.12358 -1.60972,0.37052 -0.4654,0.23745 -0.83115,0.56498 -1.09709,0.98289 -0.25644,0.4179 -0.38447,0.90226 -0.38447,1.45314 h 1.5813 c 0,-0.39891 0.14688,-0.72648 0.44131,-0.98288 0.29444,-0.26594 0.65573,-0.39895 1.08314,-0.39895 0.30393,0 0.55554,0.0571 0.75499,0.17105 0.19946,0.11398 0.34686,0.27526 0.44184,0.48421 0.10448,0.19946 0.15658,0.43221 0.15658,0.69815 0,0.20895 -0.0476,0.40846 -0.14263,0.59841 -0.0855,0.18996 -0.21351,0.36067 -0.38447,0.51263 -0.16146,0.14247 -0.36097,0.25662 -0.59842,0.3421 -0.23744,0.076 -0.50842,0.11369 -0.81235,0.11369 v 0.2992 0.95499 c 0.34193,0 0.64615,0.0377 0.91209,0.11368 0.27543,0.076 0.50819,0.18517 0.69815,0.32763 0.19945,0.14248 0.3513,0.31816 0.45578,0.5271 0.10448,0.20895 0.15658,0.44668 0.15658,0.71262 0,0.33243 -0.071,0.61728 -0.21342,0.85473 -0.13297,0.22795 -0.32801,0.40363 -0.58446,0.5271 -0.25644,0.12347 -0.55569,0.185 -0.89762,0.185 -0.33242,0 -0.63613,-0.0615 -0.91157,-0.185 -0.26594,-0.13297 -0.47984,-0.31808 -0.64131,-0.55552 -0.15196,-0.23745 -0.22789,-0.51288 -0.22789,-0.82631 h -1.69499 c 0,0.40841 0.0804,0.79747 0.24185,1.16789 0.16146,0.36092 0.38976,0.684 0.68419,0.96893 0.30393,0.27544 0.66472,0.49379 1.08263,0.65526 0.42737,0.15196 0.90679,0.22789 1.43867,0.22789 0.68384,0 1.28235,-0.1186 1.79524,-0.35605 0.51288,-0.23745 0.91188,-0.56995 1.19682,-0.99736 0.28494,-0.4274 0.42737,-0.92565 0.42737,-1.49551 0,-0.49389 -0.0998,-0.91672 -0.29921,-1.26814 -0.19945,-0.36092 -0.47986,-0.6552 -0.84078,-0.88315 -0.25168,-0.16326 -0.53505,-0.29489 -0.85007,-0.39481 0.52146,-0.20762 0.93347,-0.49861 1.23506,-0.87333 0.31344,-0.38941 0.47026,-0.83606 0.47026,-1.33945 0,-0.49389 -0.12357,-0.94003 -0.37052,-1.33894 -0.23745,-0.40841 -0.58435,-0.73595 -1.04025,-0.98289 -0.45589,-0.24694 -1.00675,-0.37052 -1.65261,-0.37052 z"
     id="path338" /><path
     style="font-weight:300;font-size:17.0224px;font-family:'Noto Sans JP';-inkscape-font-specification:'Noto Sans JP Light';stroke-width:0.0886589"
     d="m 160.2391,20.210041 -3.97495,0.89762 v 1.59525 l 2.32234,-0.64078 v 8.27753 h 1.65261 z"
     id="path336" /><path
     style="font-weight:300;font-size:17.0224px;font-family:'Noto Sans JP';-inkscape-font-specification:'Noto Sans JP Light';stroke-width:0.0886589"
     d="m 76.938253,20.847499 c -0.769323,0 -1.448217,0.2139 -2.037085,0.6413 -0.579365,0.42741 -1.03545,1.0254 -1.367875,1.79473 -0.322924,0.76932 -0.484208,1.67154 -0.484208,2.70681 0,1.03526 0.161284,1.93799 0.484208,2.70733 0.332425,0.76929 0.78851,1.36732 1.367875,1.79472 0.588868,0.4274 1.267762,0.6413 2.037085,0.6413 0.778825,0 1.458236,-0.2139 2.037602,-0.6413 0.57937,-0.4274 1.030479,-1.02543 1.353406,-1.79472 0.322928,-0.76934 0.484208,-1.67207 0.484208,-2.70733 0,-1.03527 -0.16128,-1.93749 -0.484208,-2.70681 -0.322927,-0.76933 -0.774036,-1.36732 -1.353406,-1.79473 -0.579366,-0.4274 -1.258777,-0.6413 -2.037602,-0.6413 z m 0,1.50998 c 0.341923,0 0.646153,0.0903 0.912089,0.27079 0.275438,0.17096 0.508192,0.41811 0.698149,0.74104 0.199455,0.32293 0.35131,0.70753 0.455786,1.15393 0.104477,0.4464 0.15658,0.93522 0.15658,1.4671 0,0.53188 -0.0521,1.02121 -0.15658,1.46761 -0.104476,0.4464 -0.256331,0.83101 -0.455786,1.15393 -0.189957,0.32294 -0.422711,0.57454 -0.698149,0.755 -0.265936,0.17096 -0.570166,0.25683 -0.912089,0.25683 -0.34192,0 -0.650603,-0.0859 -0.926041,-0.25683 -0.275438,-0.18046 -0.512649,-0.43206 -0.712101,-0.755 -0.189958,-0.32292 -0.337357,-0.70753 -0.441834,-1.15393 -0.104477,-0.4464 -0.15658,-0.93573 -0.15658,-1.46761 0,-0.53188 0.0521,-1.0207 0.15658,-1.4671 0.104477,-0.4464 0.251876,-0.831 0.441834,-1.15393 0.199452,-0.32293 0.436663,-0.57008 0.712101,-0.74104 0.275438,-0.18046 0.584121,-0.27079 0.926041,-0.27079 z"
     id="path334" /><path
     style="font-weight:300;font-size:17.0224px;font-family:'Noto Sans JP';-inkscape-font-specification:'Noto Sans JP Light';stroke-width:0.0886589"
     d="m 68.033887,20.847499 c -0.769323,0 -1.448217,0.2139 -2.037085,0.6413 -0.579366,0.42741 -1.03545,1.0254 -1.367875,1.79473 -0.322924,0.76932 -0.484208,1.67154 -0.484208,2.70681 0,1.03526 0.161284,1.93799 0.484208,2.70733 0.332425,0.76929 0.788509,1.36732 1.367875,1.79472 0.588868,0.4274 1.267762,0.6413 2.037085,0.6413 0.778824,0 1.458236,-0.2139 2.037602,-0.6413 0.57937,-0.4274 1.030479,-1.02543 1.353406,-1.79472 0.322927,-0.76934 0.484208,-1.67207 0.484208,-2.70733 0,-1.03527 -0.161281,-1.93749 -0.484208,-2.70681 -0.322927,-0.76933 -0.774036,-1.36732 -1.353406,-1.79473 -0.579366,-0.4274 -1.258778,-0.6413 -2.037602,-0.6413 z m 0,1.50998 c 0.341923,0 0.646153,0.0903 0.912089,0.27079 0.275438,0.17096 0.508192,0.41811 0.698149,0.74104 0.199455,0.32293 0.35131,0.70753 0.455786,1.15393 0.104477,0.4464 0.15658,0.93522 0.15658,1.4671 0,0.53188 -0.0521,1.02121 -0.15658,1.46761 -0.104476,0.4464 -0.256331,0.83101 -0.455786,1.15393 -0.189957,0.32294 -0.422711,0.57454 -0.698149,0.755 -0.265936,0.17096 -0.570166,0.25683 -0.912089,0.25683 -0.34192,0 -0.650607,-0.0859 -0.926041,-0.25683 -0.275439,-0.18046 -0.512647,-0.43206 -0.712102,-0.755 -0.189954,-0.32292 -0.337356,-0.70753 -0.441833,-1.15393 -0.104477,-0.4464 -0.15658,-0.93573 -0.15658,-1.46761 0,-0.53188 0.0521,-1.0207 0.15658,-1.4671 0.104477,-0.4464 0.251879,-0.831 0.441833,-1.15393 0.199455,-0.32293 0.436663,-0.57008 0.712102,-0.74104 0.275434,-0.18046 0.584121,-0.27079 0.926041,-0.27079 z"
     id="path332" /><path
     style="font-weight:300;font-size:17.0224px;font-family:'Noto Sans JP';-inkscape-font-specification:'Noto Sans JP Light';stroke-width:0.0886589"
     d="m 54.727723,20.847499 c -0.769324,0 -1.448734,0.2139 -2.037602,0.6413 -0.579366,0.42741 -1.034936,1.0254 -1.367358,1.79473 -0.322928,0.76932 -0.484725,1.67154 -0.484725,2.70681 0,1.03526 0.161797,1.93799 0.484725,2.70733 0.332422,0.76929 0.787992,1.36732 1.367358,1.79472 0.588868,0.4274 1.268278,0.6413 2.037602,0.6413 0.778821,0 1.457716,-0.2139 2.037085,-0.6413 0.579366,-0.4274 1.030479,-1.02543 1.353406,-1.79472 0.322924,-0.76934 0.484725,-1.67207 0.484725,-2.70733 0,-1.03527 -0.161801,-1.93749 -0.484725,-2.70681 -0.322927,-0.76933 -0.77404,-1.36732 -1.353406,-1.79473 -0.579369,-0.4274 -1.258264,-0.6413 -2.037085,-0.6413 z m 0,1.50998 c 0.341923,0 0.645632,0.0903 0.911572,0.27079 0.275438,0.17096 0.508192,0.41811 0.698149,0.74104 0.199455,0.32293 0.351309,0.70753 0.455786,1.15393 0.104476,0.4464 0.157096,0.93522 0.157096,1.4671 0,0.53188 -0.05262,1.02121 -0.157096,1.46761 -0.104477,0.4464 -0.256331,0.83101 -0.455786,1.15393 -0.189957,0.32294 -0.422711,0.57454 -0.698149,0.755 -0.26594,0.17096 -0.569649,0.25683 -0.911572,0.25683 -0.341923,0 -0.650604,-0.0859 -0.926042,-0.25683 -0.275438,-0.18046 -0.513163,-0.43206 -0.712618,-0.755 -0.189957,-0.32292 -0.33684,-0.70753 -0.441317,-1.15393 -0.104473,-0.4464 -0.157096,-0.93573 -0.157096,-1.46761 0,-0.53188 0.05262,-1.0207 0.157096,-1.4671 0.104477,-0.4464 0.25136,-0.831 0.441317,-1.15393 0.199455,-0.32293 0.43718,-0.57008 0.712618,-0.74104 0.275438,-0.18046 0.584119,-0.27079 0.926042,-0.27079 z"
     id="path330" /><path
     style="font-weight:300;font-size:17.0224px;font-family:'Noto Sans JP';-inkscape-font-specification:'Noto Sans JP Light';stroke-width:0.0886589"
     d="m 48.55859,20.847499 -3.974951,0.89762 v 1.59577 l 2.322339,-0.64131 v 8.27753 h 1.652612 z"
     id="path328" /><path
     id="path326"
     style="font-weight:300;font-size:17.0224px;font-family:'Noto Sans JP';-inkscape-font-specification:'Noto Sans JP Light';stroke-width:0.0643713"
     d="m 113.56577,40.809 -3.86306,9.20103 h 1.12936 l 1.05506,-2.628659 h 3.35165 l 1.06107,2.628659 h 1.12935 z m -7.1318,0.312915 c -0.46755,0 -0.88377,0.100228 -1.24829,0.300535 -0.36453,0.191945 -0.64979,0.458883 -0.85583,0.801047 -0.20604,0.342175 -0.30917,0.730286 -0.30917,1.164247 0,0.400586 0.0715,0.738752 0.21424,1.014167 0.15057,0.275393 0.3405,0.508922 0.5703,0.700877 0.22982,0.183606 0.47169,0.338177 0.72527,0.46336 0.25358,0.116835 0.4832,0.212673 0.68924,0.287783 0.31698,0.116845 0.61412,0.250495 0.89148,0.400715 0.28528,0.141871 0.51528,0.329508 0.68962,0.563176 0.17434,0.233679 0.26151,0.546883 0.26151,0.93912 0,0.400588 -0.13467,0.729935 -0.4041,0.98865 -0.26943,0.258716 -0.62629,0.388336 -1.07006,0.388336 -0.33284,0 -0.62998,-0.07528 -0.89148,-0.225491 -0.2615,-0.150219 -0.49929,-0.358777 -0.71326,-0.625831 -0.20603,-0.267065 -0.40412,-0.575865 -0.59431,-0.926378 l -0.80818,0.575939 c 0.18227,0.383888 0.41597,0.746665 0.70124,1.088829 0.29321,0.333826 0.63004,0.605178 1.01043,0.813819 0.38828,0.200294 0.80822,0.300537 1.25991,0.300537 0.33284,0 0.65001,-0.05832 0.95113,-0.175225 0.30906,-0.116834 0.58245,-0.283902 0.82019,-0.500882 0.24566,-0.217003 0.43596,-0.479899 0.57068,-0.788688 0.14264,-0.308789 0.21387,-0.655026 0.21387,-1.038926 0,-0.400575 -0.0675,-0.742805 -0.20224,-1.026546 -0.13471,-0.292091 -0.30906,-0.53848 -0.52303,-0.738774 -0.20604,-0.208642 -0.43196,-0.379367 -0.67761,-0.51289 -0.24566,-0.133531 -0.47935,-0.24223 -0.70125,-0.325679 -0.48339,-0.175257 -0.86771,-0.350395 -1.15299,-0.525652 -0.27735,-0.183595 -0.47544,-0.375647 -0.59431,-0.575939 -0.11887,-0.208632 -0.17822,-0.434081 -0.17822,-0.676097 0,-0.283754 0.10311,-0.538204 0.30916,-0.763545 0.20603,-0.233669 0.5347,-0.350428 0.9864,-0.350428 0.3249,0 0.5983,0.06675 0.82019,0.200347 0.22981,0.133532 0.42382,0.304652 0.58231,0.513284 0.15849,0.208642 0.28944,0.42123 0.39245,0.638211 l 0.86784,-0.525653 c -0.1347,-0.30879 -0.32093,-0.601061 -0.55866,-0.876464 -0.23774,-0.283753 -0.52709,-0.513242 -0.86784,-0.688498 -0.33283,-0.183606 -0.72493,-0.275393 -1.17663,-0.275393 z m 10.34126,0.125323 v 1.001401 h 2.13976 v 7.761391 h 1.01041 v -7.761391 h 2.13939 v -1.001401 z m -3.20946,1.978046 1.27455,3.154311 h -2.54573 z" /><path
     id="path324"
     style="font-weight:300;font-size:17.0224px;font-family:'Noto Sans JP';-inkscape-font-specification:'Noto Sans JP Light';stroke-width:0.0674211"
     d="M 1.21717,41.056828 V 50.23478 H 2.27545 V 45.776861 H 5.574482 V 44.728008 H 2.27545 V 42.105681 H 5.699056 V 41.056828 H 2.27545 Z m 6.224734,0 v 9.177952 h 1.058284 v -3.671182 h 1.061427 l 2.424661,3.671182 h 1.307431 l -2.596785,-3.774141 c 0.217715,-0.05384 0.423372,-0.128607 0.616972,-0.224782 0.448195,-0.22727 0.800989,-0.546462 1.058284,-0.957289 0.265597,-0.419565 0.398477,-0.90873 0.398477,-1.468158 0,-0.568158 -0.13288,-1.057716 -0.398477,-1.468551 -0.257295,-0.41082 -0.610089,-0.725805 -1.058284,-0.944321 -0.439895,-0.227269 -0.941882,-0.34071 -1.506276,-0.34071 h -1.30743 z m 6.972177,0 v 9.177952 h 1.058284 v -9.177952 z m -5.913893,0.983225 h 1.30743 c 0.373497,0 0.701423,0.06996 0.983619,0.209849 0.290497,0.139856 0.514292,0.340991 0.671989,0.603219 0.165999,0.262227 0.249146,0.581434 0.249146,0.957289 0,0.375869 -0.08315,0.694669 -0.249146,0.956896 -0.157697,0.262227 -0.381492,0.463371 -0.671989,0.603218 -0.282196,0.139863 -0.610122,0.209849 -0.983619,0.209849 h -1.30743 z" /><path
     style="font-weight:300;font-size:17.0224px;font-family:'Noto Sans JP';-inkscape-font-specification:'Noto Sans JP Light';stroke-width:0.0886589"
     d="m 25.735177,27.293627 c -1.537648,0 -2.925944,0.32049 -4.164604,0.96118 -1.23866,0.64068 -2.23168,1.55892 -2.979146,2.75487 -0.726113,1.17459 -1.08934,2.59494 -1.08934,4.26072 0,1.06781 0.181614,2.05014 0.54467,2.94711 0.363056,0.89696 0.865166,1.67631 1.505851,2.33836 0.640688,0.64068 1.355943,1.13211 2.146122,1.47381 0.811538,0.3417 1.665674,0.51263 2.562635,0.51263 0.747466,0 1.399142,-0.0855 1.954402,-0.25632 0.107023,-0.0317 0.21218,-0.0703 0.31626,-0.11523 l -6.403227,7.93129 h 4.805392 l 7.14375,-9.54618 c 0.533904,-0.72612 0.982084,-1.52683 1.345137,-2.40244 0.363057,-0.87561 0.54467,-1.83657 0.54467,-2.88303 0,-1.66578 -0.373395,-3.08613 -1.120862,-4.26072 -0.72611,-1.19595 -1.708963,-2.11419 -2.947624,-2.75487 -1.238658,-0.64069 -2.626441,-0.96118 -4.164086,-0.96118 z m 0,3.33158 c 0.854247,0 1.622919,0.20298 2.306319,0.60875 0.683398,0.38439 1.217042,0.92873 1.601452,1.63349 0.405769,0.6834 0.608749,1.48463 0.608749,2.40295 0,0.91832 -0.20298,1.72972 -0.608749,2.43448 -0.38441,0.70475 -0.918054,1.26027 -1.601452,1.66605 -0.6834,0.40576 -1.452072,0.60823 -2.306319,0.60823 -0.85425,0 -1.623438,-0.20247 -2.306836,-0.60823 -0.6834,-0.40578 -1.227725,-0.9613 -1.633492,-1.66605 -0.384413,-0.70476 -0.576709,-1.51616 -0.576709,-2.43448 0,-0.91832 0.192296,-1.71955 0.576709,-2.40295 0.405767,-0.70476 0.950092,-1.2491 1.633492,-1.63349 0.683398,-0.40577 1.452586,-0.60875 2.306836,-0.60875 z"
     id="path312" /><path
     style="font-weight:300;font-size:17.0224px;font-family:'Noto Sans JP';-inkscape-font-specification:'Noto Sans JP Light';stroke-width:0.0945368"
     d="m 144.47937,26.552748 c -1.84453,0 -3.47241,0.512058 -4.88428,1.536813 -1.38909,1.024744 -2.48212,2.459512 -3.27914,4.304047 -0.77426,1.844546 -1.16157,4.007838 -1.16157,6.489967 0,2.48216 0.38731,4.645976 1.16157,6.490522 0.79702,1.844535 1.89005,3.278759 3.27914,4.303503 1.41187,1.024744 3.03975,1.537357 4.88428,1.537357 1.86731,0 3.49573,-0.512613 4.88484,-1.537357 1.38907,-1.024744 2.47073,-2.458968 3.24498,-4.303503 0.77425,-1.844546 1.16156,-4.008362 1.16156,-6.490522 0,-2.482129 -0.38731,-4.645421 -1.16156,-6.489967 -0.77425,-1.844535 -1.85591,-3.279303 -3.24498,-4.304047 -1.38911,-1.024755 -3.01753,-1.536813 -4.88484,-1.536813 z m 0,3.620786 c 0.8198,0 1.54885,0.216436 2.18647,0.649108 0.66039,0.409896 1.21802,1.001701 1.67345,1.775951 0.47822,0.77425 0.84274,1.696405 1.09324,2.766691 0.25049,1.070283 0.3758,2.243051 0.3758,3.518291 0,1.275249 -0.12531,2.448006 -0.3758,3.518292 -0.2505,1.070297 -0.61502,1.992996 -1.09324,2.767246 -0.45543,0.77426 -1.01306,1.377485 -1.67345,1.810115 -0.63762,0.409905 -1.36667,0.614944 -2.18647,0.614944 -0.8198,0 -1.55969,-0.205039 -2.22007,-0.614944 -0.6604,-0.43263 -1.22997,-1.035855 -1.70818,-1.810115 -0.45545,-0.77425 -0.80803,-1.696949 -1.05852,-2.767246 -0.2505,-1.070286 -0.3758,-2.243043 -0.3758,-3.518292 0,-1.27524 0.1253,-2.448008 0.3758,-3.518291 0.25049,-1.070286 0.60307,-1.992441 1.05852,-2.766691 0.47821,-0.77425 1.04778,-1.366055 1.70818,-1.775951 0.66038,-0.432672 1.40027,-0.649108 2.22007,-0.649108 z"
     id="path310" /><path
     style="font-weight:300;font-size:17.0224px;font-family:'Noto Sans JP';-inkscape-font-specification:'Noto Sans JP Light';stroke-width:0.0945368"
     d="m 129.68877,26.552748 -9.52998,2.151757 v 3.82576 l 5.56811,-1.536813 v 19.845709 h 3.96187 z"
     id="path308" /><path
     id="path306"
     style="font-weight:300;font-size:17.0224px;font-family:'Noto Sans JP';-inkscape-font-specification:'Noto Sans JP Light';stroke-width:0.0886589"
     d="m 58.990198,0 c -0.933571,0 -1.776485,0.194442 -2.528528,0.583427 -0.752043,0.38899 -1.354858,0.946656 -1.808675,1.672766 -0.440855,0.713148 -0.660942,1.575037 -0.660942,2.586406 0,0.648312 0.109786,1.244969 0.330213,1.789555 0.220423,0.544581 0.525166,1.0176 0.914156,1.419551 0.388985,0.38899 0.82353,0.687575 1.303279,0.895036 0.492721,0.207461 1.011392,0.311092 1.555978,0.311092 0.453817,0 0.849366,-0.05181 1.186491,-0.155546 0.06476,-0.01919 0.128731,-0.04259 0.191719,-0.06976 l -3.887101,4.815209 h 2.917135 l 4.337202,-5.796028 c 0.324158,-0.440851 0.596577,-0.92669 0.817005,-1.458309 0.220427,-0.531615 0.330729,-1.115452 0.330729,-1.750797 0,-1.011369 -0.226758,-1.873258 -0.680579,-2.586406 C 62.86743,1.530086 62.270768,0.97242 61.518726,0.58343 60.766679,0.194445 59.923769,3e-6 58.990198,3e-6 Z M 5.562451,0.01912 c -1.024335,0 -1.899569,0.220603 -2.625679,0.661458 C 2.21066,1.108463 1.65966,1.705124 1.28364,2.470133 0.92059,3.222175 0.73897,4.084068 0.73897,5.056538 h 2.275833 c 0,-0.596447 0.09696,-1.12128 0.291455,-1.575097 C 3.513719,3.02762 3.805634,2.683885 4.181657,2.450496 4.557681,2.204135 5.005041,2.081009 5.523694,2.081009 c 0.376019,0 0.706412,0.06464 0.991671,0.194304 0.285255,0.116693 0.525357,0.278814 0.719852,0.486275 0.207461,0.207461 0.356754,0.440889 0.447518,0.700216 0.103731,0.246355 0.155546,0.499283 0.155546,0.75861 0,0.363052 -0.05849,0.706791 -0.175183,1.030944 C 7.546401,5.575517 7.371455,5.899751 7.138066,6.223909 6.904672,6.548063 6.625582,6.885126 6.301424,7.235217 L 0,13.867372 H 10.385929 V 11.727966 H 4.492749 L 8.343677,7.935432 C 8.901225,7.416783 9.35526,6.826796 9.705351,6.165514 c 0.350086,-0.661278 0.525032,-1.348745 0.525032,-2.061889 0,-0.453821 -0.09696,-0.920677 -0.291455,-1.400432 C 9.744434,2.223444 9.452519,1.782746 9.063529,1.380794 8.68751,0.978838 8.207821,0.654604 7.624341,0.408243 7.040856,0.148917 6.353392,0.01912 5.562451,0.01912 Z m 23.903451,0 c -1.024335,0 -1.89957,0.220603 -2.62568,0.661458 -0.72611,0.427885 -1.277106,1.024546 -1.653129,1.789555 -0.363057,0.752042 -0.544669,1.613935 -0.544669,2.586405 h 2.27583 c 0,-0.596447 0.09696,-1.12128 0.291455,-1.575097 0.207457,-0.453821 0.499379,-0.797556 0.875398,-1.030945 0.376023,-0.246361 0.823389,-0.369487 1.342037,-0.369487 0.376024,0 0.706412,0.06464 0.991671,0.194304 0.285259,0.116693 0.525358,0.278814 0.719853,0.486275 0.207461,0.207461 0.356753,0.440889 0.447518,0.700216 0.10373,0.246355 0.155546,0.499283 0.155546,0.75861 0,0.363052 -0.05849,0.706791 -0.175183,1.030944 -0.116697,0.324159 -0.291639,0.648393 -0.525033,0.972551 -0.233394,0.324154 -0.512487,0.661217 -0.836641,1.011308 l -6.301424,6.632155 H 34.28938 V 11.727966 H 28.3962 l 3.850927,-3.792534 c 0.557552,-0.518649 1.011587,-1.108636 1.361674,-1.769918 0.350091,-0.661278 0.525033,-1.348745 0.525033,-2.061889 0,-0.453821 -0.09696,-0.920677 -0.291455,-1.400432 C 33.647884,2.223444 33.35597,1.782746 32.96698,1.380794 32.590957,0.978838 32.111276,0.654604 31.527791,0.408243 30.944311,0.148917 30.256844,0.01912 29.465902,0.01912 Z m 11.747603,0 c -1.024336,0 -1.89957,0.220603 -2.625679,0.661458 -0.726114,0.427885 -1.277107,1.024546 -1.65313,1.789555 -0.363053,0.752042 -0.544669,1.613935 -0.544669,2.586405 h 2.27583 c 0,-0.596447 0.09696,-1.12128 0.291455,-1.575097 0.207461,-0.453821 0.499376,-0.797556 0.875399,-1.030945 0.376019,-0.246361 0.823384,-0.369487 1.342037,-0.369487 0.376019,0 0.706415,0.06464 0.99167,0.194304 0.28526,0.116693 0.525358,0.278814 0.719853,0.486275 0.207461,0.207461 0.356237,0.440889 0.447001,0.700216 0.103731,0.246355 0.156063,0.499283 0.156063,0.75861 0,0.363052 -0.05849,0.706791 -0.175183,1.030944 -0.116697,0.324159 -0.291639,0.648393 -0.525033,0.972551 -0.233389,0.324154 -0.512483,0.661217 -0.836641,1.011308 l -6.301424,6.632155 h 10.385929 v -2.139406 h -5.89318 l 3.850928,-3.792534 c 0.557548,-0.518649 1.011583,-1.108636 1.361674,-1.769918 0.350087,-0.661278 0.525032,-1.348745 0.525032,-2.061889 0,-0.453821 -0.09748,-0.920677 -0.291972,-1.400432 C 45.394975,2.223444 45.103573,1.782746 44.714583,1.380794 44.338564,0.978838 43.858875,0.654604 43.275395,0.408243 42.69191,0.148917 42.004446,0.01912 41.213505,0.01912 Z M 17.445964,0.03876 c -1.050269,0 -1.977318,0.291918 -2.781226,0.875398 -0.790941,0.583485 -1.413248,1.400229 -1.86707,2.450497 -0.44085,1.050268 -0.660941,2.282061 -0.660941,3.695381 0,1.413325 0.220091,2.645114 0.660941,3.695382 0.453822,1.050268 1.076129,1.867006 1.86707,2.450497 0.803908,0.58348 1.730957,0.8754 2.781226,0.8754 1.06323,0 1.990801,-0.29192 2.781742,-0.8754 0.790941,-0.583491 1.406581,-1.400229 1.847432,-2.450497 0.440855,-1.050268 0.661459,-2.282057 0.661459,-3.695382 0,-1.41332 -0.220604,-2.645113 -0.661459,-3.695381 C 21.634287,2.314387 21.018647,1.497643 20.227706,0.914158 19.436765,0.330678 18.509194,0.03876 17.445964,0.03876 Z m 41.544234,1.983858 c 0.518649,0 0.985509,0.123131 1.400431,0.369486 0.414922,0.233394 0.739157,0.564299 0.972551,0.992188 0.246355,0.414918 0.369486,0.900757 0.369486,1.458309 0,0.557547 -0.123131,1.050574 -0.369486,1.478463 -0.233394,0.427884 -0.557629,0.764951 -0.972551,1.011307 -0.414922,0.24636 -0.881782,0.369487 -1.400431,0.369487 -0.518653,0 -0.985509,-0.123127 -1.400432,-0.369487 C 57.174848,7.086015 56.844451,6.748948 56.598096,6.321064 56.364702,5.893175 56.247729,5.400148 56.247729,4.842601 c 0,-0.557552 0.116973,-1.043391 0.350367,-1.458309 0.246355,-0.427889 0.576752,-0.758794 0.99167,-0.992188 0.414923,-0.246355 0.881779,-0.369486 1.400432,-0.369486 z m -41.544234,0.07803 c 0.466783,0 0.881828,0.123127 1.244885,0.369487 0.376019,0.233394 0.693587,0.570453 0.952913,1.011308 0.272293,0.44085 0.480072,0.965684 0.622701,1.575097 0.14263,0.609417 0.213941,1.277386 0.213941,2.003495 0,0.726114 -0.07131,1.394079 -0.213941,2.003496 -0.142629,0.609413 -0.350408,1.134247 -0.622701,1.575097 -0.259326,0.440855 -0.576894,0.784585 -0.952913,1.030945 -0.363057,0.233394 -0.778102,0.34985 -1.244885,0.34985 -0.466788,0 -0.887982,-0.116456 -1.264006,-0.34985 -0.376023,-0.24636 -0.700261,-0.59009 -0.97255,-1.030945 -0.259327,-0.44085 -0.460439,-0.965684 -0.603064,-1.575097 -0.14263,-0.609417 -0.213941,-1.277382 -0.213941,-2.003496 0,-0.726109 0.07131,-1.394078 0.213941,-2.003495 0.142625,-0.609413 0.343737,-1.134247 0.603064,-1.575097 0.272289,-0.440855 0.596527,-0.777914 0.97255,-1.011308 0.376024,-0.24636 0.797218,-0.369487 1.264006,-0.369487 z m 32.578373,9.413379 c -0.38899,0 -0.719895,0.135951 -0.992188,0.408244 -0.259322,0.259326 -0.389123,0.576888 -0.389123,0.952913 0,0.36305 0.129801,0.68114 0.389123,0.95343 0.272293,0.27229 0.603198,0.40824 0.992188,0.40824 0.388985,0 0.712711,-0.13595 0.972033,-0.40824 0.259327,-0.27229 0.389124,-0.59038 0.389124,-0.95343 0,-0.376025 -0.129797,-0.693587 -0.389124,-0.952913 -0.259322,-0.272293 -0.583048,-0.408244 -0.972033,-0.408244 z" /><style
     type="text/css"
     id="style747">
	.st0{fill:#FFFFFF;}
	.st1{fill:#011A68;}
	.st2{fill:#FCFCFC;}
</style><path
     id="rect534"
     style="stroke-width:0.121494"
     d="m 0,54.111618 h 86.434959 v 0.977146 H 0 Z" /><path
     id="path325"
     style="font-weight:normal;font-size:8.15345px;font-family:'Noto Sans JP';-inkscape-font-specification:'Noto Sans JP';stroke-width:0.339727"
     d="M 13.838949 56.979468 L 13.838949 58.063639 L 11.996167 58.063639 L 11.996167 58.59384 L 13.838949 58.59384 L 13.838949 59.727104 L 11.571903 59.727104 L 11.571903 60.273324 L 13.895793 60.273324 L 13.895793 63.55116 C 13.349512 63.331017 12.909119 62.906701 12.640055 62.132125 C 12.705285 61.76522 12.762471 61.382243 12.795085 60.974573 L 12.199772 60.92548 C 12.101932 62.295257 11.816566 63.395955 11.099064 64.080843 C 11.22952 64.170533 11.474464 64.358172 11.564152 64.456014 C 11.963671 64.048341 12.240883 63.534798 12.444718 62.923291 C 13.06438 64.064772 14.034335 64.325273 15.322579 64.325273 L 16.619141 64.325273 C 16.651751 64.170357 16.72479 63.909796 16.814478 63.763033 C 16.537261 63.771233 15.559086 63.771301 15.363403 63.771301 C 15.053574 63.771301 14.751784 63.754592 14.474569 63.705672 L 14.474569 62.026188 L 16.349906 62.026188 L 16.349906 61.488236 L 14.474569 61.488236 L 14.474569 60.273324 L 16.692521 60.273324 L 16.692521 59.727104 L 14.417725 59.727104 L 14.417725 58.59384 L 16.309082 58.59384 L 16.309082 58.063639 L 14.417725 58.063639 L 14.417725 56.979468 L 13.838949 56.979468 z M 4.5356405 56.995487 L 4.5356405 58.560767 L 2.8804443 58.560767 C 3.05982 58.144941 3.206809 57.704893 3.337264 57.256453 L 2.725415 57.126229 C 2.4074312 58.284017 1.8855615 59.40906 1.21698 60.126562 C 1.3800486 60.208092 1.6491666 60.387355 1.7714681 60.485197 C 2.0731452 60.118291 2.3585684 59.669747 2.6194784 59.156079 L 4.5356405 59.156079 L 4.5356405 60.933748 L 2.1140828 60.933748 L 2.1140828 61.520793 L 4.5356405 61.520793 L 4.5356405 63.591467 L 1.2335164 63.591467 L 1.2335164 64.178512 L 8.4573649 64.178512 L 8.4573649 63.591467 L 5.1552409 63.591467 L 5.1552409 61.520793 L 7.7726522 61.520793 L 7.7726522 60.933748 L 5.1552409 60.933748 L 5.1552409 59.156079 L 8.0744425 59.156079 L 8.0744425 58.560767 L 5.1552409 58.560767 L 5.1552409 56.995487 L 4.5356405 56.995487 z M 10.911479 56.995487 C 10.552727 57.566228 9.8272527 58.267528 9.1994385 58.691508 C 9.3054331 58.797502 9.4522507 59.009489 9.533785 59.131791 C 10.218673 58.642586 10.984913 57.884499 11.465967 57.199609 L 10.911479 56.995487 z M 112.41484 57.083337 C 112.36594 57.401321 112.23547 57.858137 112.12132 58.200582 L 111.4118 58.200582 L 111.4118 60.719808 L 110.81649 60.776652 L 110.8816 61.282564 L 111.4118 61.225203 C 111.4118 62.187308 111.34637 63.385961 110.80822 64.242074 C 110.93052 64.299144 111.15095 64.429888 111.23249 64.519576 C 111.81954 63.614545 111.90893 62.212114 111.90893 61.176628 C 112.36553 61.127708 112.86328 61.070404 113.36879 61.01333 L 113.36879 63.907727 C 113.36879 64.005567 113.32759 64.0302 113.22978 64.0302 L 112.51251 64.0302 C 112.58591 64.160655 112.66737 64.389121 112.69183 64.519576 C 113.15658 64.519576 113.44223 64.511149 113.62976 64.429659 C 113.81729 64.339969 113.87419 64.184945 113.87419 63.907727 L 113.87419 60.956486 L 114.25711 60.907393 L 114.24936 60.426286 L 113.87419 60.46711 L 113.87419 58.200582 L 112.67581 58.200582 C 112.79811 57.907058 112.93655 57.548368 113.067 57.214079 L 112.41484 57.083337 z M 19.660299 57.223897 C 19.179245 58.422452 18.380163 59.58809 17.491439 60.321899 C 17.662662 60.411589 17.93976 60.640283 18.070215 60.754431 C 18.934479 59.955395 19.774444 58.716031 20.320723 57.411483 L 19.660299 57.223897 z M 22.538676 57.223897 L 21.951632 57.468327 C 22.571293 58.609808 23.590001 59.971702 24.340116 60.754431 C 24.462418 60.591362 24.68296 60.354915 24.846029 60.240767 C 24.104065 59.555879 23.084955 58.283843 22.538676 57.223897 z M 121.25306 57.311747 C 120.772 58.510302 119.97293 59.675941 119.0842 60.409749 C 119.25542 60.499439 119.53253 60.728133 119.66298 60.842281 C 120.52725 60.043245 121.36721 58.803881 121.91349 57.499333 L 121.25306 57.311747 z M 124.13092 57.311747 L 123.54388 57.556177 C 124.16354 58.697658 125.18276 60.059552 125.93288 60.842281 C 126.05518 60.679212 126.27521 60.442765 126.43828 60.328617 C 125.69632 59.643729 124.67721 58.371694 124.13092 57.311747 z M 25.962756 57.338102 L 25.962756 64.439478 L 26.558069 64.439478 L 26.558069 60.06145 L 28.914514 60.06145 L 28.914514 57.338102 L 25.962756 57.338102 z M 29.631783 57.338102 L 29.631783 60.069202 L 32.061609 60.069202 L 32.061609 63.64056 C 32.061609 63.771015 32.021012 63.819877 31.89056 63.819877 C 31.768258 63.828077 31.327692 63.828009 30.879252 63.811609 C 30.968942 63.974678 31.058799 64.260275 31.075106 64.41519 C 31.686613 64.42339 32.094509 64.407047 32.339111 64.309253 C 32.575561 64.203258 32.656921 64.00758 32.656921 63.648828 L 32.656921 57.338102 L 29.631783 57.338102 z M 114.89325 57.401147 L 114.89325 58.445011 C 114.89325 58.966832 114.80332 59.586254 114.21628 60.042847 C 114.33858 60.108077 114.55913 60.296003 114.64882 60.401998 C 115.3011 59.880177 115.43947 59.089361 115.43947 58.461548 L 115.43947 57.931348 L 116.6952 57.931348 L 116.6952 59.235661 C 116.6952 59.675946 116.736 59.806627 116.84196 59.912622 C 116.95611 60.010462 117.13548 60.042847 117.28225 60.042847 L 117.68997 60.042847 C 117.81227 60.042847 117.9672 60.026654 118.05688 59.977734 C 118.16288 59.928814 118.24412 59.847625 118.29304 59.709017 C 118.34194 59.594868 118.36642 59.243931 118.36642 58.950407 C 118.22781 58.901487 118.03213 58.812087 117.92614 58.714246 C 117.91814 59.024075 117.90988 59.260524 117.89358 59.37467 C 117.87728 59.47251 117.84453 59.529412 117.81193 59.545719 C 117.77933 59.570179 117.70599 59.578276 117.63261 59.578276 L 117.41247 59.578276 C 117.35537 59.578276 117.3066 59.570021 117.27398 59.537451 C 117.24138 59.512991 117.24142 59.42365 117.24142 59.268734 L 117.24142 57.401147 L 114.89325 57.401147 z M 127.55552 57.425952 L 127.55552 64.527327 L 128.15083 64.527327 L 128.15083 60.1493 L 130.50728 60.1493 L 130.50728 57.425952 L 127.55552 57.425952 z M 131.22455 57.425952 L 131.22455 60.157052 L 133.65437 60.157052 L 133.65437 63.72841 C 133.65437 63.858866 133.61323 63.907727 133.48281 63.907727 C 133.36051 63.915927 132.92046 63.915859 132.47202 63.899459 C 132.56172 64.062528 132.65156 64.348125 132.66787 64.50304 C 133.27938 64.51124 133.68676 64.494898 133.93136 64.397103 C 134.16781 64.291108 134.24969 64.09543 134.24969 63.736678 L 134.24969 57.425952 L 131.22455 57.425952 z M 34.834049 57.549976 L 34.834049 64.341809 L 35.445382 64.341809 L 35.445382 63.811609 L 39.489579 63.811609 L 39.489579 64.309253 L 40.125199 64.309253 L 40.125199 57.549976 L 34.834049 57.549976 z M 136.4263 57.637826 L 136.4263 64.429659 L 137.03815 64.429659 L 137.03815 63.899459 L 141.08183 63.899459 L 141.08183 64.397103 L 141.71796 64.397103 L 141.71796 57.637826 L 136.4263 57.637826 z M 26.558069 57.802673 L 28.34349 57.802673 L 28.34349 58.463098 L 26.558069 58.463098 L 26.558069 57.802673 z M 30.211076 57.802673 L 32.061609 57.802673 L 32.061609 58.463098 L 30.211076 58.463098 L 30.211076 57.802673 z M 128.15083 57.890523 L 129.93625 57.890523 L 129.93625 58.550948 L 128.15083 58.550948 L 128.15083 57.890523 z M 131.80332 57.890523 L 133.65437 57.890523 L 133.65437 58.550948 L 131.80332 58.550948 L 131.80332 57.890523 z M 35.445382 58.145288 L 39.489579 58.145288 L 39.489579 60.346704 L 35.445382 60.346704 L 35.445382 58.145288 z M 137.03815 58.233138 L 141.08183 58.233138 L 141.08183 60.434554 L 137.03815 60.434554 L 137.03815 58.233138 z M 11.107332 58.642415 C 10.62628 59.498527 9.8437325 60.346645 9.10177 60.892924 C 9.2077646 61.023379 9.386794 61.308574 9.443868 61.430876 C 9.7536985 61.186272 10.063581 60.884829 10.365259 60.566846 L 10.365259 64.447746 L 10.936283 64.447746 L 10.936283 59.898153 C 11.197194 59.547555 11.449601 59.188751 11.645284 58.830001 L 11.107332 58.642415 z M 111.90893 58.689441 L 113.36827 58.689441 L 113.36827 60.523954 C 112.8546 60.572874 112.35737 60.629947 111.90893 60.670715 L 111.90893 58.689441 z M 26.558069 58.895113 L 28.34349 58.895113 L 28.34349 59.596362 L 26.558069 59.596362 L 26.558069 58.895113 z M 30.211076 58.895113 L 32.061609 58.895113 L 32.061609 59.604631 L 30.211076 59.604631 L 30.211076 58.895113 z M 128.15083 58.982963 L 129.93625 58.982963 L 129.93625 59.684212 L 128.15083 59.684212 L 128.15083 58.982963 z M 131.80332 58.982963 L 133.65437 58.982963 L 133.65437 59.69248 L 131.80332 59.69248 L 131.80332 58.982963 z M 112.57762 59.023787 L 112.20245 59.170549 C 112.39813 59.512992 112.5774 59.969694 112.63447 60.279525 L 113.05046 60.108476 C 112.98526 59.806798 112.79776 59.349925 112.57762 59.023787 z M 20.475753 59.930709 C 20.125155 60.982502 19.481041 62.425699 18.934762 63.420418 C 18.527089 63.428618 18.151809 63.444824 17.817517 63.452974 L 17.899166 64.089111 C 19.350476 64.015731 21.51909 63.917891 23.573755 63.795589 C 23.72867 64.040193 23.867219 64.276351 23.973214 64.472034 L 24.568526 64.138204 C 24.169004 63.412552 23.337482 62.278833 22.59552 61.430876 L 22.032764 61.691842 C 22.415974 62.148433 22.832196 62.702859 23.199101 63.232833 C 21.967932 63.289903 20.71192 63.347095 19.611206 63.387862 C 20.149334 62.425757 20.736715 61.153551 21.177002 60.101758 L 20.475753 59.930709 z M 122.068 60.018559 C 121.7174 61.070352 121.07329 62.513549 120.52701 63.508268 C 120.11934 63.516468 119.74457 63.532674 119.41028 63.540824 L 119.49193 64.176961 C 120.94325 64.103581 123.11185 64.005741 125.16652 63.883439 C 125.32144 64.128042 125.45999 64.364201 125.56598 64.559884 L 126.16129 64.226054 C 125.76177 63.500399 124.93023 62.366683 124.18829 61.518726 L 123.62553 61.779692 C 124.00874 62.236283 124.42445 62.790709 124.79135 63.320683 C 123.56018 63.377753 122.30468 63.434945 121.20397 63.475712 C 121.74209 62.513607 122.32896 61.241401 122.76925 60.189608 L 122.068 60.018559 z M 102.73636 60.39373 L 102.73636 61.054154 L 110.13953 61.054154 L 110.13953 60.39373 L 102.73636 60.39373 z M 27.275338 60.575114 L 27.275338 61.072241 L 28.156421 61.072241 L 28.156421 61.952808 L 27.120825 61.952808 L 27.120825 62.466471 L 28.139884 62.466471 C 28.090964 62.939371 27.862559 63.615926 27.177669 64.03175 C 27.308124 64.11329 27.48744 64.284907 27.577128 64.390902 C 28.359857 63.860928 28.621164 63.012752 28.670085 62.466471 L 29.827637 62.466471 L 29.827637 64.284965 L 30.365588 64.284965 L 30.365588 62.466471 L 31.474565 62.466471 L 31.474565 61.952808 L 30.365588 61.952808 L 30.365588 61.072241 L 31.295247 61.072241 L 31.295247 60.575114 L 27.275338 60.575114 z M 117.55096 60.597335 L 117.44503 60.613871 L 114.45296 60.613871 L 114.45296 61.160091 L 115.21932 61.160091 L 114.7625 61.266028 C 115.01526 61.967223 115.3662 62.578606 115.81464 63.092273 C 115.30097 63.524406 114.69774 63.842671 114.06177 64.0302 C 114.17592 64.152502 114.33078 64.388834 114.38785 64.535596 C 115.05644 64.307299 115.68423 63.964861 116.22236 63.508268 C 116.72787 63.964861 117.33914 64.307586 118.04034 64.519576 C 118.12184 64.372814 118.2932 64.13608 118.41551 64.021932 C 117.73062 63.842556 117.1352 63.533017 116.63784 63.125346 C 117.21674 62.513837 117.67338 61.72291 117.92614 60.736344 L 117.55096 60.597335 z M 128.8681 60.662964 L 128.8681 61.160091 L 129.74867 61.160091 L 129.74867 62.040658 L 128.71307 62.040658 L 128.71307 62.554321 L 129.73265 62.554321 C 129.68375 63.027221 129.45532 63.703776 128.77043 64.1196 C 128.90088 64.20113 129.0802 64.372757 129.16989 64.478752 C 129.95262 63.948778 130.21341 63.100602 130.26233 62.554321 L 131.4204 62.554321 L 131.4204 64.372815 L 131.95835 64.372815 L 131.95835 62.554321 L 133.06733 62.554321 L 133.06733 62.040658 L 131.95835 62.040658 L 131.95835 61.160091 L 132.88801 61.160091 L 132.88801 60.662964 L 128.8681 60.662964 z M 35.445382 60.942017 L 39.489579 60.942017 L 39.489579 63.216813 L 35.445382 63.216813 L 35.445382 60.942017 z M 137.03815 61.029867 L 141.08183 61.029867 L 141.08183 63.304663 L 137.03815 63.304663 L 137.03815 61.029867 z M 28.686104 61.072241 L 29.827637 61.072241 L 29.827637 61.952808 L 28.686104 61.952808 L 28.686104 61.072241 z M 115.25188 61.160091 L 117.18406 61.160091 C 116.96391 61.763446 116.62991 62.293239 116.2141 62.72537 C 115.79828 62.276932 115.47202 61.747139 115.25188 61.160091 z M 130.27887 61.160091 L 131.4204 61.160091 L 131.4204 62.040658 L 130.27887 62.040658 L 130.27887 61.160091 z M 112.39004 61.355945 L 112.39004 63.263839 L 112.78123 63.263839 L 112.78123 61.355945 L 112.39004 61.355945 z " /><path
     id="path697"
     style="stroke-width:0.124486"
     d="m 101.59261,54.199467 h 90.74428 v 0.977146 h -90.74428 z" /></svg>
