<?xml version="1.0" encoding="UTF-8" standalone="no"?>
<!-- Created with Inkscape (http://www.inkscape.org/) -->

<svg
   width="205.58745mm"
   height="48.107136mm"
   viewBox="0 0 205.58745 48.107136"
   version="1.1"
   id="svg5"
   inkscape:version="1.2.1 (9c6d41e410, 2022-07-14)"
   sodipodi:docname="thiscouldbemainlogo.svg"
   xmlns:inkscape="http://www.inkscape.org/namespaces/inkscape"
   xmlns:sodipodi="http://sodipodi.sourceforge.net/DTD/sodipodi-0.dtd"
   xmlns="http://www.w3.org/2000/svg"
   xmlns:svg="http://www.w3.org/2000/svg">
  <sodipodi:namedview
     id="namedview7"
     pagecolor="#ffffff"
     bordercolor="#ffffff"
     borderopacity="1"
     inkscape:showpageshadow="0"
     inkscape:pageopacity="0"
     inkscape:pagecheckerboard="1"
     inkscape:deskcolor="#505050"
     inkscape:document-units="mm"
     showgrid="false"
     inkscape:zoom="0.52221046"
     inkscape:cx="196.28102"
     inkscape:cy="51.703292"
     inkscape:window-width="1920"
     inkscape:window-height="1009"
     inkscape:window-x="-8"
     inkscape:window-y="-8"
     inkscape:window-maximized="1"
     inkscape:current-layer="text113" />
  <defs
     id="defs2" />
  <g
     inkscape:label="Layer 1"
     inkscape:groupmode="layer"
     id="layer1"
     transform="translate(-47.490125,-74.617668)">
    <g
       aria-label="文化祭'22"
       id="text113"
       style="font-size:50.8px;font-family:One-stroke_missing_Font;-inkscape-font-specification:One-stroke_missing_Font;fill:#000000;fill-opacity:1;stroke-width:0.264583"
       transform="translate(8.613226,-7.5999052)">
      <path
         id="path7228"
         style="font-family:'Hina Mincho';-inkscape-font-specification:'Hina Mincho';display:inline;fill:#590d22;fill-opacity:1"
         d="m 115.0769,82.877998 c -0.74507,0 -1.37147,0.220161 -1.87947,0.660424 -0.47414,0.4064 -0.71107,1.032809 -0.71107,1.879472 v 36.677346 c 0,1.38853 0.18609,2.57427 0.55862,3.55637 0.37253,0.94827 1.11741,1.76077 2.23501,2.4381 0.94826,0.57573 2.20159,0.9993 3.75946,1.2702 1.55786,0.3048 3.23422,0.45682 5.02915,0.45682 1.89653,0 3.67457,-0.16934 5.33404,-0.50797 1.65946,-0.3048 2.99719,-0.77867 4.01319,-1.42214 1.25307,-0.77893 1.87947,-1.65957 1.87947,-2.6417 0,-0.54187 -0.28778,-1.13472 -0.86351,-1.77819 -0.27093,-0.3048 -0.40618,-1.48999 -0.40618,-3.55585 l 0.0506,-2.18436 c 0,-0.44027 -0.0676,-0.76212 -0.20309,-0.96532 -0.13547,-0.23707 -0.30478,-0.35553 -0.50798,-0.35553 -0.2032,0 -0.37251,0.11846 -0.50798,0.35553 -0.13547,0.2032 -0.20361,0.50827 -0.20361,0.91467 0,3.48827 -0.0676,5.48647 -0.20308,5.99447 -0.3048,1.15147 -1.10052,2.03158 -2.38746,2.64118 -0.6096,0.3048 -1.50701,0.55903 -2.69234,0.76223 -1.15146,0.2032 -2.37072,0.30489 -3.65766,0.30489 -1.45623,0 -2.79399,-0.15254 -4.01319,-0.45734 -1.18533,-0.3048 -2.08274,-0.76189 -2.69234,-1.37149 -0.84667,-0.84666 -1.27021,-2.42133 -1.27021,-4.72426 v -7.77678 -1.77406 -5.53713 -20.319686 c 0,-0.237063 0.0508,-0.457225 0.15245,-0.660425 0.13547,-0.203196 0.30478,-0.321667 0.50798,-0.355533 0.54186,-0.03387 0.81287,-0.186404 0.81287,-0.457337 0,-0.237066 -0.20338,-0.474004 -0.60978,-0.711067 -0.4064,-0.237067 -0.91434,-0.355534 -1.52394,-0.355534 z m -52.527028,0.355534 c -0.745065,0 -1.371473,0.220159 -1.879472,0.660424 -0.474132,0.4064 -0.711584,1.032807 -0.711584,1.879472 v 5.079793 c 0,0.541867 -0.15202,0.982184 -0.45682,1.32085 -0.3048,0.3048 -0.745118,0.457336 -1.320849,0.457336 H 46.801996 c -1.151464,0 -2.79427,-0.06762 -4.927864,-0.203088 l -1.219047,-0.101802 c -0.338667,-0.03387 -0.609671,0.05105 -0.812871,0.254248 -0.169333,0.203198 -0.254248,0.45691 -0.254248,0.76171 0,0.270933 0.08491,0.525161 0.254248,0.762228 0.2032,0.203198 0.474204,0.287597 0.812871,0.253731 l 1.219047,-0.101286 c 1.930396,-0.135466 3.573201,-0.203605 4.927864,-0.203605 h 35.712032 c 0.575733,0 1.01605,-0.118468 1.32085,-0.355534 0.3048,-0.237066 0.457336,-0.541623 0.457336,-0.914156 0,-0.4064 -0.186089,-0.829941 -0.558622,-1.270207 -0.440266,-0.474132 -0.914654,-0.88038 -1.422652,-1.219047 -0.440266,-0.270933 -0.880584,-0.406177 -1.32085,-0.406177 -0.778931,0 -1.5411,0.37218 -2.286165,1.117245 -0.508,0.507998 -0.998647,0.914247 -1.472778,1.219047 -0.440267,0.270933 -0.999052,0.406693 -1.676384,0.406693 H 64.987966 c -0.541865,0 -0.982184,-0.152536 -1.320849,-0.457336 -0.3048,-0.338666 -0.45682,-0.778983 -0.45682,-1.32085 v -5.079793 c 0,-0.237066 0.05085,-0.457225 0.152445,-0.660425 0.135467,-0.203198 0.30478,-0.321667 0.50798,-0.355534 0.541865,-0.03387 0.81287,-0.186403 0.81287,-0.457336 0,-0.237066 -0.203382,-0.474001 -0.609782,-0.711068 C 63.667412,83.352 63.159472,83.233532 62.549872,83.233532 Z m 102.158618,0.711067 c -0.23706,0 -0.44044,0.135244 -0.60978,0.406177 -0.16933,0.270933 -0.23695,0.626854 -0.20309,1.067118 0.37254,4.233321 1.55824,8.195675 3.55638,11.88713 2.03197,3.657596 4.41915,6.790146 7.16235,9.397876 2.7432,2.57386 5.40188,4.48715 7.97574,5.74022 0.2032,0.0677 0.33896,0.1018 0.40669,0.1018 0.4064,0 0.72774,-0.25371 0.9648,-0.76171 0.2032,-0.47413 0.60997,-0.8809 1.21957,-1.21956 0.64346,-0.33867 1.28665,-0.49069 1.93011,-0.45682 0.3048,0.0339 0.55903,-0.017 0.76223,-0.15245 0.2032,-0.13547 0.30489,-0.30478 0.30489,-0.50798 0,-0.1016 -0.0508,-0.20329 -0.15245,-0.30489 -0.1016,-0.13547 -0.25413,-0.22038 -0.45733,-0.25425 -2.81093,-0.74506 -5.46963,-1.82856 -7.97574,-3.25096 -2.50613,-1.45627 -4.72452,-3.18347 -6.65489,-5.1816 -0.27094,-0.33867 -0.40618,-0.626444 -0.40618,-0.863511 0,-0.304797 0.20338,-0.609875 0.60978,-0.914672 1.65947,-1.185331 3.18328,-2.488993 4.57182,-3.91139 1.42237,-1.456261 2.55674,-2.895688 3.40341,-4.318082 0.27091,-0.440267 0.6604,-0.880584 1.1684,-1.32085 0.3048,-0.3048 0.52496,-0.541734 0.66042,-0.711068 0.13547,-0.203197 0.20309,-0.440651 0.20309,-0.711584 0,-0.270933 -0.20286,-0.609559 -0.60926,-1.015959 -0.4064,-0.440264 -0.91434,-0.812447 -1.52394,-1.117244 -0.6096,-0.3048 -1.20245,-0.44056 -1.77819,-0.406694 -0.3048,0 -0.71104,0.254228 -1.21904,0.762228 -0.3048,0.304797 -0.59258,0.541736 -0.86352,0.711067 -0.23706,0.169333 -0.50807,0.254248 -0.81287,0.254248 -1.86266,0 -4.16594,-0.101691 -6.90914,-0.304891 -0.33866,-0.03387 -0.60915,0.05053 -0.81235,0.253732 -0.16933,0.2032 -0.25425,0.457427 -0.25425,0.762227 0,0.270933 0.0849,0.524644 0.25425,0.761711 0.2032,0.203197 0.47369,0.288114 0.81235,0.254248 l 1.77819,-0.101803 c 1.6256,-0.135466 2.98012,-0.203088 4.06383,-0.203088 0.47414,0 0.84683,0.118467 1.11777,0.355534 0.27093,0.237064 0.40617,0.54214 0.40617,0.914673 0,0.237064 -0.0503,0.490777 -0.15193,0.76171 -1.016,2.57386 -2.55711,4.910698 -4.62297,7.010425 -0.27093,0.270933 -0.55871,0.406693 -0.86351,0.406693 -0.37254,0 -0.67761,-0.186606 -0.91468,-0.559139 -2.53997,-3.623721 -4.06381,-7.586077 -4.57181,-11.887129 -0.0339,-0.440267 -0.15233,-0.778893 -0.35553,-1.015959 -0.16934,-0.237066 -0.37272,-0.355534 -0.60979,-0.355534 z m -5.07927,2.585889 c -0.0683,-0.0011 -0.13587,3.68e-4 -0.20361,0.0047 -0.33867,0 -0.7622,0.254231 -1.2702,0.762227 -0.6096,0.6096 -1.16839,0.914156 -1.67639,0.914156 l -1.77818,0.05116 c -0.33867,0 -0.60967,-0.06762 -0.81287,-0.203088 -0.2032,-0.169333 -0.30438,-0.389496 -0.30438,-0.660425 l -1.72754,3.098519 c 0.33867,-0.575733 0.84661,-0.863514 1.52394,-0.863514 h 3.14968 c 0.50796,0 0.89747,0.135244 1.1684,0.406177 0.3048,0.237067 0.45734,0.575692 0.45734,1.015959 0,0.237067 -0.0168,0.423672 -0.0506,0.559139 -0.88053,3.657584 -2.35401,6.942691 -4.41988,9.855212 -2.06587,2.87867 -4.35185,5.2155 -6.85798,7.01043 -2.50613,1.76103 -4.87651,2.96302 -7.11171,3.60649 -0.27093,0.0677 -0.4911,0.18621 -0.66043,0.35554 -0.1355,0.16933 -0.2036,0.35594 -0.2036,0.55914 0,0.2032 0.0681,0.38929 0.2036,0.55862 0.13547,0.1355 0.32156,0.20309 0.55863,0.20309 0.1016,0 0.25413,-0.0336 0.45733,-0.10129 2.91253,-0.9144 5.89254,-2.43873 8.94054,-4.57233 3.08187,-2.1336 5.79139,-4.69006 8.12819,-7.67033 2.3368,-2.980267 3.87738,-6.146897 4.62245,-9.499681 0.1016,-0.440267 0.22058,-0.778892 0.35605,-1.015959 0.16933,-0.270933 0.3895,-0.541937 0.66043,-0.81287 0.13547,-0.169333 0.25393,-0.33865 0.35553,-0.507979 0.1355,-0.169333 0.18635,-0.355943 0.15245,-0.559139 -0.0339,-0.270933 -0.27132,-0.609563 -0.71159,-1.015959 -0.4064,-0.440267 -0.89704,-0.795669 -1.47277,-1.066602 -0.50377,-0.266696 -0.99494,-0.403937 -1.47278,-0.411344 z m -8.58604,5.288049 -2.08204,2.953308 c 0.12214,-0.139867 0.27475,-0.210323 0.45681,-0.210323 0.2032,0 0.37251,0.06814 0.50798,0.203605 l 0.91416,0.964799 1.11776,1.117762 c 0.37253,0.372529 0.84641,0.558622 1.42214,0.558622 0.508,0 0.94832,-0.135244 1.32085,-0.406177 0.37253,-0.270933 0.55914,-0.609559 0.55914,-1.015959 0,-0.711196 -0.59286,-1.439299 -1.77819,-2.184362 -0.64347,-0.4064 -1.33801,-0.728249 -2.08308,-0.965316 -0.33867,-0.135467 -0.50798,-0.321559 -0.50798,-0.558622 0,-0.169333 0.0508,-0.32187 0.15245,-0.457337 z m -2.18436,3.099036 c -0.22882,0.302289 -0.46519,0.605241 -0.72399,0.911055 0.30059,-0.345211 0.54291,-0.649506 0.72399,-0.911055 z M 55.336359,95.32375 c -0.440266,0 -0.778892,0.271004 -1.015959,0.81287 -0.643464,1.320797 -1.439704,2.43837 -2.387968,3.352767 -0.914397,0.880533 -2.065524,1.743873 -3.454052,2.590543 -0.474133,0.3048 -0.711585,0.67749 -0.711585,1.11776 0,0.64346 0.507941,1.18547 1.523938,1.62574 0.270933,0.1016 0.491092,0.15244 0.660425,0.15244 0.372533,0 0.694383,-0.13576 0.965316,-0.40669 0.304797,-0.27093 0.609873,-0.67718 0.914673,-1.21905 0.304797,-0.57573 0.541734,-0.99927 0.711067,-1.2702 0.135467,-0.2032 0.27071,-0.42285 0.406177,-0.65991 0.135467,-0.27093 0.288005,-0.52516 0.457336,-0.76223 0.2032,-0.27093 0.372513,-0.40618 0.50798,-0.40618 0.338664,0 0.558825,0.38948 0.660425,1.16841 0.643464,4.74131 2.235425,9.10991 4.775419,13.10618 0.203197,0.30477 0.304374,0.59258 0.304374,0.86351 0,0.27093 -0.135244,0.576 -0.406177,0.91467 -0.171821,0.20207 -0.346304,0.40123 -0.522449,0.59893 h 0.0041 c 1.564034,-1.71157 3.116178,-3.43061 3.972884,-5.57744 -0.237067,0.44027 -0.524847,0.66043 -0.863514,0.66043 -0.338664,0 -0.643741,-0.18661 -0.914672,-0.55914 -2.77706,-3.99626 -4.470194,-8.43247 -5.079794,-13.309266 -0.03387,-0.237064 -3.14e-4,-0.558918 0.101286,-0.965315 0.1016,-0.4064 0.152446,-0.72825 0.152446,-0.965316 0,-0.575733 -0.253714,-0.863513 -0.761711,-0.863513 z m 92.100321,1.270206 -2.48925,2.539897 c 0.16933,-0.16933 0.35542,-0.254248 0.55862,-0.254248 0.2032,0 0.37251,0.06814 0.50798,0.203605 0.37253,0.372533 0.71116,0.778773 1.01596,1.21905 0.16933,0.2032 0.35594,0.44017 0.55914,0.71106 0.23707,0.27093 0.52484,0.59279 0.86351,0.96532 0.37253,0.47413 0.91454,0.71107 1.62574,0.71107 0.508,0 0.93102,-0.13525 1.26969,-0.40618 0.37253,-0.27093 0.55914,-0.62685 0.55914,-1.06712 0,-0.7112 -0.54201,-1.472847 -1.62574,-2.285645 -0.9144,-0.643467 -1.76097,-1.101077 -2.5399,-1.37201 -0.37253,-0.1016 -0.55914,-0.270912 -0.55914,-0.507979 0,-0.135467 0.0849,-0.287487 0.25425,-0.45682 z m -46.38063,2.285649 c -1.206357,2.248045 -2.638408,4.270435 -4.266924,6.096265 0.270933,-0.3048 0.507868,-0.45733 0.711068,-0.45733 0.338663,0 0.507979,0.28778 0.507979,0.86351 v 23.67297 c -0.03387,0.4064 0.05053,0.71096 0.253731,0.91416 0.237067,0.23707 0.525364,0.35553 0.86403,0.35553 0.508,0 0.981866,-0.20286 1.422136,-0.60926 0.47413,-0.37253 0.71107,-0.8637 0.71107,-1.4733 v -25.65373 c 0,-0.23706 0.0508,-0.45722 0.15244,-0.66042 0.13547,-0.2032 0.30478,-0.32219 0.50798,-0.35605 0.27094,-0.0339 0.47432,-0.10149 0.60978,-0.20309 0.13547,-0.13547 0.20309,-0.288 0.20309,-0.45734 0,-0.16933 -0.0844,-0.32135 -0.25373,-0.45682 -0.16933,-0.16933 -0.42356,-0.2878 -0.76223,-0.35553 -0.54186,-0.101608 -0.81287,-0.339053 -0.81287,-0.711586 0,-0.135466 0.0508,-0.304779 0.15245,-0.507979 z m 67.2083,4.877225 c -0.77893,0 -1.54058,0.37218 -2.28565,1.11724 -0.508,0.508 -0.99916,0.91425 -1.47329,1.21905 -0.44027,0.27093 -0.99905,0.40669 -1.67639,0.40669 h -2.235 c -1.15147,0 -2.79427,-0.0676 -4.92787,-0.20309 l -1.21904,-0.1018 c -0.33867,-0.0339 -0.60968,0.0511 -0.81288,0.25425 -0.16931,0.2032 -0.25424,0.45691 -0.25424,0.76171 0,0.27093 0.0849,0.52516 0.25424,0.76223 0.2032,0.2032 0.47421,0.28759 0.81288,0.25373 l 1.21904,-0.10129 c 1.9304,-0.13546 3.5732,-0.2036 4.92787,-0.2036 l 2.235,0.0512 6.95978,-0.0512 c 0.57574,0 1.01554,-0.11847 1.32034,-0.35554 0.3048,-0.23706 0.45733,-0.54162 0.45733,-0.91415 0,-0.4064 -0.18609,-0.82994 -0.55862,-1.27021 -0.44026,-0.47413 -0.91465,-0.88038 -1.42265,-1.21905 -0.44027,-0.27093 -0.88058,-0.40617 -1.32085,-0.40617 z m 7.67085,6.50193 c -0.77893,0 -1.54058,0.37269 -2.28565,1.11776 -0.508,0.508 -0.99916,0.91424 -1.47329,1.21904 -0.44027,0.27094 -0.99906,0.4067 -1.67639,0.4067 h -16.91628 c -1.15146,0 -2.79426,-0.0676 -4.92786,-0.20309 l -1.21905,-0.1018 c -0.33867,-0.0339 -0.60967,0.051 -0.81287,0.25424 -0.16933,0.2032 -0.25425,0.45694 -0.25425,0.76171 0,0.27094 0.0849,0.52517 0.25425,0.76223 0.2032,0.2032 0.4742,0.2876 0.81287,0.25373 l 1.21905,-0.10128 c 1.9304,-0.13547 3.5732,-0.20361 4.92786,-0.20361 h 6.19756 c 0.57573,0 1.01605,0.15254 1.32085,0.45734 0.3048,0.3048 0.45682,0.74512 0.45682,1.32085 v 6.35 c 0,0.94826 -0.20287,1.62552 -0.60927,2.03192 -0.37253,0.4064 -0.99946,0.60978 -1.87999,0.60978 -0.64346,0 -1.77781,-0.27101 -3.40341,-0.81287 -0.9144,-0.3048 -1.50725,-0.45734 -1.77818,-0.45734 -0.27094,0 -0.4911,0.10169 -0.66043,0.30489 -0.16933,0.16934 -0.25373,0.37272 -0.25373,0.60978 0,0.47414 0.32185,0.77869 0.96532,0.91416 1.52397,0.3048 2.81088,0.72834 3.86074,1.27021 0.4064,0.2032 0.71096,0.44013 0.91416,0.71106 0.2032,0.3048 0.3898,0.6775 0.55914,1.11777 0.2032,0.47413 0.42336,0.82953 0.66042,1.0666 0.23707,0.23706 0.62654,0.35553 1.16841,0.35553 1.08373,0 1.96385,-0.38947 2.64118,-1.1684 0.7112,-0.77894 1.06712,-1.87973 1.06712,-3.30213 v -9.55032 c 0,-0.57573 0.15202,-1.01605 0.45682,-1.32085 0.33866,-0.3048 0.77898,-0.45682 1.32085,-0.45682 l 10.87117,-0.0512 c 0.57573,0 1.01605,-0.11846 1.32085,-0.35553 0.3048,-0.23707 0.45733,-0.54162 0.45733,-0.91416 0,-0.4064 -0.18609,-0.82994 -0.55862,-1.2702 -0.44027,-0.47414 -0.91465,-0.88038 -1.42265,-1.21905 -0.44027,-0.27093 -0.88058,-0.40669 -1.32085,-0.40669 z m -87.912464,1.81177 c 0.02477,0.0129 0.05175,0.0238 0.08062,0.0331 -0.02882,-0.009 -0.05588,-0.0201 -0.08062,-0.0331 z m 0.100252,0.0393 c 0.02809,0.008 0.05819,0.014 0.08992,0.0186 -0.03171,-0.005 -0.06185,-0.0107 -0.08992,-0.0186 z m -23.268347,1.58646 c -0.07524,0.0866 -0.123392,0.14102 -0.142627,0.16175 0.02803,-0.0273 0.05755,-0.0451 -0.07958,0.1602 0.0758,-0.10659 0.147701,-0.21481 0.222209,-0.32195 z m -0.222209,0.32195 c -1.789751,2.67891 -3.596253,4.2712 -4.480346,5.12888 v 0.0357 c 0.191492,-0.17878 0.381614,-0.35897 0.568957,-0.54157 0.3048,-0.3048 0.609359,-0.45734 0.914156,-0.45734 0.270933,0 0.558716,0.16932 0.863513,0.50798 2.302928,2.57387 4.97891,4.74138 8.026901,6.50245 3.081857,1.7272 6.383733,2.94646 9.905855,3.65766 0.474133,0.1016 0.812759,-0.18618 1.015959,-0.86352 0.135466,-0.47413 0.49087,-0.84683 1.066601,-1.11776 0.6096,-0.23707 1.185679,-0.35553 1.727543,-0.35553 0.237067,0 0.439934,-0.0508 0.609265,-0.15245 0.169334,-0.1016 0.254249,-0.23736 0.254249,-0.40669 0,-0.3048 -0.305076,-0.50767 -0.914673,-0.60927 -3.826922,-0.67733 -7.399802,-1.82897 -10.718726,-3.45457 -3.285057,-1.62557 -6.19746,-3.65735 -8.737451,-6.09575 -0.3048,-0.27093 -0.457336,-0.55923 -0.457336,-0.86403 0,-0.27093 0.118469,-0.57549 0.355533,-0.91415 z m 88.849358,2.3368 c -1.38853,0 -2.28594,0.74488 -2.69234,2.23501 -0.44027,1.524 -1.11752,2.91257 -2.03192,4.16564 -0.9144,1.25306 -1.87995,2.25216 -2.89595,2.99723 -0.98213,0.74507 -1.76107,1.11776 -2.33681,1.11776 -0.37253,0 -0.66031,0.0676 -0.86351,0.20309 -0.2032,0.13547 -0.30489,0.30478 -0.30489,0.50798 0,0.2032 0.0849,0.37251 0.25425,0.50798 0.16933,0.13546 0.38949,0.20309 0.66042,0.20309 h 0.20309 c 1.28693,-0.13547 2.65873,-0.57579 4.115,-1.32085 1.49013,-0.7112 2.8787,-1.7103 4.16563,-2.99724 1.3208,-1.28693 2.37023,-2.82752 3.14916,-4.62245 0.1016,-0.2032 0.23737,-0.38981 0.4067,-0.55914 0.2032,-0.16934 0.40658,-0.25373 0.60978,-0.25373 h 0.0506 c 0.64347,0.0339 0.96532,-0.13545 0.96532,-0.50798 0,-0.23707 -0.15254,-0.474 -0.45734,-0.71107 -0.27093,-0.27093 -0.64363,-0.47432 -1.11776,-0.60978 -0.77893,-0.23707 -1.40534,-0.35554 -1.87947,-0.35554 z m 16.0724,0.19482 c -0.25453,0.003 -0.46432,0.0738 -0.62942,0.21136 -0.16933,0.13547 -0.25373,0.32207 -0.25373,0.55914 0,0.3048 0.16932,0.50769 0.50798,0.60926 1.49013,0.37254 2.92955,1.5242 4.31809,3.45457 1.42237,1.9304 2.50589,3.89454 3.25096,5.89267 0.33867,0.94826 0.91474,1.42265 1.72754,1.42265 0.6096,0 1.15109,-0.30507 1.62523,-0.91467 0.508,-0.57574 0.72815,-1.26976 0.66042,-2.08256 -0.13547,-1.28693 -0.84679,-2.62468 -2.13372,-4.01319 -1.25306,-1.38854 -2.72604,-2.55695 -4.41937,-3.50522 -1.69333,-0.98213 -3.18359,-1.52414 -4.47053,-1.62574 -0.0635,-0.006 -0.12471,-0.009 -0.18345,-0.008 z" />
      <path
         id="path5698"
         style="font-family:'Hina Mincho';-inkscape-font-specification:'Hina Mincho';display:inline;fill:#c9184a;fill-opacity:1"
         d="m 153.12574,82.217573 c -0.77872,9.1e-5 -1.4558,0.202957 -2.0314,0.609265 -0.54187,0.4064 -0.88049,1.0501 -1.01596,1.930631 -0.6096,3.589861 -1.93055,6.840883 -3.96255,9.75341 -2.032,2.878661 -4.01342,5.113805 -5.94382,6.705531 -0.4064,0.3048 -0.60927,0.64343 -0.60927,1.01596 0,0.13547 0.0508,0.25445 0.15245,0.35605 0.1016,0.1016 0.23684,0.15193 0.40617,0.15193 0.2032,0 0.44014,-0.0844 0.71107,-0.25373 1.55787,-1.08373 2.92966,-2.2013 4.115,-3.352767 l 2.48925,-2.539897 c 0.27469,-0.289149 0.51205,-0.551936 0.72502,-0.797884 0.24801,-0.294678 0.47648,-0.587028 0.69712,-0.878499 0.0329,-0.05761 0.0691,-0.107803 0.108,-0.151412 -0.002,0.002 -0.004,0.0036 -0.006,0.0057 l 2.08204,-2.953308 0.81287,-1.320849 1.72755,-3.098519 c 0,-0.2032 0.0503,-0.406582 0.15192,-0.609782 l 0.60979,-1.523938 c 0.1016,-0.3048 0.20329,-0.541735 0.30489,-0.711068 0.13547,-0.169333 0.30478,-0.271024 0.50798,-0.304891 0.64347,-0.1016 0.96531,-0.321758 0.96531,-0.660425 0,-0.338665 -0.25423,-0.626446 -0.76223,-0.863513 -0.67718,-0.338593 -1.4219,-0.507907 -2.23448,-0.507979 z m -48.36139,0.711068 c -0.67733,0 -1.26967,0.169313 -1.77767,0.507979 -0.47413,0.338666 -0.77921,0.795761 -0.91467,1.371492 -0.94827,5.723456 -2.506155,10.668128 -4.673619,14.83372 -2.133596,4.131728 -5.113613,7.772218 -8.94054,10.921818 -0.440265,0.33866 -0.660424,0.69458 -0.660424,1.06711 0,0.33867 0.186089,0.50798 0.558622,0.50798 0.169333,0 0.440338,-0.10169 0.81287,-0.30489 2.675462,-1.65946 5.215678,-3.94545 7.620207,-6.85798 1.628522,-1.82586 3.060567,-3.84822 4.266924,-6.096265 2.3368,-4.097859 3.91146,-8.195448 4.72426,-12.293307 0.16933,-0.711198 0.49118,-1.067118 0.96531,-1.067118 l 0.45734,0.101803 c 0.23707,0.06773 0.42316,0.05096 0.55862,-0.05064 0.13547,-0.1016 0.20361,-0.254137 0.20361,-0.457337 0,-0.135466 -0.0509,-0.304779 -0.15245,-0.507979 -0.37253,-0.575732 -0.83014,-0.999274 -1.37201,-1.270207 -0.54186,-0.270932 -1.10065,-0.406176 -1.67638,-0.406176 z m 55.06331,3.612699 c 0.0141,0.0013 0.0282,0.0037 0.0424,0.0052 -0.0141,-0.0015 -0.0283,-0.0039 -0.0424,-0.0052 z m -0.53331,0.0057 c -0.0422,0.0074 -0.0857,0.01916 -0.13022,0.03359 0.0445,-0.01444 0.0881,-0.02612 0.13022,-0.03359 z m 0.92398,0.05788 c 0.0251,0.0058 0.0503,0.01212 0.0754,0.0186 -0.0252,-0.0065 -0.0505,-0.01281 -0.0754,-0.0186 z m 0.20412,0.05478 c 0.0223,0.0068 0.0448,0.01339 0.0672,0.02067 -0.0224,-0.0073 -0.0448,-0.01391 -0.0672,-0.02067 z m 0.20722,0.06976 c 0.0215,0.008 0.043,0.01577 0.0646,0.02429 -0.0216,-0.0085 -0.0431,-0.01625 -0.0646,-0.02429 z m 0.2217,0.09095 c 0.0143,0.0064 0.0286,0.01199 0.0429,0.0186 -0.0143,-0.0066 -0.0286,-0.0122 -0.0429,-0.0186 z m -7.03472,1.173055 c 0.0223,0.02285 0.0458,0.04489 0.0713,0.06615 -0.0254,-0.02117 -0.0491,-0.04339 -0.0713,-0.06615 z m -22.28029,0.827856 c -0.67733,0 -1.28696,0.169314 -1.82883,0.507979 -0.54187,0.3048 -0.96541,0.761895 -1.27021,1.371493 -2.84478,5.960521 -6.55342,11.210267 -11.12542,15.748397 -0.33866,0.27093 -0.60915,0.40618 -0.81235,0.40618 -0.23707,0 -0.42367,-0.1017 -0.55914,-0.3049 -0.13546,-0.2032 -0.20309,-0.4742 -0.20309,-0.81287 v 5.53713 c 0,-0.47413 0.0849,-0.88038 0.25425,-1.21904 0.2032,-0.33867 0.50776,-0.64323 0.91416,-0.91416 2.91252,-2.032 5.63883,-4.45374 8.17883,-7.26467 2.53998,-2.8448 4.84275,-5.926509 6.90862,-9.245436 0.508,-0.846664 1.11763,-1.185291 1.82883,-1.015958 0.23706,0.1016 0.44045,0.1016 0.60978,0 0.16933,-0.1016 0.25373,-0.254137 0.25373,-0.457337 0,-0.203198 -0.0335,-0.355736 -0.10129,-0.457336 -0.30478,-0.609598 -0.72834,-1.066693 -1.2702,-1.371493 -0.54187,-0.338665 -1.13421,-0.507979 -1.77767,-0.507979 z m 31.40893,1.048515 c -0.0527,0.07402 -0.10769,0.147667 -0.16691,0.221692 0.0591,-0.07387 0.11426,-0.147819 0.16691,-0.221692 z m -12.04267,2.271179 c -0.001,0.0075 -0.003,0.01513 -0.004,0.02274 0.001,-0.0076 0.002,-0.01518 0.004,-0.02274 z m -1.58647,2.429309 c -0.017,0.0027 -0.0337,0.0062 -0.0501,0.01034 0.0164,-0.0041 0.0331,-0.0076 0.0501,-0.01034 z m -0.0765,0.01705 c -0.0193,0.0058 -0.0384,0.01284 -0.0568,0.02067 0.0185,-0.0078 0.0375,-0.01485 0.0568,-0.02067 z m -0.0692,0.02532 c -0.0231,0.01043 -0.045,0.02257 -0.0667,0.03617 0.0215,-0.01348 0.0438,-0.02584 0.0667,-0.03617 z m -0.0785,0.04444 c -0.0172,0.0114 -0.0343,0.02376 -0.0506,0.03721 0.0165,-0.01359 0.0333,-0.02571 0.0506,-0.03721 z m -0.0672,0.05168 c -0.0155,0.01373 -0.0308,0.02827 -0.0455,0.04393 0.0146,-0.01556 0.03,-0.03028 0.0455,-0.04393 z m -79.058226,0.310059 c -0.677333,0 -1.286964,0.203382 -1.828829,0.609782 -0.508,0.372532 -0.79578,0.897249 -0.863513,1.57458 -0.541867,5.147725 -2.065687,9.855465 -4.571814,14.122645 -0.914781,2.29236 -2.622226,4.09719 -4.290695,5.92574 l -5.16e-4,-5.2e-4 c -4.717304,5.15106 -10.94066,8.78107 -18.670695,10.88926 -0.270933,0.0677 -0.491092,0.16943 -0.660425,0.30489 -0.135467,0.16934 -0.203088,0.32187 -0.203088,0.45734 0,0.33866 0.220159,0.50798 0.660424,0.50798 0.169333,0 0.287801,-0.0169 0.355534,-0.0506 4.199459,-0.88052 8.043337,-2.23555 11.531596,-4.06435 3.121321,-1.62067 5.909511,-3.54758 8.365898,-5.78001 0.645195,-0.72687 2.759222,-2.37967 4.842081,-5.49733 0.13713,-0.2053 0.107614,-0.1875 0.07958,-0.1602 0.0193,-0.0208 0.06746,-0.0752 0.143144,-0.16227 3.12118,-4.48837 5.114864,-9.45996 5.974829,-14.917427 0.03387,-0.338666 0.118781,-0.60967 0.254248,-0.81287 0.135466,-0.2032 0.304779,-0.304891 0.507979,-0.304891 0.169333,0 0.338646,0.06762 0.50798,0.203088 0.135465,0.1016 0.288003,0.152446 0.457336,0.152446 0.3048,0 0.45682,-0.18609 0.45682,-0.558623 0,-0.101598 -0.03355,-0.254136 -0.101286,-0.457336 -0.237067,-0.643465 -0.626539,-1.134629 -1.168404,-1.473295 -0.541866,-0.338666 -1.134721,-0.507979 -1.778186,-0.507979 z m 78.726976,0.12609 c -0.0431,0.0572 -0.0885,0.116147 -0.13642,0.176734 0.0479,-0.06061 0.0934,-0.119509 0.13642,-0.176734 z m -0.17828,0.228927 c -0.0498,0.06222 -0.10134,0.125554 -0.15607,0.191203 0.0545,-0.06546 0.10646,-0.129175 0.15607,-0.191203 z m -0.17208,0.211356 c -0.0436,0.05215 -0.0913,0.106441 -0.13798,0.160714 0.0465,-0.0541 0.0945,-0.108754 0.13798,-0.160714 z" />
      <path
         id="path408"
         style="font-family:'Hina Mincho';-inkscape-font-specification:'Hina Mincho';fill:#c9184a;fill-opacity:1"
         d="m 192.19157,90.345242 c -0.44026,0 -0.82974,0.135761 -1.1684,0.406694 -0.3048,0.270933 -0.44056,0.660404 -0.4067,1.168404 0.13547,2.506131 0.37241,5.079895 0.71107,7.721492 0.0677,0.507998 0.18672,0.897468 0.35605,1.168408 0.16934,0.27093 0.35542,0.40617 0.55862,0.40617 0.2032,0 0.38929,-0.13524 0.55863,-0.40617 0.16933,-0.3048 0.2878,-0.69427 0.35553,-1.168408 0.23707,-2.031998 0.45723,-4.572209 0.66043,-7.620206 0.0339,-0.541867 -0.11816,-0.948114 -0.45682,-1.219047 -0.3048,-0.3048 -0.69428,-0.457337 -1.16841,-0.457337 z m 16.61139,0.152446 c -2.06586,0 -3.89475,0.525232 -5.48649,1.575097 -1.55786,1.049866 -2.75983,2.268609 -3.60649,3.657141 -0.84667,1.388532 -1.27021,2.523395 -1.27021,3.403927 0,0.237066 0.10169,0.439932 0.30489,0.609265 0.23707,0.135467 0.474,0.203605 0.71107,0.203605 0.8128,0 1.4392,-0.711321 1.87947,-2.13372 0.508,-1.693331 1.32101,-2.980213 2.43861,-3.860746 1.1176,-0.914399 2.40448,-1.371492 3.86075,-1.371492 0.98213,0 1.93038,0.28778 2.84478,0.863513 0.9144,0.541866 1.65928,1.388431 2.23501,2.539896 0.57573,1.117599 0.86403,2.489394 0.86403,4.114996 0,2.87866 -1.0164,6.02799 -3.04839,9.44852 -2.032,3.42053 -4.33476,6.50223 -6.90863,9.24543 -2.57386,2.7432 -4.4363,4.386 -5.58777,4.92786 -0.37253,0.16934 -0.64354,0.38949 -0.81287,0.66043 -0.13546,0.23706 -0.2036,0.57569 -0.2036,1.01596 0,0.2032 0.11898,0.38929 0.35605,0.55862 0.23706,0.13546 0.5584,0.2036 0.9648,0.2036 0.2032,0 1.2023,-0.0681 2.99723,-0.2036 1.79493,-0.16933 3.9116,-0.25373 6.35,-0.25373 3.89466,0 7.0445,0.11846 9.44903,0.35553 0.33867,0.0339 0.64323,-0.0846 0.91416,-0.35553 0.27093,-0.3048 0.42347,-0.79597 0.45734,-1.4733 l 0.35553,-4.31808 c 0.13547,-1.1176 0.20309,-2.09941 0.20309,-2.94607 0,-0.37254 -0.0844,-0.66083 -0.25373,-0.86403 -0.16933,-0.23707 -0.37272,-0.35554 -0.60978,-0.35554 -0.23707,0 -0.45723,0.11847 -0.66043,0.35554 -0.2032,0.23706 -0.30489,0.55891 -0.30489,0.96531 0,1.59173 -0.23693,2.77692 -0.71107,3.55586 -0.47413,0.77893 -1.219,1.30416 -2.235,1.57509 -0.98214,0.23707 -2.38748,0.35554 -4.21628,0.35554 h -5.74074 c -0.2032,0 -0.37251,-0.0341 -0.50798,-0.1018 -0.1016,-0.1016 -0.15244,-0.22007 -0.15244,-0.35554 0,-0.16933 0.0676,-0.32135 0.20309,-0.45682 0.9144,-1.15146 2.32026,-2.81104 4.21679,-4.97851 2.16747,-2.47226 3.87737,-4.52131 5.13044,-6.14691 1.25306,-1.6256 2.30301,-3.36957 3.14968,-5.23224 0.84666,-1.89653 1.2702,-3.84388 1.2702,-5.842016 0,-1.862665 -0.40624,-3.471397 -1.21904,-4.826062 -0.8128,-1.354665 -1.89682,-2.370543 -3.25148,-3.047876 -1.35467,-0.711199 -2.81086,-1.067118 -4.36873,-1.067118 z m 25.4,0 c -2.06586,0 -3.89475,0.525232 -5.48649,1.575097 -1.55786,1.049866 -2.75983,2.268609 -3.60649,3.657141 -0.84667,1.388532 -1.27021,2.523395 -1.27021,3.403927 0,0.237066 0.10169,0.439932 0.30489,0.609265 0.23707,0.135467 0.474,0.203605 0.71107,0.203605 0.8128,0 1.4392,-0.711321 1.87947,-2.13372 0.508,-1.693331 1.32101,-2.980213 2.43861,-3.860746 1.1176,-0.914399 2.40448,-1.371492 3.86075,-1.371492 0.98213,0 1.93038,0.28778 2.84478,0.863513 0.9144,0.541866 1.65928,1.388431 2.23501,2.539896 0.57573,1.117599 0.86403,2.489394 0.86403,4.114996 0,2.87866 -1.0164,6.02799 -3.04839,9.44852 -2.032,3.42053 -4.33476,6.50223 -6.90863,9.24543 -2.57386,2.7432 -4.4363,4.386 -5.58777,4.92786 -0.37253,0.16934 -0.64354,0.38949 -0.81287,0.66043 -0.13546,0.23706 -0.2036,0.57569 -0.2036,1.01596 0,0.2032 0.11898,0.38929 0.35605,0.55862 0.23706,0.13546 0.5584,0.2036 0.9648,0.2036 0.2032,0 1.2023,-0.0681 2.99723,-0.2036 1.79493,-0.16933 3.9116,-0.25373 6.35,-0.25373 3.89466,0 7.0445,0.11846 9.44903,0.35553 0.33867,0.0339 0.64323,-0.0846 0.91416,-0.35553 0.27093,-0.3048 0.42347,-0.79597 0.45734,-1.4733 l 0.35553,-4.31808 c 0.13547,-1.1176 0.20309,-2.09941 0.20309,-2.94607 0,-0.37254 -0.0844,-0.66083 -0.25373,-0.86403 -0.16933,-0.23707 -0.37272,-0.35554 -0.60978,-0.35554 -0.23707,0 -0.45723,0.11847 -0.66043,0.35554 -0.2032,0.23706 -0.30489,0.55891 -0.30489,0.96531 0,1.59173 -0.23693,2.77692 -0.71107,3.55586 -0.47413,0.77893 -1.219,1.30416 -2.235,1.57509 -0.98214,0.23707 -2.38748,0.35554 -4.21628,0.35554 h -5.74074 c -0.2032,0 -0.37251,-0.0341 -0.50798,-0.1018 -0.1016,-0.1016 -0.15244,-0.22007 -0.15244,-0.35554 0,-0.16933 0.0676,-0.32135 0.20309,-0.45682 0.9144,-1.15146 2.32026,-2.81104 4.21679,-4.97851 2.16747,-2.47226 3.87737,-4.52131 5.13044,-6.14691 1.25306,-1.6256 2.30301,-3.36957 3.14968,-5.23224 0.84666,-1.89653 1.2702,-3.84388 1.2702,-5.842016 0,-1.862665 -0.40624,-3.471397 -1.21904,-4.826062 -0.8128,-1.354665 -1.89682,-2.370543 -3.25148,-3.047876 -1.35467,-0.711199 -2.81086,-1.067118 -4.36873,-1.067118 z" />
    </g>
  </g>
</svg>
