<?xml version="1.0" encoding="UTF-8" standalone="no"?>
<!-- Created with Inkscape (http://www.inkscape.org/) -->

<svg
   width="371.95761mm"
   height="145.95976mm"
   viewBox="0 0 371.95761 145.95976"
   version="1.1"
   id="svg5"
   sodipodi:docname="hero-desc.svg"
   inkscape:version="1.2.1 (9c6d41e410, 2022-07-14)"
   xmlns:inkscape="http://www.inkscape.org/namespaces/inkscape"
   xmlns:sodipodi="http://sodipodi.sourceforge.net/DTD/sodipodi-0.dtd"
   xmlns="http://www.w3.org/2000/svg"
   xmlns:svg="http://www.w3.org/2000/svg">
  <sodipodi:namedview
     id="namedview7"
     pagecolor="#505050"
     bordercolor="#ffffff"
     borderopacity="1"
     inkscape:showpageshadow="0"
     inkscape:pageopacity="0"
     inkscape:pagecheckerboard="1"
     inkscape:deskcolor="#505050"
     inkscape:document-units="mm"
     showgrid="false"
     inkscape:zoom="0.73851712"
     inkscape:cx="574.80049"
     inkscape:cy="431.94666"
     inkscape:window-width="1920"
     inkscape:window-height="1009"
     inkscape:window-x="-8"
     inkscape:window-y="-8"
     inkscape:window-maximized="1"
     inkscape:current-layer="svg5" />
  <defs
     id="defs2" />
  <path
     id="path403"
     style="font-weight:bold;font-size:50.8px;font-family:HarenosoraMincho;-inkscape-font-specification:'HarenosoraMincho Bold';fill:#000000;stroke-width:0.264583"
     d="M 66.649765 52.194249 C 66.294167 52.194249 65.938448 52.346944 65.68445 52.600942 C 65.43045 52.905742 65.277756 53.311834 65.277756 53.870632 C 65.277756 54.632632 65.328961 57.934938 65.481361 61.79573 C 63.703365 62.456128 61.671115 63.472231 60.045517 64.437429 C 57.099123 66.266225 56.69275 67.63749 56.69275 69.059886 L 56.69275 69.364777 C 56.69275 72.86997 59.994703 75.511682 61.721901 78.356476 L 61.772544 78.508922 C 58.72455 83.233312 56.337053 87.754456 55.219455 90.396052 C 55.117855 90.65005 55.06701 90.903919 55.06701 91.107119 C 55.06701 91.970717 55.727664 92.580414 56.489662 92.580414 C 56.99766 92.580414 57.556355 92.275654 57.861155 91.564456 C 58.978751 89.07526 60.756599 85.163766 63.093393 80.998176 C 63.956991 82.776172 64.820602 84.9098 65.430202 86.840196 C 65.379402 88.770592 65.328916 90.599237 65.328916 92.072435 C 65.328916 92.986833 66.091013 93.54573 66.802211 93.54573 C 67.157809 93.54573 67.462367 93.444196 67.716367 93.190196 C 67.970367 92.936196 68.173703 92.529792 68.173703 92.021792 C 68.122903 87.145002 68.021258 80.235738 68.021258 74.95255 L 68.021258 73.632217 C 68.630856 72.870219 69.24033 72.107894 69.90073 71.396694 C 74.87912 65.859507 80.568674 62.557441 84.124668 62.557441 C 84.886666 62.557441 85.496501 62.659336 86.055299 62.964134 C 87.477697 63.675334 87.985414 64.894439 87.985414 66.672435 C 87.985414 68.806031 87.223631 71.803185 86.410833 75.714777 C 85.902835 78.102373 85.597963 80.337625 85.597963 82.217223 C 85.597963 85.976415 86.664624 88.618186 89.153818 89.684984 C 89.763416 89.938984 90.322406 90.040518 90.932004 90.040518 C 94.284798 89.989718 97.688162 86.890657 98.19616 86.281057 C 98.34856 86.077857 98.450408 85.823832 98.450408 85.620632 C 98.450408 85.214234 98.094579 84.807762 97.688181 84.807762 C 97.484981 84.807762 97.282116 84.90961 97.078916 85.06201 C 95.19932 86.687608 93.014577 87.703709 91.338181 87.703709 C 90.779381 87.703709 90.271801 87.602018 89.865403 87.398818 C 88.646205 86.73842 88.087217 84.909708 88.087217 82.522114 C 88.087217 80.642516 88.442887 78.458155 88.900087 76.324559 C 89.458885 73.733765 90.525827 70.380697 90.525827 67.383503 C 90.525827 64.894307 89.763743 62.608547 87.376149 61.287751 C 86.207751 60.678151 84.937643 60.373078 83.566045 60.373078 C 79.603653 60.373078 74.828595 62.811643 70.815403 66.672435 C 71.018601 65.656437 71.170936 64.741731 71.170936 63.928933 C 71.170936 62.404937 70.561167 61.236703 68.884771 61.033503 L 68.681683 61.033503 C 68.478483 61.033503 68.325742 61.033346 68.122544 61.084146 C 68.122544 58.64575 68.224503 56.156941 68.173703 53.769347 C 68.173703 52.804149 67.411765 52.194249 66.649765 52.194249 z M 23.977435 52.327574 C 23.875835 52.321224 23.774144 52.346537 23.672544 52.397337 C 18.287754 54.530933 11.633329 56.10596 3.6577447 57.172756 C 3.0989458 57.274356 2.7432746 57.630184 2.8448744 57.934984 L 2.8955173 58.03627 C 2.9971171 58.391868 3.3021454 58.595049 3.6577447 58.544249 C 11.480929 57.833051 18.338738 56.868172 24.282326 55.598176 C 25.095124 55.852174 25.806603 55.953709 26.365403 55.953709 C 26.975001 55.953709 27.279559 55.80133 27.279559 55.44573 C 27.279559 54.785332 26.314322 53.769295 24.282326 52.448497 C 24.180726 52.372297 24.079035 52.333924 23.977435 52.327574 z M 40.904567 52.345661 C 40.668426 52.357071 40.462091 52.47998 40.335093 52.702228 C 36.626699 58.442618 31.902388 63.268777 26.2636 67.027969 C 25.908 67.281969 25.755352 67.739128 26.009352 68.043928 C 26.212552 68.348726 26.619068 68.450216 26.974668 68.247016 C 33.324653 64.843422 38.353772 60.728697 42.214564 55.851907 C 42.925764 55.953507 43.33217 55.953709 43.382968 55.953709 C 44.246568 55.953709 44.703818 55.750326 44.703818 55.343928 C 44.703818 54.581928 43.586247 53.616895 41.351051 52.448497 C 41.198651 52.372297 41.046251 52.338815 40.904567 52.345661 z M 24.249253 58.067276 C 23.92064 58.074418 23.634915 58.303152 23.520615 58.646052 C 22.403017 62.202044 21.082017 65.605651 19.405621 69.009243 C 19.253221 69.415643 19.303752 69.771359 19.659352 69.974559 C 19.964152 70.177759 20.320025 70.075911 20.574025 69.720311 C 22.809221 66.773917 24.637754 63.928985 26.009352 61.236591 C 27.533348 61.134991 28.244874 60.880919 28.244874 60.423721 C 28.244874 59.814121 27.025611 59.05247 24.587217 58.138072 C 24.472917 58.087272 24.35879 58.064894 24.249253 58.067276 z M 12.25877 59.207258 C 12.142982 59.213508 12.033109 59.249326 11.937859 59.306476 C 11.633061 59.509676 11.582371 59.916192 11.734771 60.271792 C 12.852369 62.456188 13.410997 64.640282 13.461797 66.723078 C 13.512597 67.993076 13.970209 68.653709 14.833807 68.653709 C 16.103803 68.653709 16.713279 67.942543 16.713279 66.469347 C 16.713279 64.335751 15.443328 62.049716 12.852532 59.458922 C 12.662032 59.268422 12.45175 59.19684 12.25877 59.207258 z M 4.8070285 60.741531 C 4.6482789 60.741531 4.4958122 60.805217 4.3688124 60.932217 C 4.1148128 61.186217 4.0638102 61.541416 4.2670098 61.897016 C 5.689407 63.979812 6.4514183 66.16458 6.6038181 68.298176 C 6.7054179 69.618972 7.2135148 70.278933 8.0771132 70.278933 C 9.2963108 70.278933 9.9059421 69.567768 9.9059421 68.09457 C 9.9059421 65.808576 8.3309623 63.421411 5.2829685 60.932217 C 5.1305687 60.805217 4.9657783 60.741531 4.8070285 60.741531 z M 42.781455 63.674168 C 42.54085 63.685579 42.322671 63.808486 42.163921 64.030736 C 37.896731 70.482322 32.918458 75.5626 27.07647 79.321792 C 26.670072 79.575792 26.517581 80.032951 26.771579 80.337751 L 26.822222 80.388394 C 27.025422 80.743992 27.431938 80.845325 27.787538 80.642125 C 33.934325 77.390931 39.370006 72.920646 44.145196 67.231057 C 44.907194 67.281857 45.3136 67.33286 45.3136 67.33286 C 46.177198 67.38366 46.63445 67.129478 46.63445 66.723078 C 46.63445 66.06268 45.466236 65.097801 43.23104 63.777005 C 43.07864 63.700805 42.925818 63.667322 42.781455 63.674168 z M 68.071901 64.488072 C 68.122701 64.488072 68.173546 64.538715 68.224346 64.538715 C 68.478346 64.589515 68.681683 65.199258 68.681683 66.164456 C 68.681683 67.028054 68.529349 68.094936 68.326149 69.314134 C 68.224549 69.415734 68.122701 69.517425 68.071901 69.619025 L 68.071901 64.488072 z M 65.532004 64.741804 C 65.633604 67.586598 65.684293 70.431706 65.735093 72.666901 C 64.871493 73.835299 64.058998 75.003716 63.296998 76.172114 C 60.706204 72.92092 59.029559 71.600063 59.029559 69.669668 C 59.029559 69.568068 59.029402 69.46622 59.080202 69.41542 C 59.080202 68.399422 61.061509 66.977006 62.890305 65.910208 C 63.753903 65.453008 64.668406 64.995802 65.532004 64.741804 z M 14.689629 69.969391 C 14.231984 69.968275 13.919134 70.307645 13.919134 70.73627 L 13.919134 75.714777 L 4.2163669 75.714777 C 3.5051683 75.714777 2.9972087 76.121249 3.2004083 76.527647 C 3.3020081 76.832447 3.5561906 76.984984 3.8101902 76.984984 L 13.309352 76.984984 C 10.667758 82.572972 7.1630226 87.398661 2.7942315 91.462653 C 2.4894321 91.767453 2.4384295 92.173812 2.6924289 92.478612 C 2.9464285 92.732612 3.3529453 92.783771 3.6577447 92.529771 C 7.7217365 89.583377 11.12514 85.874788 13.919134 81.556798 L 13.919134 95.527005 C 13.919134 95.984203 14.224163 96.288715 14.681361 96.288715 L 15.951051 96.288715 C 16.408251 96.288715 16.713279 95.984203 16.713279 95.527005 L 16.713279 81.099461 C 19.659673 83.080657 21.64079 85.062089 22.758388 87.043285 C 23.266386 88.008483 23.825016 88.46542 24.485414 88.46542 C 25.552212 88.46542 26.111155 87.855946 26.111155 86.585948 C 26.111155 84.249154 23.012465 81.963322 16.713279 79.677326 L 16.713279 76.984984 L 26.822222 76.984984 C 27.076222 76.984984 27.279604 76.832133 27.432004 76.628933 L 27.533807 76.425845 C 27.686207 76.171845 27.685847 75.867334 27.482647 75.664134 C 26.822249 74.800536 26.111285 73.987366 25.400087 73.276166 C 25.044487 72.920568 24.485838 72.971569 24.18104 73.377969 L 22.453497 75.714777 L 16.713279 75.714777 L 16.713279 72.36201 C 17.932475 71.904812 18.542107 71.447401 18.542107 71.091804 C 18.542107 70.482204 17.322641 70.126959 14.782647 69.974559 C 14.750897 69.971384 14.720139 69.969466 14.689629 69.969391 z M 45.220066 75.979877 C 44.97946 75.978885 44.761282 76.102309 44.602532 76.324559 C 39.370144 83.995343 33.020228 89.634091 25.349444 93.393285 C 24.892244 93.647283 24.688909 94.053645 24.892107 94.409243 L 24.94275 94.459886 C 25.09515 94.764686 25.450664 94.866377 25.806264 94.764777 C 34.188245 91.462783 41.097057 86.433555 46.532647 79.727969 C 46.786647 79.778769 47.09172 79.778612 47.44732 79.778612 C 48.412518 79.778612 48.869455 79.524901 48.869455 79.016901 C 48.869455 78.458103 47.80273 77.492552 45.669134 76.120954 C 45.516734 76.025704 45.364429 75.980473 45.220066 75.979877 z M 65.735093 76.832538 C 65.684293 77.797736 65.684607 78.813773 65.633807 79.829771 C 65.379807 79.220173 65.125375 78.762672 64.769777 78.254674 C 65.074575 77.746674 65.379493 77.289738 65.735093 76.832538 z M 105.33526 84.565916 C 105.11142 84.563535 104.90217 84.668422 104.74977 84.858922 C 104.49577 85.163722 104.59725 85.570082 104.95285 85.87488 C 107.95005 88.262476 110.0327 91.056608 111.3535 94.3586 C 111.8615 95.628598 112.57261 96.288715 113.38541 96.288715 C 115.01101 96.288715 115.82402 95.425216 115.82402 93.748818 C 115.82402 92.631222 115.36673 91.462804 114.35073 90.243606 C 112.42033 87.90681 109.47422 86.07787 105.56264 84.604674 C 105.48644 84.579274 105.40987 84.56671 105.33526 84.565916 z M 74.15215 114.01321 C 73.76738 114.03405 73.450392 114.27824 73.405942 114.67829 C 72.999544 116.96429 72.593138 118.89467 72.237538 120.36787 L 57.302532 120.36787 C 56.591334 120.36787 56.083374 120.77434 56.286574 121.18074 C 56.388174 121.48554 56.641839 121.63807 56.895839 121.63807 L 71.932647 121.63807 C 71.577047 122.95887 71.018623 124.53358 70.307423 126.51478 L 59.842429 126.51478 C 59.182031 126.51478 58.673913 126.92109 58.877113 127.37829 C 59.029513 127.63229 59.232738 127.78498 59.537538 127.78498 L 69.799444 127.78498 C 68.834246 129.81698 67.91954 131.64567 67.055942 133.16967 L 55.371901 133.16967 C 54.711501 133.16967 54.254185 133.57614 54.406585 133.98254 C 54.508185 134.28734 54.76221 134.43936 55.06701 134.43936 L 66.294232 134.43936 C 63.093838 139.36694 58.82662 143.68541 53.594232 147.49541 C 53.187832 147.80021 53.035341 148.25721 53.289341 148.56201 C 53.543339 148.86681 53.949858 148.91766 54.254656 148.71446 C 58.267848 146.37766 61.722254 143.7869 64.617848 140.84052 L 64.617848 159.027 C 64.617848 159.4842 64.922359 159.78872 65.379559 159.78872 L 66.802211 159.78872 C 67.259409 159.78872 67.563921 159.4842 67.563921 159.027 L 67.563921 156.99457 L 84.480202 156.99457 L 84.480202 159.027 C 84.480202 159.4842 84.785229 159.78872 85.242429 159.78872 L 86.664564 159.78872 C 87.121764 159.78872 87.426792 159.4842 87.426792 159.027 L 87.426792 141.70403 L 88.189019 141.14541 C 90.424215 143.12661 93.166983 145.0062 96.519777 146.83498 C 96.875375 147.03818 97.333052 146.93649 97.536252 146.53009 C 97.841052 146.02209 98.196454 145.51384 98.602854 145.10744 C 99.060052 144.54864 98.958204 143.8375 98.348606 143.5835 C 93.319416 141.3991 88.900133 138.35094 85.039341 134.43936 L 97.485093 134.43936 C 97.688291 134.43936 97.891832 134.33818 98.044232 134.13498 L 98.145517 133.93138 C 98.348717 133.67738 98.298074 133.32187 98.094874 133.06787 L 97.993072 132.96658 C 97.180274 132.15378 96.469376 131.29013 95.554978 130.47733 C 95.199378 130.12173 94.742015 130.17237 94.437217 130.52797 L 92.252854 133.16967 L 83.870936 133.16967 C 82.49934 131.54407 81.229074 129.71538 80.111476 127.78498 L 93.16701 127.78498 C 93.37021 127.78498 93.573749 127.68329 93.726149 127.48009 L 93.827435 127.32765 C 93.979833 127.02285 93.929349 126.71813 93.726149 126.46413 C 92.862551 125.49895 92.049491 124.68608 91.135093 123.97488 C 90.830293 123.72088 90.373291 123.77137 90.068491 124.07617 L 88.036574 126.51478 L 73.60903 126.51478 C 74.26943 124.58438 74.828371 123.00967 75.234771 121.63807 L 95.554978 121.63807 C 95.808978 121.63807 96.011843 121.53654 96.164243 121.28254 L 96.215403 121.18074 C 96.367801 120.87594 96.3168 120.57107 96.1136 120.36787 C 95.250002 119.40267 94.437099 118.53912 93.471901 117.67552 C 93.116301 117.31992 92.659456 117.37057 92.354656 117.72617 L 90.220936 120.36787 L 75.539662 120.36787 C 75.590462 120.16467 75.895334 118.99661 76.352532 116.91381 C 77.82573 116.55821 78.536895 116.15181 78.536895 115.74541 C 78.536895 115.03421 77.114609 114.47507 74.320615 114.01787 C 74.263465 114.01152 74.207117 114.01024 74.15215 114.01321 z M 24.443039 114.26695 C 23.985394 114.26583 23.672544 114.6052 23.672544 115.03382 L 23.672544 119.70744 L 7.0611545 119.70744 C 6.4007559 119.70744 5.943439 120.11391 6.0958388 120.52031 C 6.1974386 120.82511 6.4514642 120.97765 6.7562636 120.97765 L 23.672544 120.97765 L 23.672544 125.09212 L 9.8552992 125.09212 C 9.1441006 125.09212 8.6361411 125.4986 8.8393405 125.905 C 8.9409403 126.20978 9.1946061 126.36233 9.4486057 126.36233 L 23.672544 126.36233 L 23.672544 130.98531 L 4.6225437 130.98531 C 3.9621449 130.98531 3.5053449 131.39178 3.6577447 131.79818 C 3.7593445 132.10298 4.0133701 132.255 4.3181695 132.255 L 46.532647 132.255 C 46.786647 132.255 46.990029 132.10266 47.142429 131.89946 L 47.294874 131.59457 C 47.447274 131.34057 47.44743 131.03606 47.244232 130.83286 C 46.431432 129.86766 45.56773 129.00412 44.602532 128.14052 C 44.246934 127.83572 43.789571 127.8354 43.484771 128.2418 L 41.249765 130.98531 L 26.669777 130.98531 L 26.669777 126.36233 L 41.351051 126.36233 C 41.554251 126.36233 41.75779 126.26064 41.91019 126.05744 L 42.011476 125.85435 C 42.214676 125.60035 42.164033 125.24484 41.960833 124.99084 C 41.351235 124.38124 40.538377 123.56812 39.471579 122.75532 C 39.166781 122.45052 38.709776 122.50168 38.404978 122.80648 L 36.372544 125.09212 L 26.669777 125.09212 L 26.669777 120.97765 L 44.399444 120.97765 C 44.602644 120.97765 44.805666 120.87596 44.958066 120.67276 L 45.059352 120.46967 C 45.211752 120.21567 45.211909 119.9108 45.008709 119.6568 L 44.907423 119.555 C 44.043825 118.4882 43.180169 117.62486 42.418169 116.96446 C 42.062571 116.65966 41.605208 116.71014 41.300408 117.06574 L 39.116045 119.70744 L 26.669777 119.70744 L 26.669777 116.86265 C 28.193773 116.35465 28.955942 115.89756 28.955942 115.49116 C 28.955942 114.88156 27.482968 114.47531 24.536574 114.27211 C 24.504824 114.26894 24.473549 114.26702 24.443039 114.26695 z M 350.1136 116.71021 C 349.0468 116.65941 348.74207 117.82775 349.75807 118.23415 C 350.72327 118.58975 351.99344 119.5042 353.21264 120.7234 C 354.73662 122.1966 356.51457 119.80919 354.73657 118.48839 C 353.41577 117.52319 351.6884 116.81181 350.1136 116.71021 z M 129.53998 120.01233 C 128.01598 120.01233 126.49206 120.16503 125.17126 120.41903 C 118.71966 121.58741 113.89349 124.73686 110.18509 129.66446 C 107.89909 132.71244 106.57859 137.08116 106.57859 140.89116 C 106.57859 143.22796 107.08638 145.36163 108.15318 146.88563 C 109.42316 148.66361 110.94726 149.47617 112.47126 149.47617 C 114.35086 149.47617 116.2305 148.30773 117.8053 146.47893 C 120.5993 143.17695 124.30767 137.94466 127.50807 130.22308 C 128.01607 129.05468 128.21913 127.93716 128.21913 127.02276 C 128.21913 124.93996 127.30459 123.46663 126.59339 122.55223 C 127.35539 122.45063 128.1682 122.39978 128.9302 122.39978 C 130.4542 122.39978 131.97853 122.55248 133.50253 122.80648 C 139.49693 123.82248 144.2719 129.05465 144.2719 134.74425 L 144.2719 136.21754 C 144.2719 141.19594 142.90019 144.85343 139.29339 147.95223 C 135.33101 151.35581 131.47025 152.93092 128.57467 153.54052 C 127.76187 153.69292 127.35562 154.20092 127.35562 154.70892 C 127.35562 155.26772 127.76218 155.72488 128.47338 155.72488 C 128.57498 155.72488 128.67616 155.72452 128.77776 155.67372 C 132.53694 155.06412 136.70278 153.64173 141.07158 149.98415 C 144.83078 146.83455 147.37094 142.16131 147.37094 136.82733 C 147.37094 134.23653 146.76126 131.49298 145.38966 128.74978 C 142.08768 122.095 135.38198 120.01233 129.53998 120.01233 z M 319.58265 120.06297 C 319.02385 120.06297 318.76978 120.46946 318.76978 120.87584 C 318.76978 121.18064 318.92216 121.53616 319.27776 121.73936 C 321.41134 122.70456 324.45968 123.77133 327.86328 126.26053 C 328.26968 126.56533 328.62544 126.71787 328.98104 126.71787 C 329.89544 126.71787 330.45382 125.90528 330.45382 125.14328 C 330.45382 124.6353 330.25075 124.17788 329.74275 123.87308 C 326.84715 122.29828 322.73234 120.67257 319.88754 120.06297 L 319.58265 120.06297 z M 348.20312 120.61953 C 347.3801 120.62995 347.13533 121.52996 347.97988 122.19669 C 349.30068 123.16189 349.96136 123.87342 351.23136 125.60062 C 352.45056 127.27702 354.93968 125.2449 353.26328 123.4669 C 351.89168 121.9937 350.01206 121.02836 348.58966 120.67276 C 348.44996 120.63466 348.3207 120.61804 348.20312 120.61953 z M 124.61264 122.85712 C 125.32382 123.56832 125.72988 124.78764 125.72988 126.15924 C 125.72988 127.27684 125.47581 128.5469 124.91701 129.8169 C 122.88501 134.3381 118.36398 141.29746 115.67158 144.59946 C 114.60478 145.97106 113.5381 146.58074 112.6237 146.58074 C 111.3029 146.58074 110.23576 145.36171 109.72776 143.17733 C 109.52456 142.31373 109.42338 141.24669 109.42338 140.07829 C 109.42338 136.21749 110.79484 131.03584 115.82402 127.22584 C 118.97362 124.83826 121.86944 123.51752 124.61264 122.85712 z M 242.1636 125.75255 C 239.8268 125.75255 237.94732 127.63255 237.94732 129.96935 C 237.94732 132.30613 239.8268 134.18563 242.1636 134.18563 C 244.5004 134.18563 246.43104 132.30613 246.43104 129.96935 C 246.43104 127.63255 244.5004 125.75255 242.1636 125.75255 z M 224.63754 126.36233 C 224.12954 126.36233 223.67224 126.6164 223.16424 127.1752 C 220.72586 130.0708 216.96677 134.54097 214.93477 136.77617 C 213.71557 138.14775 212.39503 138.605 211.17583 138.605 C 210.41383 138.605 209.70235 138.40218 209.09275 138.14818 C 208.94035 138.09738 208.78781 138.04637 208.63541 138.04637 C 208.12741 138.04637 207.7719 138.50349 207.7719 138.90989 C 207.7719 139.21469 207.92428 139.5194 208.27988 139.7734 C 209.34668 140.4338 210.51522 140.73872 211.582 140.73872 C 213.5124 140.73872 215.23946 139.87509 216.30626 138.90989 C 219.20186 136.26829 222.09778 132.40735 223.72338 130.42617 C 224.02818 130.07057 224.43438 129.86754 224.78998 129.86754 C 225.09478 129.86754 225.4505 130.02008 225.7553 130.32488 C 228.5493 133.11888 231.13993 135.35384 235.00073 138.75744 C 238.91233 142.21184 245.31331 146.88559 247.14211 147.90159 C 247.44691 148.10479 247.70098 148.15532 247.95498 148.15532 C 248.81858 148.15532 249.27583 147.39352 249.27583 146.58074 C 249.27583 146.12354 249.0726 145.56469 248.6154 145.25989 C 244.75462 142.66909 240.23336 139.92606 236.93136 137.18286 C 233.62936 134.38886 226.92348 128.08944 226.16148 127.22584 C 225.70428 126.66706 225.14554 126.36233 224.63754 126.36233 z M 350.0118 127.22584 C 349.7578 127.22584 349.45344 127.37854 349.19944 127.63254 C 346.86266 130.57894 343.10312 135.04915 338.93754 139.06233 C 334.77194 143.07553 331.16518 146.42853 326.38998 149.52733 C 324.612 150.69571 323.13897 151.10191 321.81817 151.10191 C 320.14177 151.10191 318.76977 150.39052 317.60137 149.32372 C 317.24577 149.01892 316.89021 148.8669 316.58541 148.8669 C 315.77261 148.8669 315.16328 149.62868 315.16328 150.44148 C 315.16328 150.84788 315.31566 151.25429 315.67126 151.60989 C 317.09366 152.93067 319.27797 153.84541 321.71637 153.84541 C 322.93557 153.84541 324.25647 153.59098 325.52647 152.98138 C 329.23487 151.25418 332.74009 148.35855 338.22647 143.12617 C 343.66205 137.89377 345.5418 135.35408 350.72338 128.6485 C 350.87578 128.4453 350.92647 128.2419 350.92647 128.03872 C 350.92647 127.58152 350.5198 127.22584 350.0118 127.22584 z M 242.1636 127.42893 C 243.586 127.42893 244.7035 128.59775 244.7035 129.96935 C 244.7035 131.39175 243.586 132.50924 242.1636 132.50924 C 240.792 132.50924 239.6237 131.39175 239.6237 129.96935 C 239.6237 128.59775 240.792 127.42893 242.1636 127.42893 z M 73.050408 127.78498 L 78.587538 127.78498 C 79.400336 129.56298 80.365528 131.34087 81.432326 133.16967 L 70.358066 133.16967 C 71.323264 131.49327 72.23761 129.66458 73.050408 127.78498 z M 313.02956 130.73106 C 312.52156 130.73106 312.06424 131.13737 312.06424 131.59457 C 312.06424 131.89937 312.31847 132.20424 312.82647 132.40744 C 315.62047 133.42344 318.16032 134.89683 321.56392 137.03041 C 321.86872 137.23361 322.17379 137.33531 322.47859 137.33531 C 323.34219 137.33531 323.95137 136.57337 323.95137 135.81137 C 323.95137 135.30337 323.69782 134.79496 323.13902 134.43936 C 319.68462 132.45816 316.17925 131.49306 313.33445 130.73106 L 313.02956 130.73106 z M 195.38093 132.1656 C 195.15824 132.15466 194.93846 132.25858 194.76701 132.4586 L 192.17647 135.60776 L 157.47988 135.60776 C 156.87028 135.60776 156.41332 136.01459 156.56572 136.47179 C 156.66732 136.77659 156.92135 136.97977 157.22615 136.97977 L 198.37402 136.97977 C 198.57722 136.97977 198.78025 136.87808 198.93265 136.67488 L 199.08509 136.42063 C 199.23749 136.11583 199.23765 135.81112 199.03445 135.55712 C 198.12005 134.54112 197.05317 133.42344 195.88477 132.40744 C 195.7292 132.25187 195.55412 132.17409 195.38093 132.1656 z M 260.517 133.46474 C 260.47771 133.46494 260.43883 133.46821 260.40073 133.47456 C 259.99433 133.47456 259.63902 133.72811 259.63902 134.28691 C 259.68982 134.43931 259.68935 134.59221 259.79095 134.79541 C 260.85775 137.58941 264.51572 139.11297 268.52892 139.11297 L 268.78265 139.11297 C 270.96703 139.11297 273.10069 138.91004 275.28509 138.85924 C 277.92669 138.75764 280.7207 138.7066 283.9719 138.605 C 287.6295 138.5034 291.89701 138.35102 297.07859 138.09702 C 298.19619 138.04622 298.85642 137.23379 298.80562 136.47179 C 298.80562 135.76059 298.19583 135.09978 297.02743 135.09978 L 296.97679 135.09978 C 290.42361 135.09978 285.19128 135.65881 278.23168 135.86201 C 275.4377 135.96361 272.3388 136.01414 268.732 136.11574 C 265.12522 136.16654 263.19464 136.16689 261.26424 133.83009 C 261.08644 133.60784 260.79204 133.46335 260.517 133.46474 z M 37.223655 134.14119 C 37.033155 134.16022 36.855594 134.26156 36.728594 134.43936 L 35.305942 136.1669 L 15.595517 136.1669 L 15.036895 135.86201 C 14.478097 135.55721 13.91931 135.30314 13.360512 135.04914 C 12.750912 134.79514 12.140948 135.20145 12.140948 135.91265 L 12.140948 159.027 C 12.140948 159.4842 12.445977 159.78872 12.903175 159.78872 L 14.37647 159.78872 C 14.83367 159.78872 15.138181 159.4842 15.138181 159.027 L 15.138181 149.06999 L 35.763279 149.06999 L 35.763279 153.6418 C 35.763279 154.607 35.051798 155.1151 33.680202 155.1151 C 31.902205 155.1151 29.514885 155.01372 26.568491 154.70892 C 26.060491 154.65812 25.653818 154.91179 25.653818 155.31819 C 25.653818 155.67379 25.907843 155.97897 26.314243 156.02977 C 28.803437 156.43617 30.429152 156.79157 31.29275 157.09637 C 32.257948 157.45197 32.867377 157.96007 33.019777 158.56967 C 33.172177 158.92527 33.375606 159.17893 33.782004 159.17893 C 37.083998 159.07733 38.760512 157.65521 38.760512 154.91201 L 38.760512 138.45255 L 40.081361 137.58904 C 40.284561 137.43664 40.436895 137.23361 40.436895 137.03041 C 40.436895 136.62401 39.573192 135.70967 37.795196 134.33807 C 37.617396 134.18567 37.414153 134.12214 37.223655 134.14119 z M 69.595839 134.43936 L 82.295839 134.43936 C 83.159437 135.81096 84.328169 137.1828 85.699765 138.7068 L 84.429559 140.07829 L 67.868812 140.07829 C 67.056014 139.72269 66.446539 139.46898 65.989341 139.31658 C 67.513337 137.48778 68.732241 135.86176 69.595839 134.43936 z M 15.138181 137.43659 L 35.763279 137.43659 L 35.763279 141.70403 L 15.138181 141.70403 L 15.138181 137.43659 z M 67.563921 141.3485 L 84.480202 141.3485 L 84.480202 147.64734 L 67.563921 147.64734 L 67.563921 141.3485 z M 15.138181 142.97372 L 35.763279 142.97372 L 35.763279 147.79978 L 15.138181 147.79978 L 15.138181 142.97372 z M 363.982 147.44425 C 362.81362 147.44425 361.74668 147.79981 360.67988 148.46021 C 358.69868 149.73021 357.68265 151.50825 357.68265 153.79425 C 357.68265 156.38505 358.85126 158.26464 361.28966 159.48382 C 362.10246 159.89022 363.01665 160.14425 364.03265 160.14425 C 365.81065 160.14425 367.33498 159.48377 368.60498 158.16297 C 369.77338 156.89299 370.38265 155.41985 370.38265 153.79425 C 370.38265 151.40665 369.36693 149.67956 367.28413 148.40956 C 366.26813 147.79998 365.2012 147.44425 363.982 147.44425 z M 67.563921 148.91754 L 84.480202 148.91754 L 84.480202 155.72488 L 67.563921 155.72488 L 67.563921 148.91754 z M 364.03265 149.22244 C 364.94705 149.22244 365.86155 149.52715 366.67435 150.08595 C 367.94433 151.00035 368.60498 152.27025 368.60498 153.79425 C 368.60498 155.16585 368.04604 156.33442 366.97924 157.24882 C 366.16644 158.01082 365.15025 158.36658 364.03265 158.36658 C 362.35625 158.36658 361.0863 157.65526 360.1719 156.23286 C 359.7147 155.47086 359.46083 154.65785 359.46083 153.79425 C 359.46083 152.57505 359.86708 151.55933 360.67988 150.69573 C 361.64508 149.73053 362.76265 149.22244 364.03265 149.22244 z M 327.98523 170.15707 C 327.74541 170.15707 327.58526 170.31721 327.58526 170.55705 L 327.58526 188.94507 C 327.58526 189.18491 327.74541 189.34505 327.98523 189.34505 L 328.35834 189.34505 C 328.59819 189.34505 328.7578 189.18491 328.7578 188.94507 L 328.7578 171.32961 L 333.76783 171.32961 C 334.00768 171.32961 334.1678 171.17 334.1678 170.93015 L 334.1678 170.55705 C 334.1678 170.31721 334.00768 170.15707 333.76783 170.15707 L 327.98523 170.15707 z M 77.78707 170.17103 C 77.579754 170.159 77.390323 170.26709 77.343686 170.47695 C 76.224396 174.63432 74.572236 178.17894 72.333656 181.11041 C 72.200407 181.29696 72.200112 181.50995 72.360011 181.6432 C 72.51991 181.77643 72.733413 181.77643 72.893312 181.6432 C 74.732144 179.77771 76.304572 177.59223 77.55711 174.98055 L 77.636692 174.76765 L 83.4999 174.76765 L 83.4999 179.8309 L 78.356544 179.8309 C 78.063398 179.671 77.69013 179.5111 77.157134 179.27125 C 76.810689 179.11135 76.491025 179.32449 76.491025 179.69758 L 76.491025 186.70645 L 71.960552 186.70645 C 71.614107 186.70645 71.374174 186.9201 71.454123 187.1333 C 71.507423 187.2932 71.640459 187.37308 71.800355 187.37308 L 83.4999 187.37308 L 83.4999 193.68897 C 83.4999 193.92882 83.659512 194.08843 83.899358 194.08843 L 84.725665 194.08843 C 84.965511 194.08843 85.12564 193.92882 85.12564 193.68897 L 85.12564 187.37308 L 94.746242 187.37308 C 94.879489 187.37308 94.985653 187.31978 95.065602 187.18653 L 95.1457 187.0532 C 95.22565 186.91995 95.225945 186.75983 95.119345 186.65323 C 94.74625 186.17354 94.293028 185.66745 93.733384 185.13445 C 93.546836 184.94793 93.253528 184.97449 93.093629 185.18768 L 91.921091 186.70645 L 85.12564 186.70645 L 85.12564 180.49701 L 92.267323 180.49701 C 92.400572 180.49701 92.507251 180.41711 92.5872 180.31046 L 92.640427 180.17765 C 92.720377 180.0444 92.720672 179.88428 92.614072 179.77768 C 92.161025 179.24469 91.734603 178.76481 91.308209 178.39171 C 91.12166 178.23182 90.88158 178.25892 90.721681 178.44546 L 89.656113 179.8309 L 85.12564 179.8309 L 85.12564 174.76765 L 93.280181 174.76765 C 93.41343 174.76765 93.520109 174.71434 93.600058 174.58109 L 93.680157 174.44777 C 93.760107 174.28788 93.73353 174.12804 93.62693 174.02144 C 93.227183 173.56839 92.77367 173.08852 92.267323 172.63548 C 92.080775 172.44893 91.814338 172.4755 91.654441 172.6887 L 90.588873 174.10154 L 77.956569 174.10154 C 78.303014 173.30204 78.596254 172.55559 78.836102 171.83604 C 79.688894 171.75614 80.088738 171.59611 80.088738 171.32961 C 80.088738 170.98316 79.342207 170.61034 77.87647 170.18395 C 77.846489 170.17728 77.816687 170.17274 77.78707 170.17103 z M 208.62508 170.18136 C 208.385 170.18084 208.22097 170.36044 208.22097 170.61028 L 208.22097 176.07351 L 204.91626 176.07351 C 204.56981 176.07351 204.32989 176.25977 204.40983 176.47297 C 204.46313 176.63287 204.59668 176.73962 204.75658 176.73962 L 208.16774 176.73962 C 207.31494 180.89697 205.95543 184.73455 204.08995 188.27897 C 203.98337 188.46552 204.0105 188.62557 204.1437 188.73217 C 204.3569 188.89207 204.62333 188.83869 204.75658 188.59884 C 206.19567 186.20038 207.36817 183.69522 208.22097 181.08354 L 208.22097 193.68897 C 208.22097 193.92882 208.38058 194.08843 208.62043 194.08843 L 209.34028 194.08843 C 209.58013 194.08843 209.73974 193.92882 209.73974 193.68897 L 209.73974 180.63034 C 210.51259 181.82958 211.01926 182.89585 211.2058 183.82859 C 211.33905 184.49484 211.57861 184.81458 211.97836 184.81458 C 212.538 184.81458 212.80467 184.49455 212.80467 183.85495 C 212.80467 182.57576 211.76513 181.16345 209.73974 179.59112 L 209.73974 176.73962 L 213.49765 176.73962 C 213.60425 176.73962 213.7107 176.68654 213.79065 176.57994 L 213.87075 176.44661 C 213.92405 176.31336 213.92378 176.15324 213.84388 176.04664 C 213.49744 175.56695 213.15112 175.1406 212.80467 174.68755 C 212.59147 174.47435 212.29824 174.50092 212.11169 174.74077 L 211.15257 176.07351 L 209.73974 176.07351 L 209.73974 171.51616 C 210.43264 171.30296 210.80582 171.08983 210.80582 170.90328 C 210.80582 170.53018 210.08661 170.29055 208.67417 170.18395 C 208.65752 170.18228 208.64108 170.1814 208.62508 170.18136 z M 109.96288 170.18395 C 109.69638 170.18395 109.50968 170.37043 109.50968 170.61028 L 109.50968 173.86176 L 102.2078 173.86176 C 101.80806 173.64856 101.38186 173.462 100.92881 173.3021 C 100.60902 173.16885 100.31593 173.38203 100.31593 173.72843 L 100.31593 179.96423 C 100.31593 185.74722 99.436139 190.22459 97.730556 193.44919 C 97.623957 193.63574 97.677627 193.84902 97.837526 193.95562 C 98.024075 194.08887 98.263711 194.06202 98.37031 193.87552 C 100.74214 190.70421 101.9148 186.06702 101.9148 179.96423 L 101.9148 178.57878 L 106.92483 178.57878 L 106.92483 183.29581 C 106.92483 183.53566 107.08495 183.69527 107.3248 183.69527 L 108.04414 183.69527 C 108.28399 183.69527 108.44411 183.53566 108.44411 183.29581 L 108.44411 182.41627 L 113.74715 182.41627 L 113.74715 183.18884 C 113.74715 183.42869 113.90728 183.58881 114.14712 183.58881 L 114.84011 183.58881 C 115.07996 183.58881 115.23956 183.42869 115.23956 183.18884 L 115.23956 178.57878 L 120.88935 178.57878 C 120.99595 178.57878 121.1024 178.52519 121.18235 178.41859 L 121.2361 178.31213 C 121.316 178.17888 121.31583 178.01905 121.20923 177.8858 C 120.83613 177.4594 120.43651 176.97947 119.98346 176.55307 C 119.79691 176.33987 119.5036 176.36669 119.34371 176.57994 L 118.33085 177.91216 L 115.23956 177.91216 L 115.23956 176.55307 C 115.93245 176.31322 116.27878 176.07358 116.27878 175.83373 C 116.27878 175.51394 115.58614 175.32745 114.20035 175.22085 C 113.93386 175.19425 113.74715 175.38068 113.74715 175.64718 L 113.74715 177.91216 L 108.44411 177.91216 L 108.44411 176.55307 C 109.137 176.31322 109.45645 176.07329 109.45645 175.86009 C 109.45645 175.51365 108.79046 175.32745 107.37803 175.22085 C 107.11153 175.19425 106.92483 175.38046 106.92483 175.62031 L 106.92483 177.91216 L 101.9148 177.91216 L 101.9148 174.52787 L 120.75602 174.52787 C 120.86262 174.52787 120.9696 174.47427 121.04955 174.36767 L 121.12913 174.23435 C 121.20903 174.1011 121.20937 173.94126 121.10277 173.80801 C 120.75632 173.38161 120.32969 172.92862 119.77004 172.44892 C 119.58349 172.26237 119.31705 172.28895 119.15715 172.50215 L 118.1443 173.86176 L 111.02897 173.86176 L 111.02897 171.54304 C 111.74851 171.27654 112.12141 171.03638 112.12141 170.82318 C 112.12141 170.45008 111.40197 170.23725 109.96288 170.18395 z M 220.4042 170.20772 C 220.16413 170.20717 220.00009 170.38542 220.00009 170.61028 L 220.00009 174.82087 L 214.64332 174.82087 C 214.29687 174.82087 214.03029 175.03424 214.13689 175.27407 C 214.21679 175.40732 214.32374 175.48698 214.48364 175.48698 L 227.94173 175.48698 C 228.07498 175.48698 228.18166 175.40708 228.26161 175.30043 L 228.31483 175.1671 C 228.39483 175.03385 228.39456 174.87425 228.28796 174.76765 C 227.83491 174.23466 227.40894 173.78143 227.03584 173.38168 C 226.8493 173.19513 226.55599 173.22171 226.39609 173.43491 L 225.35687 174.82087 L 221.49251 174.82087 L 221.49251 171.59626 C 222.2387 171.35641 222.58495 171.11678 222.58495 170.87693 C 222.58495 170.53048 221.89239 170.3169 220.4533 170.2103 C 220.43664 170.20864 220.42021 170.20775 220.4042 170.20772 z M 189.37922 170.2103 C 189.11274 170.2103 188.92654 170.39678 188.92654 170.63663 L 188.92654 173.51501 L 179.27907 173.51501 C 178.90597 173.51501 178.63968 173.72814 178.74628 173.94134 C 178.79958 174.10124 178.93291 174.18112 179.06616 174.18112 L 200.62557 174.18112 C 200.75882 174.18112 200.8655 174.12782 200.94544 173.99457 L 200.97232 173.94134 C 201.05222 173.78144 201.02517 173.62161 200.91857 173.51501 C 200.49218 173.06196 200.03917 172.55552 199.55948 172.07582 C 199.37293 171.88927 199.08014 171.91585 198.92024 172.12905 L 197.85416 173.51501 L 190.44531 173.51501 L 190.44531 171.51616 C 191.19151 171.27631 191.56462 171.06326 191.56462 170.85006 C 191.56462 170.47696 190.84496 170.2636 189.37922 170.2103 z M 342.9621 170.26353 C 342.6956 170.26353 342.50941 170.45053 342.50941 170.69038 L 342.50941 175.70041 L 340.45734 175.70041 C 340.05759 175.48722 339.68448 175.30065 339.33803 175.14075 C 338.99158 174.98085 338.67192 175.19398 338.67192 175.56708 L 338.67192 185.45433 C 338.67192 185.69418 338.83153 185.85379 339.07138 185.85379 L 339.76436 185.85379 C 340.0042 185.85379 340.16434 185.69418 340.16434 185.45433 L 340.16434 183.85495 L 342.50941 183.85495 L 342.50941 190.49072 C 340.99037 190.65062 339.52469 190.83761 338.11227 190.91756 C 337.84577 190.94426 337.65921 191.1572 337.73916 191.45035 C 338.05896 192.78284 338.37871 193.44919 338.72515 193.44919 C 338.93835 193.44919 339.09833 193.12915 339.23158 192.48956 C 342.00314 192.00986 344.74794 191.31716 347.46622 190.46436 C 347.62612 190.99736 347.73279 191.50352 347.78609 191.92991 C 347.86599 192.72939 348.13248 193.10244 348.58553 193.10244 C 348.95863 193.10244 349.22478 192.96925 349.41132 192.67611 L 361.27054 192.67611 C 361.37714 192.67611 361.48411 192.62303 361.56406 192.51643 L 361.64365 192.38311 C 361.69695 192.24986 361.69719 192.08973 361.61729 191.98313 C 361.29749 191.55674 360.87093 191.07717 360.41788 190.57082 C 360.23133 190.35762 359.93831 190.38419 359.75177 190.62404 L 358.73891 192.01 L 355.48743 192.01 L 355.48743 174.12789 L 360.73776 174.12789 C 360.84436 174.12789 360.95081 174.07481 361.03076 173.96821 L 361.05763 173.91498 C 361.16423 173.75508 361.13736 173.59503 361.03076 173.46178 C 360.63101 172.98209 360.20481 172.5025 359.75177 172.04947 C 359.56522 171.86292 359.27192 171.88949 359.11202 172.10269 L 358.09916 173.46178 L 349.06509 173.46178 C 348.71864 173.46178 348.47871 173.67491 348.55866 173.88811 C 348.61196 174.04801 348.74551 174.12789 348.90541 174.12789 L 353.91544 174.12789 L 353.91544 192.01 L 349.57151 192.01 C 349.59811 190.30443 348.50531 188.51901 346.32003 186.62687 C 346.18678 186.52027 346.0006 186.49335 345.86735 186.6 C 345.70745 186.73325 345.65395 186.9731 345.78725 187.15965 C 346.4002 188.06574 346.90634 188.94546 347.25279 189.79825 C 346.79974 189.9315 345.73407 190.09098 344.00183 190.30417 L 344.00183 183.85495 L 346.48023 183.85495 L 346.48023 184.89468 C 346.48023 185.13452 346.63984 185.29414 346.87969 185.29414 L 347.54631 185.29414 C 347.78616 185.29414 347.94577 185.13452 347.94577 184.89468 L 347.94577 176.87294 L 348.55866 176.49984 C 348.71856 176.41994 348.79843 176.31351 348.79843 176.15361 C 348.79843 175.91376 348.39903 175.46055 347.59954 174.76765 C 347.41299 174.60775 347.14656 174.60767 346.98666 174.82087 L 346.29368 175.70041 L 344.00183 175.70041 L 344.00183 171.62313 C 344.74803 171.33 345.12114 171.06348 345.12114 170.87693 C 345.12114 170.53048 344.40119 170.31683 342.9621 170.26353 z M 265.38906 170.3736 C 265.21194 170.37057 265.07678 170.4955 265.01182 170.69038 C 263.46613 176.12692 261.14711 180.87056 258.18898 184.89468 C 258.05573 185.08122 258.0559 185.29421 258.21585 185.42746 C 258.37575 185.56071 258.61561 185.56096 258.77551 185.40111 C 260.18793 183.80212 261.49365 182.04299 262.66622 180.09755 L 262.66622 193.68897 C 262.66622 193.92882 262.82635 194.08895 263.0662 194.08895 L 263.83876 194.08895 C 264.07861 194.08895 264.23874 193.92882 264.23874 193.68897 L 264.23874 179.4578 C 264.95828 179.21795 265.30482 178.97831 265.30482 178.73846 C 265.30482 178.41866 264.79845 178.17873 263.81241 178.04548 C 264.69185 176.36654 265.54471 174.39457 266.42413 172.10269 C 267.25027 171.96944 267.6499 171.78288 267.6499 171.54304 C 267.6499 171.19659 266.93017 170.7966 265.51773 170.39685 C 265.47276 170.38187 265.42993 170.3743 265.38906 170.3736 z M 242.63024 170.50124 C 242.39016 170.50069 242.22613 170.67842 242.22613 170.90328 L 242.22613 175.72676 L 232.63188 175.72676 C 232.28543 175.72676 232.01885 175.94011 232.12545 176.17996 C 232.20535 176.31321 232.3123 176.39339 232.4722 176.39339 L 236.9758 176.39339 C 238.46818 180.49744 240.33408 183.80193 242.54601 186.30699 C 239.50794 189.55827 235.99017 191.84998 231.93942 193.23577 C 231.64628 193.34237 231.51265 193.58224 231.6459 193.79542 C 231.7258 193.95532 231.88597 194.00892 232.04587 193.95562 C 236.65629 192.75638 240.52042 190.59755 243.63845 187.47953 C 246.01026 189.85136 249.20828 191.82355 253.25905 193.44919 C 253.4456 193.52909 253.632 193.4755 253.7386 193.289 C 253.92515 193.0225 254.11193 192.78293 254.32513 192.51643 C 254.59162 192.22328 254.51145 191.85025 254.11171 191.717 C 250.19419 190.41116 246.99641 188.62546 244.51798 186.36022 C 246.59666 183.82849 248.22209 180.52409 249.39468 176.39339 L 254.13858 176.39339 C 254.27183 176.39339 254.35164 176.33979 254.43159 176.23319 L 254.51168 176.12674 C 254.59158 175.96684 254.56506 175.80677 254.45846 175.67353 C 253.97877 175.11388 253.47216 174.581 252.93917 174.07466 C 252.75262 173.88813 252.45954 173.91469 252.32629 174.12789 L 251.07365 175.72676 L 243.79813 175.72676 L 243.79813 171.9425 C 244.57096 171.62271 244.97066 171.38313 244.97066 171.16993 C 244.97066 170.82348 244.2245 170.61042 242.67881 170.50382 C 242.66216 170.50216 242.64624 170.50128 242.63024 170.50124 z M 290.79216 170.52501 C 290.63075 170.52499 290.48223 170.60673 290.43559 170.76996 C 289.0498 174.31437 287.10448 177.16585 284.67935 179.32447 C 284.4928 179.48437 284.43913 179.69765 284.57238 179.8309 C 284.70563 179.9908 284.91913 180.01738 285.10568 179.88413 C 285.98512 179.27119 286.65118 178.7383 287.13088 178.28526 C 287.85043 178.8982 288.35702 179.59092 288.65017 180.31046 C 288.83672 180.76351 289.10324 181.00344 289.39638 181.00344 C 289.50298 181.00344 289.60914 181.00351 289.71574 180.95021 C 288.27665 182.25605 286.67801 183.40206 284.91913 184.30815 C 284.67928 184.4414 284.57246 184.65438 284.70571 184.84093 C 284.81231 185.00082 284.99871 185.0542 285.18526 184.97426 C 287.47714 184.01486 289.31638 182.92253 290.75547 181.72329 C 292.78084 180.07102 294.59263 177.69905 296.16495 174.63432 L 296.88481 174.31444 C 297.04471 174.23454 297.12459 174.15469 297.12459 174.02144 C 297.12459 173.80824 296.6981 173.30157 295.87195 172.55538 C 295.68541 172.36883 295.41897 172.39575 295.25907 172.58225 L 294.56609 173.46178 L 290.88827 173.46178 L 291.66135 171.9425 C 292.46084 171.7826 292.86076 171.59604 292.86076 171.38284 C 292.86076 171.03639 292.19441 170.77003 290.86192 170.53018 C 290.8386 170.52684 290.81521 170.52501 290.79216 170.52501 z M 270.42596 170.55447 C 270.18587 170.55392 270.02185 170.73165 270.02185 170.95651 L 270.02185 191.15734 C 270.02185 191.95683 270.18138 192.51607 270.47453 192.78257 C 270.92758 193.18231 272.44684 193.36909 275.03188 193.36909 C 278.01665 193.36909 279.88225 193.28934 280.62844 193.07609 C 281.26802 192.88955 281.64116 192.46305 281.74775 191.82345 C 281.77435 191.61026 281.61442 191.47707 281.42787 191.39712 C 281.21467 191.31722 281.05491 191.15741 280.94831 190.91756 C 280.76176 190.46451 280.65479 189.05178 280.65479 186.78655 C 280.65479 186.62665 280.62824 186.5202 280.54834 186.49355 C 280.22855 186.3603 279.90888 186.54678 279.88223 186.91988 C 279.66903 189.87799 279.2161 191.50351 278.46991 191.74335 C 278.15011 191.84995 277.05705 191.92991 275.19156 191.92991 C 273.40603 191.92991 272.39372 191.85 272.07392 191.74335 C 271.78077 191.61011 271.62072 191.31717 271.62072 190.83747 L 271.62072 182.60283 C 274.57883 181.13709 277.11051 179.51122 279.24247 177.67238 C 279.56227 177.72568 279.82893 177.77883 280.06878 177.77883 C 280.44187 177.77883 280.62844 177.67238 280.62844 177.48583 C 280.62844 177.13938 280.06876 176.55313 278.94947 175.75363 C 278.76292 175.59374 278.52306 175.64697 278.38981 175.80686 C 276.57762 178.04545 274.41902 179.96418 271.94059 181.50987 L 271.62072 181.67007 L 271.62072 172.02259 C 272.39357 171.72944 272.7669 171.46271 272.7669 171.24951 C 272.7669 170.87641 272.02022 170.66365 270.47453 170.55705 C 270.45788 170.55539 270.44196 170.5545 270.42596 170.55447 z M 135.97783 170.60769 C 135.73775 170.60707 135.57372 170.78488 135.57372 171.00974 L 135.57372 176.15309 L 125.8999 176.15309 C 125.55345 176.15309 125.31352 176.36674 125.39347 176.57994 C 125.44677 176.73984 125.5798 176.81972 125.7397 176.81972 L 134.53399 176.81972 C 132.32207 182.12301 129.07126 186.44039 124.72736 189.79825 C 124.51416 189.95815 124.46078 190.17115 124.59403 190.33104 C 124.72728 190.49094 124.91391 190.51779 125.10046 190.41114 C 129.52432 187.61292 133.01536 183.66843 135.57372 178.52504 L 135.57372 187.74618 L 131.20293 187.74618 C 130.85648 187.74618 130.61655 187.95931 130.6965 188.17251 C 130.7498 188.33241 130.88335 188.41229 131.04325 188.41229 L 135.57372 188.41229 L 135.57372 193.68897 C 135.57372 193.92882 135.73333 194.08843 135.97318 194.08843 L 136.79949 194.08843 C 137.03934 194.08843 137.19946 193.92882 137.19946 193.68897 L 137.19946 188.41229 L 142.26272 188.41229 C 142.39597 188.41229 142.50265 188.33239 142.5826 188.22574 L 142.66218 188.06554 C 142.74208 187.93229 142.74232 187.77268 142.63582 187.66608 C 142.23609 187.18639 141.78322 186.73316 141.35683 186.28012 C 141.17028 186.09357 140.87698 186.12015 140.71708 186.33335 L 139.62412 187.74618 L 137.19946 187.74618 L 137.19946 177.37937 L 137.33227 177.64551 C 139.62415 182.20261 142.82238 186.12052 147.1663 189.29182 C 147.35285 189.42507 147.59241 189.37135 147.75231 189.18485 C 147.93886 188.91836 148.17908 188.65192 148.41893 188.38542 C 148.65878 188.17222 148.63194 187.85263 148.33884 187.66608 C 143.64848 184.81458 140.10385 181.19026 137.70538 176.81972 L 147.32598 176.81972 C 147.43258 176.81972 147.53955 176.76612 147.6195 176.65952 L 147.72595 176.47297 C 147.77925 176.33972 147.77898 176.18011 147.69908 176.07351 C 147.40593 175.67377 146.92628 175.11393 146.33999 174.501 C 146.15344 174.31446 145.86065 174.34103 145.70075 174.55422 L 144.47447 176.15309 L 137.19946 176.15309 L 137.19946 172.10269 C 137.9723 171.80954 138.34513 171.54311 138.34513 171.30326 C 138.34513 170.93016 137.57209 170.71688 136.02641 170.61028 C 136.00975 170.60861 135.99384 170.60773 135.97783 170.60769 z M 171.90071 170.73688 C 171.83075 170.73688 171.76384 170.75688 171.71054 170.79683 C 170.13821 171.83617 168.13943 172.71559 165.68765 173.46178 C 165.47445 173.32853 165.15485 173.19512 164.78176 173.00858 C 164.43531 172.84868 164.08878 173.06182 164.08878 173.43491 L 164.08878 180.2841 C 164.08878 185.74731 162.70299 190.11784 159.93141 193.36909 C 159.79816 193.52899 159.79816 193.74227 159.93141 193.87552 C 160.09131 194.00877 160.30429 194.03542 160.46419 193.87552 C 163.79541 190.91741 165.52804 186.46647 165.66129 180.55024 L 169.71169 180.55024 L 169.71169 193.44919 C 169.71169 193.68904 169.87182 193.84865 170.11167 193.84865 L 170.88423 193.84865 C 171.12408 193.84865 171.28421 193.68904 171.28421 193.44919 L 171.28421 180.55024 L 174.82869 180.55024 C 174.96194 180.55024 175.06862 180.47034 175.14857 180.36369 L 175.2018 180.25723 C 175.2817 180.12398 175.2817 179.96437 175.2018 179.85777 C 174.80205 179.32478 174.40213 178.84491 174.00239 178.47181 C 173.81584 178.25862 173.52305 178.2852 173.36315 178.52504 L 172.37665 179.88413 L 165.66129 179.88413 L 165.66129 174.18112 L 165.79462 174.15476 C 167.9799 173.72836 170.19136 173.24864 172.37665 172.4758 C 172.72308 172.5291 172.98982 172.55538 173.14972 172.55538 C 173.49617 172.55538 173.68251 172.47584 173.68251 172.28924 C 173.68251 171.99609 173.1765 171.48973 172.11051 170.79683 C 172.04389 170.75688 171.97066 170.73688 171.90071 170.73688 z M 161.35096 171.2583 C 161.21938 171.25543 161.08744 171.31614 160.99749 171.43607 L 159.98464 172.79567 L 152.46933 172.79567 C 152.12288 172.79567 151.88295 173.00881 151.9629 173.222 C 152.0162 173.3819 152.14975 173.46178 152.30965 173.46178 L 162.51627 173.46178 C 162.67617 173.46178 162.78306 173.38166 162.86301 173.24836 L 162.88937 173.16878 C 162.96927 173.03553 162.94274 172.90205 162.83614 172.7688 C 162.40974 172.2358 162.00983 171.75593 161.63673 171.38284 C 161.55512 171.30122 161.4533 171.26053 161.35096 171.2583 z M 297.89612 171.34357 C 297.87045 171.34534 297.84422 171.34982 297.81757 171.35648 C 297.60437 171.43638 297.49784 171.64972 297.57779 171.86291 C 298.32399 174.1548 299.1766 176.07324 300.16264 177.59228 C 301.70833 179.96411 303.89381 182.01641 306.82529 183.82859 C 307.01184 183.96184 307.25169 183.88182 307.38494 183.69527 C 307.54484 183.45543 307.73141 183.24236 307.9446 183.02916 C 308.18445 182.76266 308.15743 182.41597 307.83763 182.25608 C 305.679 181.08348 303.92009 179.83117 302.56095 178.49868 C 303.97339 177.27281 305.22621 175.96688 306.31886 174.58109 L 307.06506 174.34132 C 307.25161 174.26142 307.35807 174.15439 307.35807 174.04779 C 307.35807 173.78129 306.85192 173.2216 305.89253 172.36883 C 305.70598 172.20893 305.43954 172.23602 305.27964 172.42257 L 304.61302 173.30159 L 298.99011 173.30159 C 298.77691 172.90185 298.56361 172.31551 298.29712 171.62262 C 298.22721 171.43607 298.07575 171.33118 297.89612 171.34357 z M 12.264971 172.44892 C 10.586038 172.44892 9.2533958 172.95523 8.2140557 173.99457 C 7.2013653 175.00726 6.7216404 176.0734 6.7216404 177.29927 C 6.7216404 178.47186 7.254814 179.08469 8.2941542 179.08469 C 9.1469459 179.08469 9.5731459 178.65827 9.5731459 177.77883 C 9.5731459 176.97934 9.1469459 176.55284 8.2941542 176.52619 C 8.3208042 175.96656 8.5070686 175.43397 8.8801649 174.90097 C 9.5730583 173.91493 10.665836 173.43491 12.184873 173.43491 C 13.117614 173.43491 13.943803 173.70164 14.610048 174.20799 C 15.542788 174.92753 15.99601 175.99329 15.99601 177.40573 C 15.99601 178.44507 15.649395 179.40459 14.983152 180.33733 C 14.476806 181.00357 13.490856 181.85635 12.078419 183.00229 L 11.652089 183.34903 C 8.6406671 185.80081 6.8550271 188.27888 6.2420831 190.81059 L 6.2420831 191.50358 C 6.2420831 191.7434 6.4016941 191.90355 6.6415419 191.90355 L 17.594878 191.90355 C 17.808076 191.90355 17.967687 191.76999 17.994337 191.5568 L 18.527638 186.91988 C 18.554288 186.65338 18.39416 186.44032 18.127662 186.44032 C 17.941115 186.44032 17.781209 186.57365 17.754559 186.7602 C 17.461411 188.22592 17.168172 189.13185 16.875026 189.5316 C 16.528579 190.03795 15.80914 190.27781 14.716501 190.27781 L 7.6544 190.27781 C 8.1607452 188.03922 9.866355 185.98707 12.744529 184.1216 L 13.490736 183.64204 C 15.276268 182.49609 16.475505 181.48342 17.088449 180.60398 C 17.728044 179.67123 18.074436 178.65834 18.074436 177.53905 C 18.074436 175.91341 17.434804 174.63408 16.208917 173.67469 C 15.142927 172.8752 13.837307 172.44892 12.264971 172.44892 z M 28.654669 172.44892 C 27.242231 172.44892 26.016198 172.9553 24.976857 173.94134 C 23.138025 175.70022 22.231805 178.55169 22.231805 182.49586 C 22.231805 185.34737 22.738329 187.71912 23.804319 189.55796 C 24.950257 191.58335 26.57562 192.56966 28.73425 192.56966 C 30.83958 192.56966 32.491888 191.5567 33.637827 189.55796 C 34.703817 187.71912 35.237212 185.37426 35.237212 182.52273 C 35.237212 179.6712 34.703744 177.35239 33.691054 175.54021 C 32.518465 173.48817 30.866596 172.44892 28.654669 172.44892 z M 45.204046 172.44892 C 43.525113 172.44892 42.192471 172.95523 41.15313 173.99457 C 40.14044 175.00726 39.660715 176.0734 39.660715 177.29927 C 39.660715 178.47186 40.193889 179.08469 41.233229 179.08469 C 42.08602 179.08469 42.512221 178.65827 42.512221 177.77883 C 42.512221 176.97934 42.08602 176.55284 41.233229 176.52619 C 41.259879 175.96656 41.446143 175.43397 41.81924 174.90097 C 42.512133 173.91493 43.604912 173.43491 45.123947 173.43491 C 46.05669 173.43491 46.882879 173.70164 47.549122 174.20799 C 48.481865 174.92753 48.935084 175.99329 48.935084 177.40573 C 48.935084 178.44507 48.588471 179.40459 47.922226 180.33733 C 47.415882 181.00357 46.429932 181.85635 45.017494 183.00229 L 44.591163 183.34903 C 41.579741 185.80081 39.794102 188.27888 39.181158 190.81059 L 39.181158 191.50358 C 39.181158 191.7434 39.341287 191.90355 39.581133 191.90355 L 50.533953 191.90355 C 50.747151 191.90355 50.907279 191.76999 50.933929 191.5568 L 51.466713 186.91988 C 51.493363 186.65338 51.333235 186.44032 51.066737 186.44032 C 50.880188 186.44032 50.720282 186.57365 50.693633 186.7602 C 50.400487 188.22592 50.107765 189.13185 49.814617 189.5316 C 49.468172 190.03795 48.748216 190.27781 47.655576 190.27781 L 40.593475 190.27781 C 41.099819 188.03922 42.805431 185.98707 45.683603 184.1216 L 46.429811 183.64204 C 48.215343 182.49609 49.41458 181.48342 50.027524 180.60398 C 50.667119 179.67123 51.01351 178.65834 51.01351 177.53905 C 51.01351 175.91341 50.37388 174.63408 49.147991 173.67469 C 48.082001 172.8752 46.77638 172.44892 45.204046 172.44892 z M 61.673842 172.44892 C 59.994906 172.44892 58.662266 172.95523 57.622926 173.99457 C 56.610236 175.00726 56.130511 176.0734 56.130511 177.29927 C 56.130511 178.47186 56.663684 179.08469 57.703025 179.08469 C 58.555816 179.08469 58.982016 178.65827 58.982016 177.77883 C 58.982016 176.97934 58.555816 176.55284 57.703025 176.52619 C 57.729675 175.96656 57.91594 175.43397 58.289035 174.90097 C 58.98193 173.91493 60.074709 173.43491 61.593743 173.43491 C 62.526484 173.43491 63.352675 173.70164 64.018918 174.20799 C 64.951659 174.92753 65.404363 175.99329 65.404363 177.40573 C 65.404363 178.44507 65.058265 179.40459 64.392022 180.33733 C 63.885678 181.00357 62.899725 181.85635 61.48729 183.00229 L 61.060442 183.34903 C 58.049021 185.80081 56.263897 188.27888 55.650954 190.81059 L 55.650954 191.50358 C 55.650954 191.7434 55.810566 191.90355 56.050412 191.90355 L 67.003749 191.90355 C 67.216947 191.90355 67.376558 191.76999 67.403208 191.5568 L 67.936509 186.91988 C 67.963157 186.65338 67.803031 186.44032 67.536533 186.44032 C 67.349984 186.44032 67.190079 186.57365 67.163429 186.7602 C 66.870282 188.22592 66.577044 189.13185 66.283896 189.5316 C 65.937451 190.03795 65.218012 190.27781 64.125372 190.27781 L 57.06327 190.27781 C 57.569617 188.03922 59.275227 185.98707 62.153399 184.1216 L 62.899607 183.64204 C 64.68514 182.49609 65.884375 181.48342 66.49732 180.60398 C 67.136914 179.67123 67.483306 178.65834 67.483306 177.53905 C 67.483306 175.91341 66.843676 174.63408 65.617787 173.67469 C 64.551797 172.8752 63.246176 172.44892 61.673842 172.44892 z M 28.761122 173.38168 C 30.253507 173.38168 31.372791 174.34137 32.172283 176.20683 C 32.838528 177.80582 33.211496 179.93742 33.211496 182.54908 C 33.211496 185.00086 32.865325 187.02628 32.252382 188.57197 C 31.42624 190.59735 30.306806 191.61003 28.761122 191.61003 C 27.242085 191.61003 26.096004 190.62406 25.269862 188.7053 C 24.603619 187.10631 24.257521 185.02781 24.257521 182.52273 C 24.257521 179.48466 24.710447 177.13956 25.669838 175.46063 C 26.44268 174.07484 27.481933 173.38168 28.761122 173.38168 z M 299.30998 173.96821 L 304.66624 173.96821 C 303.94671 175.354 303.06772 176.65954 302.05503 177.96538 C 301.06901 176.89939 300.16277 175.5672 299.30998 173.96821 z M 290.51517 174.12789 L 294.64618 174.12789 C 293.50026 176.63297 291.95432 178.79179 290.08884 180.60398 C 290.14214 180.47073 290.16894 180.31046 290.16894 180.12391 C 290.16894 179.29777 289.31624 178.49859 287.63731 177.8057 C 288.25025 177.19275 288.78314 176.60636 289.23618 175.99341 C 290.03568 176.47311 290.59535 177.08593 290.91515 177.77883 C 291.1017 178.20523 291.34155 178.39171 291.66135 178.39171 C 292.14104 178.39171 292.38069 178.099 292.38069 177.5127 C 292.38069 176.63326 291.4747 175.94009 289.66251 175.43375 C 290.08891 174.82082 290.35527 174.39438 290.51517 174.12789 z M 371.05134 174.74077 C 370.81149 174.74077 370.65136 174.9009 370.65136 175.14075 L 370.65136 192.75621 L 365.64133 192.75621 C 365.40149 192.75621 365.24136 192.91583 365.24136 193.15567 L 365.24136 193.52877 C 365.24136 193.76862 365.40149 193.92875 365.64133 193.92875 L 371.42444 193.92875 C 371.66429 193.92875 371.8239 193.76862 371.8239 193.52877 L 371.8239 175.14075 C 371.8239 174.9009 371.66429 174.74077 371.42444 174.74077 L 371.05134 174.74077 z M 195.10239 175.20741 C 195.00245 175.21407 194.90908 175.26038 194.84246 175.35366 L 194.06989 176.20683 L 185.6487 176.20683 C 185.24895 176.02028 184.84904 175.83342 184.44929 175.67353 C 184.15614 175.56693 183.86277 175.78029 183.86277 176.12674 L 183.86277 181.13677 C 183.86277 181.37662 184.02289 181.53674 184.26274 181.53674 L 184.92885 181.53674 C 185.16869 181.53674 185.32883 181.37662 185.32883 181.13677 L 185.32883 180.44379 L 194.30967 180.44379 L 194.30967 181.05667 C 194.30967 181.29652 194.4698 181.45664 194.70965 181.45664 L 195.37576 181.45664 C 195.6156 181.45664 195.77522 181.29652 195.77522 181.05667 L 195.77522 177.3525 L 196.41497 176.95304 C 196.57487 176.84644 196.65475 176.73976 196.65475 176.63316 C 196.65475 176.41998 196.22825 175.96667 195.40211 175.30043 C 195.30884 175.2338 195.20233 175.20075 195.10239 175.20741 z M 160.68072 176.15671 C 160.57079 176.1667 160.46456 176.22001 160.38461 176.31329 L 159.66476 177.24605 L 154.81441 177.24605 C 154.52126 177.0595 154.17517 176.87294 153.80207 176.68639 C 153.42897 176.49984 153.05586 176.71271 153.05586 177.08585 L 153.05586 183.24206 C 153.05586 187.47938 152.38949 190.78384 151.05702 193.15567 C 150.95042 193.34222 150.97731 193.5555 151.13711 193.6621 C 151.29701 193.79535 151.53666 193.79542 151.6699 193.60887 C 153.42879 191.42361 154.38808 188.30569 154.57463 184.25492 L 159.87818 184.25492 L 159.87818 185.64088 C 159.87818 185.88073 160.03779 186.04034 160.27764 186.04034 L 160.99749 186.04034 C 161.23734 186.04034 161.39695 185.88073 161.39695 185.64088 L 161.39695 178.33849 L 161.98348 177.96538 C 162.11673 177.85878 162.19639 177.75211 162.19639 177.64551 C 162.19639 177.40566 161.79699 176.95296 160.99749 176.26006 C 160.90422 176.18011 160.79065 176.14671 160.68072 176.15671 z M 340.16382 176.36651 L 342.50941 176.36651 L 342.50941 183.18884 L 340.16382 183.18884 L 340.16382 176.36651 z M 344.00131 176.36651 L 346.48023 176.36651 L 346.48023 183.18884 L 344.00131 183.18884 L 344.00131 176.36651 z M 237.96179 176.39339 L 247.55604 176.39339 C 246.70324 179.83119 245.31737 182.78906 243.45189 185.29414 C 241.23997 182.86901 239.40088 179.91114 237.96179 176.39339 z M 217.49999 176.64505 C 217.32011 176.6413 217.15533 176.74628 217.09536 176.92617 C 216.18927 179.298 215.01659 181.26997 213.55088 182.86896 C 213.39098 183.05551 213.3908 183.26901 213.524 183.40226 C 213.65725 183.53551 213.87053 183.56192 214.03043 183.42862 C 215.86927 182.04283 217.28164 180.33745 218.24103 178.36536 C 219.04052 178.33866 219.41357 178.20523 219.41357 177.96538 C 219.41357 177.64558 218.82732 177.24603 217.68137 176.68639 C 217.62141 176.65974 217.55995 176.6463 217.49999 176.64505 z M 222.62577 176.67606 C 222.5097 176.6719 222.4118 176.71984 222.34517 176.81972 C 222.23857 176.97962 222.29174 177.16602 222.45162 177.29927 C 224.15721 178.65841 225.35667 180.07093 226.07621 181.58997 C 226.34271 182.14962 226.68911 182.44263 227.0622 182.44263 C 227.6485 182.44263 227.94173 182.09602 227.94173 181.42977 C 227.94173 180.84348 227.5421 180.17771 226.71596 179.37822 C 225.75658 178.44547 224.47723 177.56576 222.8516 176.73962 C 222.77165 176.69964 222.69542 176.67855 222.62577 176.67606 z M 185.32883 176.87294 L 194.30967 176.87294 L 194.30967 179.77768 L 185.32883 179.77768 L 185.32883 176.87294 z M 154.6015 177.91216 L 159.87818 177.91216 L 159.87818 183.58881 L 154.6015 183.58881 L 154.6015 177.91216 z M 108.44411 178.57827 L 113.74715 178.57827 L 113.74715 181.74965 L 108.44411 181.74965 L 108.44411 178.57827 z M 300.12544 179.90687 C 299.99791 179.8962 299.87281 179.94439 299.78954 180.04433 L 298.77668 181.27009 L 292.48766 181.27009 C 292.11456 181.27009 291.84777 181.48322 291.95436 181.69642 C 292.00766 181.85632 292.14099 181.9362 292.27424 181.9362 L 301.30883 181.9362 C 301.41543 181.9362 301.52188 181.88312 301.60183 181.77652 L 301.68193 181.6432 C 301.78853 181.50995 301.76166 181.32324 301.65506 181.18999 C 301.22866 180.73695 300.7756 180.33755 300.3492 179.9911 C 300.27924 179.94113 300.20195 179.91327 300.12544 179.90687 z M 78.063022 180.49701 L 83.4999 180.49701 L 83.4999 186.70645 L 78.063022 186.70645 L 78.063022 180.49701 z M 223.41642 181.14917 C 223.23654 181.14542 223.07124 181.24988 223.01128 181.42977 C 222.37169 183.45516 221.62553 185.08081 220.90598 186.33335 C 220.87938 186.38665 220.85283 186.4666 220.79953 186.5199 C 219.86679 185.48056 218.88077 183.9886 217.76147 182.04317 C 217.62823 181.82997 217.41524 181.75002 217.22869 181.85662 C 217.04214 181.96322 216.96189 182.17599 217.06849 182.36253 C 218.00123 184.30797 219.01397 186.04066 220.05332 187.5064 C 218.29443 189.93153 215.89596 191.85005 212.8579 193.18254 C 212.56475 193.31579 212.43164 193.55587 212.56489 193.76907 C 212.67149 193.90232 212.83132 193.98205 212.99122 193.92875 C 216.40239 192.75616 219.06751 191.02412 221.01295 188.67894 C 222.74519 190.59772 224.77026 192.16978 227.11542 193.42232 C 227.30197 193.52892 227.51525 193.44885 227.62185 193.289 C 227.8084 193.0225 227.9686 192.78256 228.15515 192.59601 C 228.39499 192.32953 228.34162 191.98335 228.02183 191.82345 C 225.46345 190.67751 223.35815 189.26491 221.75916 187.58598 C 222.87846 185.93371 223.70427 184.33498 224.26392 182.84261 C 224.98346 182.78931 225.33 182.65612 225.33 182.41627 C 225.33 182.12313 224.7704 181.74964 223.59781 181.18999 C 223.53785 181.16334 223.47639 181.15042 223.41642 181.14917 z M 198.93678 181.69642 C 198.84017 181.70308 198.74709 181.74982 198.68047 181.82975 L 197.88051 182.70928 L 181.75747 182.70928 C 181.46432 182.54938 181.09112 182.36274 180.69138 182.20285 C 180.29163 182.04295 179.94518 182.25587 179.94518 182.60231 L 179.94518 193.68897 C 179.94518 193.92882 180.1053 194.08843 180.34515 194.08843 L 181.06449 194.08843 C 181.30434 194.08843 181.46446 193.92882 181.46446 193.68897 L 181.46446 183.37539 L 198.14717 183.37539 L 198.14717 190.99715 C 198.14717 191.237 198.09379 191.42385 198.01384 191.53045 C 197.85394 191.66369 197.40123 191.74335 196.62839 191.74335 C 195.74896 191.74335 194.86931 191.7169 193.93657 191.6369 C 193.67007 191.6103 193.48337 191.74358 193.48337 191.95678 C 193.48337 192.16998 193.64327 192.32959 193.85647 192.35624 C 195.13566 192.48949 195.9617 192.67634 196.3881 192.88954 C 196.68125 193.02278 196.86782 193.23592 196.94776 193.50242 C 197.00106 193.68897 197.13453 193.8223 197.34773 193.8223 C 198.89342 193.7157 199.66645 192.99573 199.66645 191.66326 L 199.66645 183.96192 L 200.35892 183.50871 C 200.49217 183.40211 200.57234 183.29544 200.57234 183.18884 C 200.57234 182.97564 200.11934 182.49575 199.21325 181.80288 C 199.1333 181.72293 199.03339 181.68977 198.93678 181.69642 z M 304.15 183.63946 C 304.03444 183.63112 303.91352 183.68516 303.81358 183.80172 L 302.72114 185.08071 L 287.45076 185.08071 C 287.10431 185.08071 286.86438 185.29436 286.94433 185.50756 C 286.99763 185.66746 287.13066 185.74734 287.29056 185.74734 L 295.6854 185.74734 L 295.6854 190.97079 C 295.6854 191.47714 295.36581 191.74335 294.77951 191.74335 C 293.92672 191.74335 292.94032 191.66374 291.82103 191.53045 C 291.55453 191.50385 291.34148 191.63661 291.34148 191.84981 C 291.34148 192.03636 291.4748 192.19626 291.66135 192.22291 C 292.72734 192.43611 293.42028 192.64932 293.71343 192.78257 C 294.13981 192.96911 294.43292 193.23577 294.51286 193.60887 C 294.56616 193.82207 294.69934 193.98176 294.93919 193.95511 C 296.45823 193.87521 297.23104 193.15565 297.23104 191.84981 L 297.23104 185.74734 L 305.4662 185.74734 C 305.59945 185.74734 305.70561 185.69404 305.78556 185.56079 L 305.86565 185.42746 C 305.94555 185.29421 305.91903 185.1075 305.81243 184.97426 C 305.35938 184.52121 304.85323 184.12137 304.34688 183.72162 C 304.28692 183.67166 304.21933 183.64445 304.15 183.63946 z M 116.53561 184.02858 C 116.43234 184.03524 116.33237 184.08155 116.25242 184.17482 L 115.53309 185.00113 L 103.94 185.00113 C 103.5669 185.00113 103.30061 185.21448 103.40721 185.45433 C 103.48711 185.58758 103.59384 185.66724 103.72709 185.66724 L 105.77916 185.66724 C 107.3515 187.55938 108.87047 188.99846 110.36286 190.01116 C 108.07098 191.45025 105.13919 192.56983 101.51482 193.39597 C 101.16837 193.47587 100.98211 193.71555 101.11536 193.92875 C 101.19526 194.062 101.32857 194.14195 101.48847 194.1153 C 105.43262 193.55565 108.81721 192.48946 111.66872 190.86382 C 113.69411 192.00976 116.46547 192.96913 119.95659 193.71533 C 120.14314 193.74193 120.30297 193.66232 120.38292 193.50242 C 120.48952 193.31587 120.62301 193.10243 120.7829 192.91589 C 121.07603 192.56944 120.94271 192.11631 120.46302 192.03636 C 117.39829 191.55667 114.86665 190.89089 112.84126 189.9848 C 114.5735 188.81223 116.03917 187.55938 117.23841 186.22689 L 117.98462 185.96024 C 118.19781 185.88024 118.30449 185.77384 118.30449 185.66724 C 118.30449 185.42739 117.79783 184.9211 116.83843 184.1216 C 116.74516 184.05497 116.63888 184.02192 116.53561 184.02858 z M 193.70609 184.59754 C 193.58507 184.58687 193.46019 184.63454 193.37691 184.73448 L 192.63071 185.53391 L 186.74114 185.53391 C 186.52794 185.42731 186.23493 185.26748 185.88848 185.10758 C 185.43543 184.89439 184.98208 185.05436 184.98208 185.42746 L 184.98208 191.02402 C 184.98208 191.26387 185.1422 191.42348 185.38205 191.42348 L 186.07503 191.42348 C 186.31487 191.42348 186.47449 191.26387 186.47449 191.02402 L 186.47449 189.87783 L 192.87048 189.87783 L 192.87048 190.30417 C 192.87048 190.544 193.03061 190.70414 193.27046 190.70414 L 193.9097 190.70414 C 194.14955 190.70414 194.30967 190.544 194.30967 190.30417 L 194.30967 186.70645 L 195.02901 186.28012 C 195.16226 186.20022 195.21556 186.12059 195.21556 186.01399 C 195.21556 185.77414 194.78914 185.34749 193.9097 184.68125 C 193.84974 184.63128 193.7787 184.60394 193.70609 184.59754 z M 106.81837 185.66724 L 115.50621 185.66724 C 114.49354 186.91978 113.16111 188.14588 111.48217 189.29182 C 109.85654 188.35908 108.31076 187.15963 106.81837 185.66724 z M 186.47449 186.20054 L 192.87048 186.20054 L 192.87048 189.21173 L 186.47449 189.21173 L 186.47449 186.20054 z M 290.59424 187.124 C 290.47686 187.12219 290.36889 187.17642 290.30226 187.29298 C 288.80989 189.42496 287.05074 191.10392 284.99871 192.38311 C 284.78551 192.48971 284.70578 192.72964 284.83903 192.88954 L 284.8659 192.91589 C 284.9458 193.07578 285.13205 193.12917 285.31859 193.04922 C 287.66378 192.08983 289.68926 190.70395 291.28825 188.94507 C 291.44815 188.94507 291.66129 188.97195 291.90113 188.97195 C 292.35418 188.97195 292.56724 188.86527 292.56724 188.65207 C 292.56724 188.30562 291.98128 187.79947 290.80869 187.18653 C 290.73874 187.14655 290.66466 187.12508 290.59424 187.124 z M 300.08151 187.30383 C 299.95284 187.31132 299.84261 187.38644 299.76267 187.5064 C 299.65607 187.69294 299.73598 187.90594 299.94922 188.03919 C 302.26776 189.29173 303.97379 190.65094 305.09309 192.14333 C 305.30628 192.48978 305.59908 192.64976 305.91888 192.64976 C 306.50517 192.64976 306.82529 192.32973 306.82529 191.69013 C 306.82529 191.10384 306.39887 190.49107 305.51942 189.85148 C 304.24023 188.89209 302.4811 188.06604 300.21587 187.31985 C 300.16923 187.30653 300.1244 187.30134 300.08151 187.30383 z "
     transform="translate(-0.8636,-49.146373)"
     inkscape:label="path" />
</svg>
