<?xml version="1.0" encoding="UTF-8" standalone="no"?>
<!-- Created with Inkscape (http://www.inkscape.org/) -->

<svg
   width="283.41318mm"
   height="36.880428mm"
   viewBox="0 0 283.41318 36.880428"
   version="1.1"
   id="svg5"
   inkscape:version="1.2.1 (9c6d41e410, 2022-07-14)"
   sodipodi:docname="hero-date.svg"
   xmlns:inkscape="http://www.inkscape.org/namespaces/inkscape"
   xmlns:sodipodi="http://sodipodi.sourceforge.net/DTD/sodipodi-0.dtd"
   xmlns="http://www.w3.org/2000/svg"
   xmlns:svg="http://www.w3.org/2000/svg">
  <sodipodi:namedview
     id="namedview7"
     pagecolor="#505050"
     bordercolor="#ffffff"
     borderopacity="1"
     inkscape:showpageshadow="0"
     inkscape:pageopacity="0"
     inkscape:pagecheckerboard="1"
     inkscape:deskcolor="#505050"
     inkscape:document-units="mm"
     showgrid="false"
     inkscape:zoom="0.73851712"
     inkscape:cx="699.37444"
     inkscape:cy="135.40648"
     inkscape:window-width="1920"
     inkscape:window-height="1009"
     inkscape:window-x="-8"
     inkscape:window-y="-8"
     inkscape:window-maximized="1"
     inkscape:current-layer="svg5" />
  <defs
     id="defs2" />
  <path
     id="path548"
     style="font-weight:normal;font-size:50.8px;font-family:Jost;-inkscape-font-specification:Jost;stroke-width:0.264583"
     d="M 13.665315,0 C 11.226921,0 9.1270217,0.54149 7.3659587,1.62522 5.6387621,2.67509 4.3183248,4.16535 3.4039266,6.09575 2.4895285,7.99228 2.0319173,10.21064 2.0319173,12.75064 H 6.35 c 0,-1.79493 0.287781,-3.33605 0.8635132,-4.62297 0.5757321,-1.3208 1.4055227,-2.3199 2.4892537,-2.99724 1.1175981,-0.7112 2.4385521,-1.0666 3.9625481,-1.0666 1.083732,0 2.048766,0.18609 2.895431,0.55862 0.846665,0.37254 1.557987,0.8637 2.13372,1.4733 0.609598,0.6096 1.066694,1.28685 1.371492,2.03192 0.3048,0.74506 0.457337,1.50723 0.457337,2.28616 0,0.94827 -0.152537,1.86245 -0.457337,2.74299 -0.270932,0.84666 -0.693957,1.69374 -1.26969,2.54041 -0.541865,0.8128 -1.202343,1.64259 -1.981274,2.48925 L 0,36.11872 H 25.095109 V 32.05489 H 8.8898967 L 20.218404,20.52329 c 1.38853,-1.4224 2.523395,-3.03113 3.403926,-4.82606 0.880532,-1.79493 1.32085,-3.60706 1.32085,-5.43584 0,-1.08374 -0.220159,-2.21808 -0.660425,-3.40341 C 23.84249,5.67264 23.164719,4.57185 22.250321,3.55585 21.335923,2.50599 20.167505,1.65941 18.745109,1.01596 17.322711,0.33862 15.629578,0 13.665315,0 Z m 59.385006,0 c -2.438396,0 -4.537777,0.54149 -6.29884,1.62522 -1.727198,1.04987 -3.048151,2.54013 -3.962549,4.47053 -0.914398,1.89653 -1.371493,4.11489 -1.371493,6.65489 h 4.318083 c 0,-1.79493 0.287781,-3.33605 0.863513,-4.62297 0.575733,-1.3208 1.405523,-2.3199 2.489254,-2.99724 1.117598,-0.7112 2.438036,-1.0666 3.962032,-1.0666 1.083731,0 2.049283,0.18609 2.895947,0.55862 0.846665,0.37254 1.557988,0.8637 2.13372,1.4733 0.6096,0.6096 1.066693,1.28685 1.371493,2.03192 0.304798,0.74506 0.457336,1.50723 0.457336,2.28616 0,0.94827 -0.152538,1.86245 -0.457336,2.74299 -0.270933,0.84666 -0.694475,1.69374 -1.270207,2.54041 -0.541865,0.8128 -1.202343,1.64259 -1.981274,2.48925 L 59.385522,36.11872 H 84.480631 V 32.05489 H 68.275419 l 11.328507,-11.5316 c 1.388531,-1.4224 2.522879,-3.03113 3.40341,-4.82606 0.880531,-1.79493 1.32085,-3.60706 1.32085,-5.43584 0,-1.08374 -0.22016,-2.21808 -0.660425,-3.40341 C 83.227495,5.67264 82.550242,4.57185 81.635844,3.55585 80.721444,2.50599 79.553029,1.65941 78.130631,1.01596 76.708235,0.33862 75.014584,0 73.050321,0 Z m 28.905209,0 c -2.438391,0 -4.537774,0.54149 -6.298837,1.62522 -1.727196,1.04987 -3.048151,2.54013 -3.962549,4.47053 -0.914398,1.89653 -1.371492,4.11489 -1.371492,6.65489 h 4.318082 c 0,-1.79493 0.287781,-3.33605 0.863514,-4.62297 0.575731,-1.3208 1.405522,-2.3199 2.489253,-2.99724 1.117598,-0.7112 2.438039,-1.0666 3.962029,-1.0666 1.08374,0 2.04929,0.18609 2.89595,0.55862 0.84667,0.37254 1.55799,0.8637 2.13372,1.4733 0.6096,0.6096 1.0667,1.28685 1.3715,2.03192 0.30478,0.74506 0.45733,1.50723 0.45733,2.28616 0,0.94827 -0.15255,1.86245 -0.45733,2.74299 -0.27094,0.84666 -0.69448,1.69374 -1.27021,2.54041 -0.54187,0.8128 -1.20234,1.64259 -1.98128,2.48925 L 88.290734,36.11872 H 113.38585 V 32.05489 H 97.180631 l 11.328509,-11.5316 c 1.38853,-1.4224 2.52288,-3.03113 3.40341,-4.82606 0.88053,-1.79493 1.32085,-3.60706 1.32085,-5.43584 0,-1.08374 -0.22017,-2.21808 -0.66042,-3.40341 -0.44027,-1.18534 -1.11752,-2.28613 -2.03192,-3.30213 -0.9144,-1.04986 -2.08283,-1.89644 -3.50521,-2.53989 C 105.61345,0.33862 103.9198,0 101.95553,0 Z M 43.12915,0.0506 c -2.607728,0 -4.910493,0.79572 -6.908622,2.38745 -1.964263,1.55787 -3.505376,3.70862 -4.622974,6.4518 -1.117598,2.7432 -1.676383,5.89254 -1.676383,9.44852 0,3.556 0.558785,6.70584 1.676383,9.44904 1.117598,2.7432 2.658711,4.91072 4.622974,6.50244 1.998129,1.55787 4.300894,2.33681 6.908622,2.33681 2.607728,0 4.893717,-0.77894 6.857979,-2.33681 1.99813,-1.59172 3.556019,-3.75924 4.673617,-6.50244 1.117598,-2.7432 1.676383,-5.89304 1.676383,-9.44904 0,-3.55598 -0.558785,-6.70532 -1.676383,-9.44852 C 53.543148,6.14667 51.985259,3.99592 49.987129,2.43805 48.022867,0.84632 45.736878,0.0506 43.12915,0.0506 Z m 102.92085,0 c -2.26906,0 -4.31761,0.50794 -6.14639,1.52394 -1.8288,1.016 -3.28551,2.43864 -4.36925,4.26744 -1.04985,1.8288 -1.57458,3.96224 -1.57458,6.40064 0,1.6256 0.27101,3.14943 0.81287,4.57181 0.54187,1.38854 1.28674,2.6078 2.23501,3.65766 0.98213,1.04987 2.0997,1.86288 3.35277,2.43861 1.28693,0.57574 2.65873,0.86352 4.11499,0.86352 1.15147,0 2.16734,-0.13525 3.04788,-0.40618 0.32015,-0.0949 0.62564,-0.22575 0.91674,-0.39119 l -9.95909,13.14183 h 5.43585 l 11.98841,-16.5101 c 0.67734,-0.94827 1.21934,-2.04907 1.62574,-3.30212 0.4064,-1.25307 0.60979,-2.60757 0.60979,-4.06384 0,-2.4384 -0.54202,-4.57184 -1.62574,-6.40064 -1.04987,-1.8288 -2.48929,-3.25144 -4.31809,-4.26744 C 150.40199,0.55854 148.35293,0.0506 146.05,0.0506 Z m 40.94479,0 c -2.26907,0 -4.3176,0.50794 -6.1464,1.52394 -1.82878,1.016 -3.28551,2.43864 -4.36924,4.26744 -1.04986,1.8288 -1.57458,3.96224 -1.57458,6.40064 0,1.6256 0.27101,3.14943 0.81287,4.57181 0.54187,1.38854 1.28674,2.6078 2.23501,3.65766 0.98213,1.04987 2.09971,1.86288 3.35276,2.43861 1.28694,0.57574 2.65873,0.86352 4.115,0.86352 1.15146,0 2.16735,-0.13525 3.04787,-0.40618 0.32016,-0.0949 0.62565,-0.22575 0.91674,-0.39119 l -9.95908,13.14183 h 5.43585 L 196.85,19.60858 c 0.67733,-0.94827 1.21934,-2.04907 1.62574,-3.30212 0.4064,-1.25307 0.60978,-2.60757 0.60978,-4.06384 0,-2.4384 -0.542,-4.57184 -1.62574,-6.40064 -1.04986,-1.8288 -2.48928,-3.25144 -4.31808,-4.26744 -1.79493,-1.016 -3.84398,-1.52394 -6.14691,-1.52394 z m 61.36628,0 -12.19202,3.04788 V 7.569 l 7.87445,-2.3368 v 30.88648 h 4.31757 z m 21.84414,0 c -2.60772,0 -4.91049,0.79572 -6.90862,2.38745 -1.96426,1.55787 -3.50537,3.70862 -4.62297,6.4518 -1.1176,2.7432 -1.67639,5.89254 -1.67639,9.44852 0,3.556 0.55879,6.70584 1.67639,9.44904 1.1176,2.7432 2.65871,4.91072 4.62297,6.50244 1.99813,1.55787 4.3009,2.33681 6.90862,2.33681 2.60773,0 4.89373,-0.77894 6.85798,-2.33681 1.99813,-1.59172 3.55602,-3.75924 4.67362,-6.50244 1.1176,-2.7432 1.67638,-5.89304 1.67638,-9.44904 0,-3.55598 -0.55878,-6.70532 -1.67638,-9.44852 -1.1176,-2.74318 -2.67549,-4.89393 -4.67362,-6.4518 C 275.09894,0.84632 272.81294,0.0506 270.20521,0.0506 Z M 146.05,3.96199 c 1.524,0 2.87902,0.35592 4.06435,1.06712 1.2192,0.7112 2.16746,1.69301 2.84479,2.94607 0.7112,1.2192 1.0666,2.64184 1.0666,4.26744 0,1.6256 -0.3554,3.06502 -1.0666,4.31808 -0.67733,1.25307 -1.62559,2.25217 -2.84479,2.99724 -1.18533,0.7112 -2.54035,1.0666 -4.06435,1.0666 -1.524,0 -2.89528,-0.3554 -4.11448,-1.0666 -1.18532,-0.74507 -2.13358,-1.74417 -2.84478,-2.99724 -0.67734,-1.25306 -1.01596,-2.69248 -1.01596,-4.31808 0,-1.6256 0.33862,-3.04824 1.01596,-4.26744 0.7112,-1.25306 1.65946,-2.23487 2.84478,-2.94607 1.2192,-0.7112 2.59048,-1.06712 4.11448,-1.06712 z m 40.94479,0 c 1.524,0 2.87902,0.35592 4.06435,1.06712 1.2192,0.7112 2.16746,1.69301 2.84479,2.94607 0.7112,1.2192 1.0666,2.64184 1.0666,4.26744 0,1.6256 -0.3554,3.06502 -1.0666,4.31808 -0.67733,1.25307 -1.62559,2.25217 -2.84479,2.99724 -1.18533,0.7112 -2.54035,1.0666 -4.06435,1.0666 -1.524,0 -2.89528,-0.3554 -4.11448,-1.0666 -1.18533,-0.74507 -2.13359,-1.74417 -2.84479,-2.99724 -0.67733,-1.25306 -1.01595,-2.69248 -1.01595,-4.31808 0,-1.6256 0.33862,-3.04824 1.01595,-4.26744 0.7112,-1.25306 1.65946,-2.23487 2.84479,-2.94607 1.2192,-0.7112 2.59048,-1.06712 4.11448,-1.06712 z M 43.12915,4.11443 c 1.388531,0 2.625086,0.35592 3.708818,1.06712 1.08373,0.67734 2.014696,1.65914 2.793627,2.94608 0.778933,1.25305 1.371787,2.7601 1.778187,4.52117 0.406398,1.7272 0.609781,3.62371 0.609781,5.68957 0,2.06587 -0.203383,3.97967 -0.609781,5.74074 -0.4064,1.7272 -0.999254,3.23424 -1.778187,4.52117 -0.778931,1.25306 -1.709897,2.23539 -2.793627,2.94659 -1.083732,0.67733 -2.320287,1.01596 -3.708818,1.01596 -1.354664,0 -2.590703,-0.33863 -3.708301,-1.01596 -1.083731,-0.7112 -2.015213,-1.69353 -2.794144,-2.94659 -0.778933,-1.28693 -1.37127,-2.79397 -1.77767,-4.52117 -0.406398,-1.76107 -0.609782,-3.67487 -0.609782,-5.74074 0,-2.06586 0.203384,-3.96237 0.609782,-5.68957 0.4064,-1.76107 0.998737,-3.26812 1.77767,-4.52117 0.778931,-1.28694 1.710413,-2.26874 2.794144,-2.94608 1.117598,-0.7112 2.353637,-1.06712 3.708301,-1.06712 z m 227.07606,0 c 1.38854,0 2.62458,0.35592 3.7083,1.06712 1.08374,0.67734 2.01522,1.65914 2.79415,2.94608 0.77893,1.25305 1.37179,2.7601 1.77819,4.52117 0.4064,1.7272 0.60926,3.62371 0.60926,5.68957 0,2.06587 -0.20286,3.97967 -0.60926,5.74074 -0.4064,1.7272 -0.99926,3.23424 -1.77819,4.52117 -0.77893,1.25306 -1.71041,2.23539 -2.79415,2.94659 -1.08372,0.67733 -2.31976,1.01596 -3.7083,1.01596 -1.35465,0 -2.5907,-0.33863 -3.7083,-1.01596 -1.08373,-0.7112 -2.01521,-1.69353 -2.79414,-2.94659 -0.77893,-1.28693 -1.37127,-2.79397 -1.77767,-4.52117 -0.4064,-1.76107 -0.60978,-3.67487 -0.60978,-5.74074 0,-2.06586 0.20338,-3.96237 0.60978,-5.68957 0.4064,-1.76107 0.99874,-3.26812 1.77767,-4.52117 0.77893,-1.28694 1.71041,-2.26874 2.79414,-2.94608 1.1176,-0.7112 2.35365,-1.06712 3.7083,-1.06712 z m -57.81972,8.12664 v 7.03936 7.03885 l 6.09627,-3.51968 6.09626,-3.51917 -6.09626,-3.51968 z m -88.58581,19.05155 c -0.74507,0 -1.40554,0.271 -1.98127,0.81287 -0.54187,0.54187 -0.81236,1.20234 -0.81236,1.98128 0,0.74505 0.27049,1.40554 0.81236,1.98127 0.57573,0.54187 1.2362,0.81235 1.98127,0.81235 0.77893,0 1.43942,-0.27048 1.98127,-0.81235 0.54187,-0.57573 0.81287,-1.23622 0.81287,-1.98127 0,-0.77894 -0.271,-1.43941 -0.81287,-1.98128 -0.54185,-0.54187 -1.20234,-0.81287 -1.98127,-0.81287 z m 40.94479,0 c -0.74507,0 -1.40554,0.271 -1.98128,0.81287 -0.54186,0.54187 -0.81235,1.20234 -0.81235,1.98128 0,0.74505 0.27049,1.40554 0.81235,1.98127 0.57574,0.54187 1.23621,0.81235 1.98128,0.81235 0.77893,0 1.43941,-0.27048 1.98127,-0.81235 0.54187,-0.57573 0.81287,-1.23622 0.81287,-1.98127 0,-0.77894 -0.271,-1.43941 -0.81287,-1.98128 -0.54186,-0.54187 -1.20234,-0.81287 -1.98127,-0.81287 z"
     inkscape:label="path" />
</svg>
