<?xml version="1.0" encoding="UTF-8" standalone="no"?>
<svg
   width="340"
   height="117"
   version="1.1"
   id="svg4"
   xmlns="http://www.w3.org/2000/svg"
   xmlns:svg="http://www.w3.org/2000/svg">
  <defs
     id="defs8" />
  <path
     style="stroke:none;fill:#000000;"
     d="m 30,0 c 0.537,4.347 -0.192,8.752 0.414,13 0.373,2.614 1.851,5.234 0.939,7.907 C 30.164,24.395 26.042,26.134 23,27.625 15.553,31.274 8.263,32.999 0,33 c 2.9068,3.582 6.7135,7.051 11,8.912 3.027,1.314 7.145,0.925 8.933,4.236 C 22.544,50.984 18.248,58.801 16.7,63.424 12.167,76.957 5.8567,89.654 1,103 5.2911,100.419 7.605,96.193 10.215,92 17.471,80.344 21.683,62.208 33,54 c 0,5.956 -0.394,12.068 0.17,18 0.298,3.135 1.551,6.844 -0.199,9.775 C 30.955,85.155 26.53,85.689 23,86 c 3.684,3.154 7.227,3.947 12,4 0.13,6.116 1.983,11.84 2,18 -6.367,-0.889 -9.196,-6.329 -14,-10 2.336,9.802 11.005,15.703 21,16 -2.917,-8.027 -6.601,-15.266 -7,-24 8.156,-0.174 15.94,-3.198 24,-4 -6.105,-6.405 -16.017,-4.63 -24,-4 0,-7.533 0.49,-14.552 1.572,-22 0.638,-4.391 0.237,-7.689 4.428,-10 6.367,16.552 21.916,25.653 37,33 5.915,2.881 11.343,6.45 18,7 C 93.135,80.103 78.536,77.15 69.845,71.405 62.618,66.628 58.695,58.045 54.062,51 52.094,48.006 44.042,40 45.921,36.317 47.144,33.919 51.672,33.335 54,32.707 61.429,30.703 71.092,31.348 74,23 69.099,22.17 62.939,18.797 58,19.446 53.602,20.024 50.703,23.646 46,24 45.807,19.202 47.162,11.591 44.91,7.34 42.306,2.423 34.913,1.127 30,0 m 223,3 c -0.231,7.961 -4.572,11.255 -8.186,17.553 -1.267,2.208 -1.351,4.881 -2.578,7.122 -1.244,2.274 -3.083,3.983 -4.236,6.325 4.978,-1.884 9.318,-5.853 14.995,-4.602 3.337,0.735 6.146,2.965 4.374,6.559 -2.427,4.919 -8.613,3.538 -11.369,8.043 5.836,2.962 3.465,7.184 0.819,12.004 C 242.669,63.565 235.904,69.555 232,77 c 6.23,-1.241 10.128,-5.709 13.91,-10.576 7.287,-9.376 12.784,-20.411 19.166,-30.424 2.441,-3.83 5.306,-11.833 10.028,-13.226 6.388,-1.884 13.694,5.004 17.757,8.944 8.138,7.891 19.053,16.091 30.139,19.122 4.74,1.296 13.696,4.953 17,0.16 -10.039,-2.509 -21.495,-8.844 -30,-14.725 -2.484,-1.717 -7.938,-4.686 -7.944,-8.199 -0.005,-2.766 3.768,-4.818 5.48,-6.54 3.285,-3.302 6.239,-7.04 7.464,-11.536 -9.416,-2.64 -18.138,1.497 -27,5 v 2 c 2.872,0.849 10.136,0.027 11.517,3.147 0.675,1.526 -0.327,4.265 -0.517,5.853 -6.555,-1.632 -10.877,-6.63 -18,-7 l 3,-10 c -3.142,-0.896 -6.662,-3.014 -10,-2.592 -3.511,0.444 -6.201,4.168 -9.826,3.8 C 260.404,9.826 256.495,4.696 253,3 m -67,3 c -1.727,2.86 -4.451,3.921 -7,6 l 4,2 c -5.019,9.769 -12.08,18.361 -17,28 13.857,-4.774 19.056,-25.523 35,-26 -3.367,-6.219 -8.036,-8.918 -15,-10 m -62,6 c 6.674,13.687 20.315,8.484 32,7 -2.003,-2.523 -3.794,-5.549 -6.209,-7.688 C 141.621,4.079 132.981,11.284 124,12 m 144,3 c -1.189,9.532 -6.182,13.424 -15,9 2.909,-5.989 8.528,-8.588 15,-9 M 147,28 c -4.054,6.806 -8.365,2.045 -14.039,3.642 C 126.437,33.478 122.252,37.79 115,38 c 3.946,3.398 9.567,6.715 15,5.718 5.002,-0.919 8.738,-4.244 14,-4.718 0.514,2.512 1.861,5.408 1.438,7.996 C 144.541,52.47 137.803,55.871 133,57 c -0.701,-4.435 -2.647,-6.111 -7,-7 1.096,4.773 -0.143,8.288 -0.83,13 -1.616,11.086 -4.456,22.548 -10.224,32.285 -3.031,5.117 -7.478,9.326 -9.946,14.715 l 1,1 c 6.857,-1.795 9.215,-6.609 12.51,-12.424 3.779,-6.671 7.509,-13.552 10.589,-20.576 1.542,-3.516 1.876,-7.642 4.048,-10.867 C 136.356,62.372 144.236,61.006 149,58 l -1,-4 c 6.717,-3.917 6.353,-13.637 15,-15 -1.967,-6.945 -9.307,-9.96 -16,-11 m 41,23 c 0,13.093 2,25.884 2,39 0,3.617 0.32,7.418 -0.259,11 -0.366,2.265 -1.633,4.634 -1.009,6.961 0.898,3.346 4.558,5.338 7.268,7.039 -1.858,-6.117 -0.794,-11.701 -1.039,-18 -0.45,-11.573 -2.027,-26.776 1.727,-37.91 1.955,-5.798 7.651,-9.17 9.312,-15.09 h 15 c -2.72,-18.973 -26.162,-7.854 -36.95,-3.576 -2.699,1.07 -9.807,0.337 -11.332,2.198 -1.51,1.844 -0.175,4.624 1.055,6.23 3.507,4.579 9.356,2.357 14.227,2.148 m 73,3 h 10 c -2.998,5.873 -9.964,10.821 -11.88,17.039 -1.93,6.262 4.172,7.911 8.88,6.998 3.059,-0.593 5.899,-1.659 9,-2.037 0,6.33 0.114,12.671 -0.005,19 -0.053,2.837 -0.099,6.116 -3.142,7.392 -3.217,1.348 -6.747,-0.662 -9.853,-1.392 2.19,6.424 8.283,10.396 12,16 h 2 c 2.227,-5.021 4.567,-10.448 4.946,-16 0.575,-8.417 -2.186,-17.873 -0.262,-26 1.797,-7.591 10.161,-9.9 11.316,-17 -8.378,-0.983 -9.661,2.692 -16.129,6.674 -4.519,2.782 -9.935,5.399 -14.871,7.326 4.086,-7.876 11.793,-13.118 19,-17.947 3.092,-2.071 9.523,-5.895 10.079,-9.959 0.573,-4.19 -4.743,-3.459 -7.078,-2.653 -5.905,2.035 -11.491,4.259 -17.09,7.021 -3.187,1.572 -5.69,2.05 -6.911,5.538 M 161,46 c 1.48,2.394 3.954,4.22 4.683,7.043 2.281,8.83 -2.1,22.946 -5.762,30.957 -2.011,4.4 -4.832,8.252 -5.921,13 4.158,-2.124 6.582,-5.987 8.897,-10 C 169.622,75.338 179.995,50.422 161,46 m 146,42 c 0.812,5.965 5.236,10.26 10,13.696 2.086,1.504 5.925,3.252 7.933,0.561 C 326.886,99.638 324.56,93.886 324,91 l -17,-3 m -70,6 c 2.141,6.214 5.628,10.107 12,12 0.311,-3.124 1.198,-5.972 2,-9 -4.796,-0.623 -9.206,-2.682 -14,-3 z"
     id="path2" />
</svg>
