<?xml version="1.0" encoding="UTF-8" standalone="no"?>
<svg
   xmlns:dc="http://purl.org/dc/elements/1.1/"
   xmlns:cc="http://creativecommons.org/ns#"
   xmlns:rdf="http://www.w3.org/1999/02/22-rdf-syntax-ns#"
   xmlns:svg="http://www.w3.org/2000/svg"
   xmlns="http://www.w3.org/2000/svg"
   xmlns:sodipodi="http://sodipodi.sourceforge.net/DTD/sodipodi-0.dtd"
   xmlns:inkscape="http://www.inkscape.org/namespaces/inkscape"
   width="64mm"
   height="64mm"
   viewBox="0 0 64 64"
   version="1.1"
   id="svg8"
   inkscape:version="0.92.4 (5da689c313, 2019-01-14)"
   sodipodi:docname="logo.svg">
  <defs
     id="defs2" />
  <sodipodi:namedview
     id="base"
     pagecolor="#ffffff"
     bordercolor="#666666"
     borderopacity="1.0"
     inkscape:pageopacity="0.0"
     inkscape:pageshadow="2"
     inkscape:zoom="1.8101934"
     inkscape:cx="108.84588"
     inkscape:cy="85.371717"
     inkscape:document-units="mm"
     inkscape:current-layer="svg8"
     inkscape:document-rotation="0"
     showgrid="false"
     inkscape:pagecheckerboard="true"
     fit-margin-top="0"
     fit-margin-left="0"
     fit-margin-right="0"
     fit-margin-bottom="0"
     inkscape:window-width="1920"
     inkscape:window-height="1017"
     inkscape:window-x="1912"
     inkscape:window-y="-8"
     inkscape:window-maximized="1"
     inkscape:snap-page="true" />
  <metadata
     id="metadata5">
    <rdf:RDF>
      <cc:Work
         rdf:about="">
        <dc:format>image/svg+xml</dc:format>
        <dc:type
           rdf:resource="http://purl.org/dc/dcmitype/StillImage" />
        <dc:title></dc:title>
      </cc:Work>
    </rdf:RDF>
  </metadata>
  <path
     id="path389"
     d="m 32.222377,0 c -0.234922,-0.00638896 -0.468118,0.1435324 -0.844966,0.46927774 -0.261163,0.21573671 -0.522234,0.39742031 -0.590367,0.39742031 -0.06809,0 -0.465636,0.15896625 -0.885765,0.34064985 -0.408783,0.1930286 -0.931016,0.363358 -1.158116,0.3974203 -1.339885,0.1816744 -4.803136,0.8517479 -5.052944,0.988006 -0.136258,0.068088 -0.283915,0.1930832 -0.329333,0.2725618 -0.04545,0.090814 -0.136129,0.1587929 -0.204254,0.1587929 -0.124905,0 -0.658674,0.5223243 -1.169644,1.1354904 L 21.657646,4.5570487 20.601772,4.523096 c -1.124136,-0.045453 -2.20303,0.1135956 -2.623158,0.3861118 -0.136267,0.090814 -0.329205,0.1587929 -0.420047,0.1587929 -0.09081,0 -0.386158,0.1704116 -0.658673,0.3748033 C 16.627377,5.6471867 16.286855,5.8970404 16.127889,5.9992362 15.968923,6.1014321 15.741868,6.2830609 15.60561,6.407965 15.401219,6.6010027 14.980953,6.907499 14.220175,7.3957519 14.117979,7.4638399 13.93635,7.600235 13.811446,7.7137849 13.345892,8.1339134 12.891738,8.2814434 11.813018,8.360922 10.76837,8.4404192 10.064234,8.6675553 9.8598421,8.9741337 9.8143888,9.0423131 9.7691184,9.4623498 9.7691184,9.8938416 9.7578006,10.472937 9.6895308,10.82494 9.5078651,11.199652 9.2239948,11.79011 8.3155586,13.061904 7.7023925,13.743195 c -0.2270999,0.261172 -0.4540629,0.613212 -0.4881343,0.783541 -0.045453,0.17032 -0.1363038,0.352005 -0.2157823,0.397421 -0.1476122,0.09081 -0.6359656,0.84022 -1.056094,1.600999 -0.2611713,0.476908 -0.2952336,0.669981 -0.3406498,2.089352 -0.045453,1.691876 -0.034044,1.680522 -0.7380703,2.10066 -0.8970364,0.556387 -1.9075406,2.032435 -2.2936068,3.372318 -0.090814,0.317942 -0.2043461,1.237686 -0.2384083,2.043881 -0.079497,1.430724 -0.2951789,2.464109 -0.6926083,3.270313 -0.090814,0.181675 -0.1590119,0.374749 -0.1590119,0.442883 0,0.06809 -0.249808,0.499616 -0.56774059,0.96517 -0.71536198,1.056003 -0.74956113,1.476186 -0.19317456,2.146122 0.99924145,1.169552 1.29459355,2.111832 1.55576495,5.041404 0.1021866,1.226332 0.215691,1.794256 0.3519582,1.885097 0.05677,0.03404 0.1022324,0.136259 0.1022324,0.227101 0,0.17032 0.3860206,0.783303 0.6358378,1.010403 0.068088,0.05677 0.2042913,0.2385 0.3064872,0.386112 0.1021959,0.158966 0.488399,0.601949 0.8744652,0.988015 0.6472283,0.681291 0.6698087,0.726671 0.5449047,1.033249 -0.068179,0.17033 -0.1248219,0.908263 -0.136176,1.623625 -0.011318,1.271748 9.13e-5,1.328564 0.3748034,2.032572 0.2043917,0.408775 0.4541085,0.806241 0.5335962,0.897083 0.090814,0.07949 0.2157368,0.261161 0.2838703,0.39742 0.079497,0.124904 0.181638,0.295188 0.2384084,0.351958 0.1476122,0.181683 0.806286,1.090211 0.9993235,1.385435 0.090814,0.136259 0.4201742,0.590276 0.7267526,1.010413 0.6018121,0.828903 0.8968631,1.521603 1.010413,2.373222 0.045453,0.295225 0.1817657,0.692782 0.3180239,0.874457 0.1930377,0.272516 0.3066788,0.329113 0.7154529,0.329113 0.261163,0 0.522234,0.04554 0.590367,0.09091 0.05677,0.05676 0.374803,0.158929 0.715444,0.238408 0.794851,0.204391 1.589645,0.636011 2.055199,1.158336 0.09081,0.102195 0.374712,0.295142 0.62452,0.420045 0.249808,0.124905 0.601857,0.363313 0.783533,0.522279 0.181683,0.158966 0.397383,0.295188 0.465507,0.295188 0.0795,0 0.283835,0.136395 0.465509,0.306716 0.408774,0.386065 1.044657,0.828775 1.192269,0.828775 0.05678,0 0.192947,0.04545 0.306488,0.102241 1.180916,0.601803 1.260485,0.613249 2.589014,0.545124 l 1.271666,-0.05677 0.51097,0.465508 c 0.635874,0.601802 1.317257,1.101337 1.510294,1.101337 0.0795,0 0.15892,0.04545 0.181629,0.102232 0.04545,0.136259 2.373177,1.033258 2.668411,1.033258 0.136257,0 0.283961,0.05677 0.318023,0.11355 0.03404,0.06809 0.397466,0.113551 0.783532,0.113551 0.39742,0 0.908217,0.0795 1.123963,0.17032 0.227103,0.09081 0.522418,0.17032 0.658676,0.17032 0.124905,0 0.39733,0.06818 0.590367,0.159021 0.204382,0.09082 0.48839,0.193028 0.647365,0.227091 0.158966,0.03405 0.63592,0.295187 1.067403,0.579058 0.431491,0.283871 0.862974,0.51097 0.96517,0.51097 0.09081,0 0.567613,-0.306579 1.055875,-0.68129 0.476907,-0.374713 1.021941,-0.738024 1.192261,-0.806159 0.295233,-0.11355 1.89636,-0.431482 2.305143,-0.4542 0.09082,-0.01131 0.431483,-0.06809 0.73807,-0.124858 0.317933,-0.05678 0.669936,-0.124812 0.794841,-0.136166 0.669936,-0.102197 1.169553,-0.227274 1.41936,-0.352178 0.158976,-0.0795 0.624393,-0.204391 1.055876,-0.283879 0.420137,-0.0795 0.760915,-0.181675 0.760915,-0.227091 0,-0.04545 0.158884,-0.147576 0.363266,-0.238408 0.465554,-0.193039 0.931236,-0.658546 1.328665,-1.317128 l 0.317805,-0.545125 h 1.408052 c 1.521557,0 1.748703,-0.04536 2.770643,-0.522288 0.590458,-0.28387 1.044521,-0.567648 2.418466,-1.555527 0.545032,-0.386075 1.112782,-0.829049 1.419361,-1.101565 0.590457,-0.545033 1.192397,-0.840084 2.123504,-1.067183 0.556387,-0.136259 0.987879,-0.30667 1.07872,-0.431575 0.181675,-0.238453 0.408775,-0.897127 0.681292,-1.964493 0.204391,-0.772132 0.567657,-1.498849 1.101336,-2.157431 0.17033,-0.215745 0.318034,-0.454154 0.318034,-0.522288 0,-0.0795 0.03395,-0.15892 0.09072,-0.181629 0.102196,-0.04545 1.067357,-1.328436 1.249041,-1.669086 0.06809,-0.147612 0.136385,-0.317978 0.136385,-0.386112 0,-0.06809 0.10215,-0.238546 0.238418,-0.374804 0.124904,-0.136248 0.249844,-0.374712 0.272562,-0.51097 0.03404,-0.147612 0.102187,-0.567695 0.170321,-0.919698 0.0795,-0.442846 0.0795,-0.817467 0,-1.158117 -0.136258,-0.613166 -0.09082,-0.760824 0.329332,-1.010632 0.283879,-0.170321 1.703195,-2.077907 1.771328,-2.39584 0.01132,-0.06818 0.07941,-0.261298 0.136167,-0.420264 0.06809,-0.158966 0.181638,-0.488263 0.238408,-0.738071 0.06818,-0.238454 0.170503,-0.658591 0.238636,-0.908399 0.06809,-0.261154 0.158876,-0.794841 0.192938,-1.192262 0.05676,-0.635874 0.317896,-1.737347 0.749387,-3.224842 0.06809,-0.249808 0.204383,-0.533633 0.283871,-0.635828 0.0795,-0.09082 0.147704,-0.215655 0.147704,-0.249717 0,-0.04545 0.136212,-0.295325 0.295178,-0.545133 0.386067,-0.624511 0.306634,-1.067402 -0.351958,-1.805472 -0.283871,-0.317942 -0.544987,-0.704009 -0.579049,-0.851621 -0.03405,-0.158966 -0.113596,-0.28387 -0.159021,-0.28387 -0.04545,0 -0.113633,-0.170238 -0.147695,-0.363267 -0.03404,-0.204391 -0.113514,-0.601903 -0.181638,-0.885773 -0.05676,-0.28388 -0.113504,-0.73807 -0.124858,-1.02195 0,-0.295225 -0.04545,-0.567741 -0.102241,-0.62452 -0.05678,-0.06809 -0.181629,-0.737979 -0.295179,-1.498758 -0.102196,-0.760778 -0.272607,-1.612306 -0.374804,-1.896177 -0.238454,-0.635874 -1.442124,-2.191639 -1.862251,-2.407376 -0.181675,-0.09081 -0.31776,-0.249725 -0.329114,-0.363275 -0.01131,-0.102188 -0.02273,-0.806332 -0.04545,-1.555756 -0.03404,-1.578327 -0.215747,-2.316397 -0.79485,-3.179371 -0.215746,-0.329297 -0.397421,-0.635875 -0.397421,-0.681301 0,-0.04545 -0.113687,-0.227099 -0.249945,-0.397419 -0.147612,-0.170321 -0.340513,-0.431447 -0.431354,-0.579059 -0.09082,-0.147612 -0.340778,-0.431437 -0.533807,-0.635829 -0.204391,-0.193038 -0.374584,-0.408729 -0.374584,-0.465508 0,-0.05677 -0.09091,-0.227191 -0.204474,-0.374803 C 55.359049,12.437366 55.063779,11.710741 54.882105,10.65473 54.779909,10.052917 54.643742,9.485131 54.575609,9.4169974 54.50743,9.3375006 54.189588,9.2466314 53.883001,9.2012151 53.03138,9.0990196 52.270557,8.7471068 51.623328,8.1566489 51.407592,7.9636113 51.180446,7.793154 51.123666,7.793154 c -0.04545,0 -0.261071,-0.1476123 -0.476816,-0.3406407 -0.215737,-0.1816836 -0.465682,-0.3292959 -0.533816,-0.3406499 -0.0795,0 -0.340641,-0.1816379 -0.56774,-0.4087287 C 49.306839,6.4873888 48.830069,6.1467846 48.489418,5.9537469 48.148769,5.7493643 47.705969,5.476848 47.51294,5.3292267 47.319902,5.1816145 47.081321,5.0679733 46.979125,5.0679733 c -0.09081,0 -0.193074,-0.05677 -0.215792,-0.1135408 C 46.740607,4.8862532 46.434129,4.7615774 46.059417,4.6820896 45.514384,4.5458315 45.207714,4.5456491 44.265253,4.6705896 43.640732,4.7614039 43.06172,4.7955391 42.993596,4.772831 42.925416,4.738787 42.732516,4.5231599 42.573549,4.2847059 41.914967,3.342244 39.871031,2.2860588 38.269996,2.0589588 37.986116,2.013506 37.611404,1.9454089 37.418376,1.8886384 37.236692,1.831868 36.896042,1.7639078 36.680306,1.7298456 c -0.96517,-0.11355 -1.99851,-0.3180695 -2.089353,-0.4202654 -0.06809,-0.05677 -0.192946,-0.1022415 -0.306496,-0.1022415 -0.102196,0 -0.318024,-0.124904 -0.488344,-0.28387026 -0.170329,-0.15896629 -0.34065,-0.28387036 -0.397429,-0.28387036 -0.04545,0 -0.295271,-0.15892978 -0.556432,-0.35195831 C 32.588893,0.10382958 32.405111,0.0047643 32.222386,-4.0194765e-8 Z m -0.09536,2.2292884 c 0.124904,0 0.476908,0.1817657 0.73807,0.3748033 0.738071,0.5223243 1.021813,0.635783 2.021046,0.7606871 1.623752,0.1930377 2.361904,0.3179873 3.099974,0.4996618 0.715362,0.1703204 2.373095,0.8290396 2.747807,1.1015559 0.545032,0.3747121 1.169644,1.0219039 1.226415,1.260358 0.04545,0.1476121 0.2043,0.3519126 0.363266,0.4768166 0.261172,0.1930286 0.363495,0.2045196 1.158336,0.079589 1.101428,-0.1816744 1.089945,-0.1817658 1.793945,0.022635 0.51097,0.1476123 1.919068,0.8969452 2.078043,1.101337 0.03404,0.045452 0.113459,0.1023692 0.192946,0.1250774 0.06809,0.022726 0.329287,0.204346 0.567741,0.4087379 1.203625,1.010586 2.032572,1.6236156 2.202902,1.6236156 0.102196,0 0.249854,0.07949 0.329333,0.17032 0.0795,0.09081 0.249853,0.17033 0.386112,0.17033 0.124904,0 0.386065,0.07949 0.567749,0.17032 0.170321,0.09081 0.488263,0.17032 0.681291,0.17032 0.499616,0 0.72667,0.204393 0.806158,0.738071 0.113549,0.749424 0.317896,1.339882 0.635828,1.81679 0.158967,0.249808 0.386157,0.635874 0.488354,0.85162 0.102196,0.215745 0.37453,0.601986 0.612983,0.863147 0.442846,0.488262 0.817686,1.078548 0.817686,1.294284 0,0.06809 0.124904,0.295279 0.28388,0.499662 0.158966,0.204392 0.283869,0.420266 0.283869,0.477045 0,0.05678 0.124951,0.329113 0.272563,0.612983 0.147612,0.283871 0.352004,0.93119 0.4542,1.453523 0.158966,0.862975 0.158966,0.999233 0,1.476141 -0.238455,0.669936 -0.14775,1.21506 0.261025,1.567065 0.170329,0.147611 0.363312,0.272342 0.408737,0.272342 0.204383,0 1.464823,1.328519 1.635153,1.703231 0.352003,0.85162 0.522415,1.442078 0.601894,2.15744 0.147622,1.237686 0.556304,3.429179 0.760696,3.974221 0.102196,0.28387 0.35204,0.772306 0.556433,1.090247 0.4542,0.692655 0.476953,0.953816 0.102241,1.305811 -0.147612,0.147621 -0.28388,0.306542 -0.28388,0.351958 0,0.04545 -0.12494,0.352005 -0.272561,0.681301 -0.317933,0.704007 -0.670028,2.225427 -0.658674,2.872656 0.0114,0.249807 -0.02264,0.476907 -0.06809,0.510979 -0.09082,0.05676 -0.340513,1.124136 -0.431355,1.816781 -0.136258,0.987878 -1.124181,2.339115 -2.032572,2.781959 -0.465554,0.215738 -0.6699,0.806378 -0.579059,1.714769 0.03405,0.363357 0.05667,0.726533 0.06809,0.783312 0.02273,0.374713 -0.351996,1.79421 -0.62452,2.293826 -0.317933,0.601812 -0.828949,1.203625 -0.669983,0.794841 0.03405,-0.102195 0.11355,-0.193165 0.170329,-0.193165 0.05677,0 0.102233,-0.07941 0.102233,-0.181638 0,-0.102187 0.09072,-0.431483 0.192946,-0.738071 0.34065,-0.953807 0.352132,-0.953807 -2.475235,-0.965161 -1.339883,0 -3.236243,-0.04527 -4.235475,-0.09072 -1.464786,-0.06809 -1.828144,-0.04554 -1.987111,0.07941 -0.102195,0.09081 -0.283833,0.192982 -0.408737,0.238408 -0.193029,0.06809 -0.181675,0.04545 0.05677,-0.238408 0.158966,-0.170331 0.306578,-0.340742 0.34065,-0.374805 0.06809,-0.06818 0.26107,-0.420091 0.590367,-1.033257 0.215736,-0.420129 0.227136,-0.669891 0.272562,-5.915861 0.06809,-7.778122 0.05687,-9.174866 -0.07941,-9.685836 -0.295234,-1.192269 -0.533861,-1.317128 -2.566388,-1.317128 -1.782727,0 -2.532015,-0.136258 -2.532015,-0.4542 0,-0.11354 -0.04554,-0.226963 -0.09091,-0.261025 -0.05678,-0.03404 -0.09072,-2.350468 -0.09072,-5.166491 l 0.01131,-5.098403 0.317805,-0.295179 c 0.170329,-0.158966 0.408956,-0.295407 0.522507,-0.295407 0.249807,0 2.157302,-0.613121 2.532015,-0.806158 0.488262,-0.261153 1.283057,-1.180907 1.430678,-1.646461 0.317933,-1.056002 -0.01113,-2.191539 -0.783313,-2.770643 L 46.615835,10.00739 41.733214,9.9847496 C 39.053462,9.9734303 36.532537,9.9392044 36.14647,9.8938346 35.374348,9.8143444 35.363168,9.7916454 35.249618,8.8151218 35.124714,7.6114978 35.067807,7.3957976 34.772583,6.9870233 34.318383,6.3397948 33.921044,6.1921827 32.592526,6.1921827 c -1.214979,0 -1.476141,0.079588 -1.930341,0.5905857 -0.374712,0.4087743 -0.533678,0.8855089 -0.62452,1.9188035 -0.03405,0.4769076 -0.113596,0.931153 -0.159012,1.0106317 -0.06809,0.1021961 -1.02194,0.1362129 -4.258094,0.1248579 -2.293698,0 -4.201366,-0.011315 -4.246782,-0.011315 -0.04545,-0.011315 -0.738026,-0.011315 -1.544229,0 l -1.453514,0.011315 -0.442672,0.4883535 c -0.249809,0.272516 -0.477082,0.647138 -0.522498,0.874237 -0.0795,0.420129 0.113595,1.805482 0.272561,1.919023 0.04545,0.03405 0.193166,0.261217 0.306716,0.499661 0.28387,0.545042 0.987741,1.192179 1.396525,1.271667 0.181674,0.03405 0.476944,0.11355 0.669982,0.170321 0.193029,0.06818 0.488345,0.11355 0.658674,0.11355 0.442836,0 0.96517,0.30667 1.02194,0.601902 0.306588,1.544265 0.32925,1.760012 0.238408,3.065831 -0.09081,1.464777 -0.09081,1.669078 -0.05677,2.123278 0.01131,0.158966 0.01131,0.999406 0,1.885096 -0.01131,0.874329 0.01131,1.703104 0.05677,1.850716 0.04545,0.147613 0.02273,0.317888 -0.05677,0.408729 -0.0795,0.09082 -0.113687,0.2385 -0.07959,0.329342 0.0795,0.204382 -0.124859,0.965123 -0.295179,1.146799 -0.238453,0.227099 -0.579058,0.249854 -2.225519,0.159011 -1.70324,-0.102187 -1.805473,-0.0795 -2.373222,0.408738 -0.62452,0.522325 -0.624392,0.601812 -0.658454,6.131652 -0.02273,4.803133 -0.0795,6.835751 -0.215783,6.960656 -0.03405,0.03404 -0.05677,-0.04545 -0.05677,-0.170321 0,-0.34065 -0.454328,-0.488308 -1.612527,-0.499662 -0.976524,-0.01131 -1.396662,-0.113595 -1.58969,-0.386112 -0.181683,-0.249808 -0.06791,-0.374539 0.636048,-0.726542 0.862974,-0.420129 1.544228,-1.124183 1.544228,-1.578373 0,-0.601812 -0.352095,-1.52152 -0.715453,-1.884878 -0.567741,-0.556387 -1.498757,-0.953807 -2.350377,-1.021941 -0.897037,-0.05676 -1.226332,-2.28e-4 -1.589691,0.272344 -0.261162,0.193028 -0.272644,0.227227 -0.136385,0.760915 0.408774,1.64646 0.09091,2.509343 -1.2035789,3.145217 -0.5791038,0.295234 -0.6699822,0.306588 -2.3164519,0.283871 -1.5102026,-0.01132 -1.7371199,-3.7e-5 -1.862024,0.181637 -0.1930376,0.272517 -0.3861117,0.113687 -0.3861117,-0.317804 0,-0.204383 -0.079497,-0.63592 -0.159012,-0.953853 -0.090814,-0.329296 -0.1248584,-0.601904 -0.068088,-0.601904 0.1135499,0 0.2271,0.283917 0.2271,0.556433 0,0.102196 0.1021501,0.306587 0.2384083,0.4542 0.2270998,0.238454 0.2952243,0.249945 1.8735605,0.193166 1.5442649,-0.04545 1.6692145,-0.06809 2.0893521,-0.34065 0.2498081,-0.158966 0.4996161,-0.295398 0.5677406,-0.295398 0.2270999,0 0.4882165,-0.737897 0.4655082,-1.351063 C 9.6442149,35.226835 9.3148917,34.704511 8.6563093,34.375216 8.3043053,34.204895 7.9864549,34.17065 6.6465818,34.193358 5.7722535,34.204673 4.9432048,34.159404 4.8069466,34.102639 4.4663059,33.955027 4.0121973,34.159404 3.8759301,34.500068 3.7737434,34.76123 3.7737434,34.76123 3.6488393,34.443303 3.5807514,34.261619 3.546689,34.079807 3.5807514,34.023028 c 0.034044,-0.04545 -0.022726,-0.147612 -0.1135499,-0.22709 -0.090814,-0.0795 -0.1703204,-0.2157 -0.1703204,-0.295189 0,-0.215736 -0.2498994,-0.647136 -0.4315738,-0.760687 -0.3065877,-0.204399 -0.3745844,-0.6472 -0.1474846,-0.976486 0.2611622,-0.363358 0.7153164,-1.510385 0.9764786,-2.452838 0.1021958,-0.374712 0.2270999,-0.828912 0.2838703,-1.02195 0.05677,-0.181674 0.124904,-0.62452 0.1703295,-0.965161 0.2043826,-1.805435 0.4200372,-2.622994 0.874237,-3.46325 0.1703204,-0.306588 0.3747121,-0.703917 0.4541998,-0.874247 0.079497,-0.181674 0.1931198,-0.318024 0.2612443,-0.318024 0.068179,0 0.2043005,-0.13612 0.3064963,-0.317804 0.1021959,-0.17032 0.4655083,-0.59054 0.8061582,-0.942544 l 0.6245202,-0.635829 v -1.214896 c 0,-1.044648 0.045544,-1.317211 0.3180238,-2.032572 0.1703204,-0.442837 0.4882164,-1.03334 0.6926081,-1.294503 0.2043827,-0.261161 0.3748035,-0.499707 0.3748035,-0.545123 0,-0.04545 0.1929372,-0.295234 0.4200372,-0.56775 0.2384539,-0.261162 0.5337696,-0.681245 0.6586737,-0.919699 0.1249038,-0.238454 0.3973378,-0.692563 0.5903668,-0.987796 0.204391,-0.306579 0.374803,-0.61312 0.374803,-0.6926 0,-0.06818 0.06818,-0.261299 0.159012,-0.420265 0.07949,-0.158966 0.2157,-0.556305 0.295188,-0.874246 0.147612,-0.62452 0.249808,-0.749424 0.68129,-0.851611 0.987879,-0.227099 1.408053,-0.3747578 2.202903,-0.7835412 0.953807,-0.4768984 2.441264,-1.4535138 2.679709,-1.7373841 0.261171,-0.3179417 2.373095,-1.4419869 2.804578,-1.4987664 0.238453,-0.034044 0.828911,0.022726 1.305819,0.1135499 0.476908,0.090814 1.02194,0.1363039 1.19226,0.1022416 0.306588,-0.05677 1.169654,-0.8175122 1.169654,-1.0332581 0,-0.1930285 0.681163,-0.7949774 1.112646,-0.9880059 1.146844,-0.4996161 1.48763,-0.6018577 2.407375,-0.7267617 2.702475,-0.3406499 3.747124,-0.5336328 3.747124,-0.6926081 0,-0.05677 0.102196,-0.1022324 0.2271,-0.1022324 0.124904,0 0.420174,-0.1816836 0.669982,-0.3974204 0.238454,-0.2157458 0.499616,-0.3974294 0.56775,-0.3974294 z M 28.906391,15.216469 c 0.557811,0 1.301604,0.0082 2.096445,0.02573 1.58969,0.03405 3.553955,0.05658 4.348795,0.04527 0.806204,0 1.555765,0.04545 1.669306,0.11355 0.249809,0.136259 0.306633,0.511153 0.102242,0.636057 -0.170321,0.102196 -4.791816,0.124767 -7.142284,0.03395 -1.930343,-0.06809 -2.407333,-0.181547 -2.305146,-0.544905 0.03404,-0.124904 0.147749,-0.261162 0.249945,-0.28387 0.05111,-0.01707 0.422884,-0.02574 0.980697,-0.02574 z m -0.222664,5.159838 c 0.06325,9.1e-5 0.121884,0.0064 0.172986,0.02081 0.170321,0.05677 1.192261,0.102241 2.270981,0.102241 3.633571,0.03405 5.495695,0.11355 5.813627,0.2271 0.215747,0.09081 0.306716,0.193038 0.306716,0.39742 0,0.158967 -0.05676,0.317897 -0.11355,0.351959 -0.329286,0.204391 -2.123322,0.306715 -2.395839,0.136395 -0.124904,-0.0795 -0.340777,-0.0795 -0.647365,0 -0.317932,0.0795 -0.499571,0.0795 -0.579059,0 -0.0795,-0.0795 -0.238453,-0.0795 -0.51097,0 -0.215736,0.06809 -0.408865,0.102058 -0.431574,0.09072 -0.02273,-0.02273 -0.976387,-0.06818 -2.134594,-0.113549 -2.202851,-0.0795 -2.73662,-0.204255 -2.816107,-0.658454 -0.04965,-0.238455 0.622146,-0.555228 1.064748,-0.554662 z m 3.039882,5.280707 c 0.09437,-2.28e-4 0.180525,0.02729 0.244397,0.07694 0.102195,0.0795 0.885591,0.125078 2.407147,0.125078 2.475372,-0.01131 2.793269,0.05677 2.850048,0.579058 0.03404,0.261163 -0.02273,0.340513 -0.397429,0.488125 -0.306578,0.136259 -0.488263,0.147795 -0.62452,0.06827 -0.124904,-0.0795 -0.31776,-0.0795 -0.612984,0 -0.295234,0.09081 -0.499799,0.09081 -0.692827,0 -0.181684,-0.09081 -0.261034,-0.0795 -0.261034,0 0,0.124904 -0.511099,0.09063 -1.158336,-0.06827 -0.170321,-0.04545 -0.408774,-0.04545 -0.51097,0 -0.306579,0.124905 -1.339791,0.181775 -1.441987,0.09091 -0.09081,-0.09081 -0.23849,-0.10215 -1.975793,-0.124858 -1.203627,-0.02273 -1.305732,-0.04554 -1.555539,-0.306716 -0.374713,-0.363358 -0.363359,-0.454017 0.113549,-0.669763 0.397424,-0.193056 2.055284,-0.340778 2.146125,-0.193166 0.06809,0.09082 0.964988,0.07959 1.294284,-0.03395 0.0596,-0.02126 0.119245,-0.03158 0.175869,-0.03176 z m -8.077967,5.947577 c 0.242826,9.13e-4 0.517269,0.0054 0.828109,0.01131 1.124136,0.01131 2.055107,0.06809 2.077824,0.113549 0.01131,0.05677 0.317933,0.05677 0.681292,0 0.352003,-0.04545 2.872932,-0.0794 5.586758,-0.0794 2.713817,0.01131 5.177754,0.01131 5.472978,0 0.283871,-0.01131 0.556479,0.03386 0.601904,0.102013 0.03404,0.06809 0.124858,0.09081 0.181629,0.05677 0.193037,-0.124904 2.327761,-0.09081 2.72518,0.04545 0.420138,0.136257 1.124183,0.794941 1.124183,1.056103 0,0.09082 0.04545,0.204428 0.113549,0.272561 0.05678,0.05678 0.136213,0.363176 0.181638,0.669764 0.0795,0.62452 0.09082,7.494242 0.01132,8.402633 -0.05676,0.681299 0.272562,1.873697 0.669982,2.407375 0.147613,0.193038 0.272562,0.374713 0.272562,0.39743 0,0.02273 -0.499707,0.03395 -1.112873,0.03395 -1.010587,0 -1.1582,0.02273 -1.532911,0.28387 -0.2271,0.158967 -0.420047,0.318024 -0.420047,0.374803 0,0.04545 -0.113678,0.07941 -0.249936,0.06809 -0.249807,0 -0.24968,-0.01122 -0.03395,-0.136176 0.465553,-0.28387 0.806066,-0.749506 0.942325,-1.283193 0.11355,-0.488253 0.261162,-5.37092 0.28387,-9.470045 0.01131,-1.362591 -0.238271,-1.987019 -0.953634,-2.463927 l -0.488353,-0.318024 -5.166482,-0.01131 c -2.850085,-0.01132 -6.426885,-0.02255 -7.948444,-0.03395 -1.521566,0 -2.974989,0.02273 -3.236152,0.05677 -0.749423,0.124905 -1.430677,0.567568 -1.600998,1.067184 -0.01131,0.03404 -0.06809,0.158966 -0.124868,0.28387 -0.113541,0.261162 -0.125031,1.555628 -0.02282,4.201321 0.05678,1.317165 0.03404,1.862206 -0.05676,1.98711 -0.158967,0.204384 -0.976434,0.249981 -1.158108,0.06827 -0.158975,-0.158966 -0.204391,-4.462666 -0.05677,-4.553499 0.05677,-0.03404 0.05686,-0.192946 -0.01131,-0.363275 -0.204391,-0.533679 -0.102324,-1.623835 0.204255,-2.305135 0.357681,-0.81471 0.515342,-0.951324 2.215095,-0.942325 z M 3.7867403,34.840304 c 0.013965,-0.0045 0.039521,0.01187 0.077854,0.04591 0.124904,0.124904 0.2725254,1.067184 0.1703295,1.067184 -0.034044,0 -0.05677,-0.03395 -0.068088,-0.07941 C 3.9555183,35.726384 3.8759306,35.351754 3.8078242,35.056529 3.7723202,34.914594 3.7634663,34.848067 3.786741,34.8403 Z m 26.5758307,2.376763 c 0.537402,-3.37e-4 1.165427,0.0027 1.889305,0.0082 4.167258,0.03404 4.20123,0.03404 4.451037,0.28388 l 0.249945,0.261025 -0.261253,0.272561 c -0.317942,0.340651 -0.669937,0.363451 -5.223262,0.318024 -3.031771,-0.02273 -3.236061,-0.03413 -3.542649,-0.261243 -0.386067,-0.272517 -0.42022,-0.613213 -0.09091,-0.783542 0.119228,-0.06809 0.915577,-0.09788 2.527802,-0.09891 z m -14.268836,5.559258 c 0.01707,-0.0018 0.03988,0.05248 0.07959,0.160343 0.329297,0.862975 0.522334,1.203707 0.965171,1.680615 0.386066,0.408774 0.601811,0.556432 0.96517,0.613212 0.261161,0.04545 0.499442,0.06809 0.556213,0.05678 0.04545,-0.01131 0.07959,0.05687 0.07959,0.159012 0,0.147612 -0.091,0.170147 -0.590586,0.102014 -0.329296,-0.04545 -0.794758,-0.158922 -1.044567,-0.238409 -0.238453,-0.09081 -0.545078,-0.159012 -0.669981,-0.159012 -0.352005,0 -1.430587,0.590595 -1.510076,0.817686 -0.03404,0.113549 -0.102277,0.204255 -0.147703,0.204255 -0.193029,0 -0.62452,1.544274 -0.62452,2.21421 0.01131,1.453432 0.397466,2.22561 1.351281,2.657092 0.193039,0.0795 0.499617,0.215883 0.681301,0.306725 0.590449,0.272516 1.464694,0.499434 1.952957,0.499434 0.261162,0 0.60194,0.04545 0.760906,0.11355 0.431491,0.158966 33.780708,0.170502 33.939674,0.0115 0.2271,-0.2271 0.317941,-0.124996 0.283879,0.306496 l -0.03395,0.420037 -0.851621,0.215792 c -0.465554,0.124904 -0.874327,0.249762 -0.908389,0.295178 -0.03404,0.03404 -0.272654,0.159022 -0.533816,0.272572 -0.272517,0.124903 -0.488134,0.261244 -0.488134,0.318023 0,0.04545 -0.0795,0.09072 -0.170321,0.09072 -0.124904,0 -0.147704,-0.113551 -0.09091,-0.567751 0.05678,-0.499616 0.04554,-0.567694 -0.147485,-0.579048 -0.11355,0 -7.346675,-0.02273 -16.055896,-0.04545 -8.709223,-0.02273 -15.987729,-0.05667 -16.180757,-0.09072 -0.897045,-0.113551 -3.00906,-0.976662 -3.00906,-1.215115 0,-0.06809 -0.181675,-0.113551 -0.39742,-0.113551 -0.715362,0 -1.010587,0.851712 -0.681291,1.964495 0.102187,0.363357 0.170229,0.692735 0.136166,0.715444 -0.02273,0.03404 -0.1929,-0.06818 -0.374575,-0.215783 -0.431491,-0.363358 -1.010768,-0.601949 -1.714777,-0.704145 l -0.579058,-0.0794 -0.0794,-0.510971 C 10.859138,51.736786 9.7691098,49.522484 9.1332355,48.727634 8.0545155,47.387761 7.7025115,46.763368 7.259675,45.457558 7.1006995,44.992004 7.0437922,44.560521 7.0665004,44.038188 L 7.1006354,43.28881 9.961992,43.2773 c 2.702472,-0.02273 3.656279,0.05696 2.781951,0.238636 -0.204383,0.04545 -0.397284,0.124905 -0.431355,0.170321 -0.03405,0.05677 -0.181674,0.102014 -0.34064,0.102014 -0.374712,0 -0.715499,0.181811 -1.101565,0.590595 -0.545033,0.579094 -0.681337,0.965124 -0.613212,1.714548 0.06809,0.703999 0.511152,1.555528 0.806377,1.555528 0.09081,0 0.181547,0.04545 0.204255,0.11355 0.02273,0.05676 0.454154,0.170503 0.976478,0.238636 1.192271,0.17032 1.374128,0.102059 1.657997,-0.704145 0.124905,-0.340641 0.306451,-0.749378 0.431356,-0.919698 0.11355,-0.158967 0.204473,-0.34065 0.204473,-0.397421 0,-0.136259 0.885646,-0.942554 1.033258,-0.942554 0.17032,0 0.249854,-0.556386 0.102242,-0.738069 -0.0795,-0.09082 -0.102242,-0.17032 -0.04545,-0.17032 0.181684,0 -0.476862,-0.533552 -0.806149,-0.658455 -0.329296,-0.11355 -0.329296,-0.113505 0.17032,-0.124859 0.738071,-0.02273 0.999105,-0.113549 1.055876,-0.39742 0.01707,-0.11355 0.02839,-0.170458 0.04545,-0.171881 z m 15.181662,0.542239 c 1.765688,0.0045 3.673274,0.03277 4.38295,0.08379 1.317174,0.0795 1.453432,0.124822 1.53292,0.420046 0.136258,0.465554 0.488308,1.158162 0.726761,1.430679 0.215738,0.249808 0.306487,0.465499 0.192938,0.465499 -0.02273,0 -0.170412,-0.102187 -0.318024,-0.227091 -0.272516,-0.215745 -0.48808,-0.227054 -5.154955,-0.238408 -2.95228,0 -5.075652,-0.05677 -5.393584,-0.124868 l -0.522507,-0.124862 0.125078,-0.351959 c 0.204391,-0.579094 0.6357,-1.181042 0.896863,-1.271885 0.141934,-0.04545 1.765872,-0.06526 3.53156,-0.06097 z m -10.029363,0.171434 c 0.01323,-0.0018 0.02702,-0.0018 0.04144,2.28e-4 0.01652,0.0018 0.03386,0.0073 0.05229,0.01424 0.102196,0.04545 0.352004,0.102324 0.56775,0.136395 0.306579,0.05677 0.420036,0.158875 0.590367,0.533587 0.113549,0.261163 0.215781,0.613212 0.215781,0.783532 0,0.306588 -0.02282,0.317896 -0.363485,0.238408 -0.204391,-0.04545 -0.51097,-0.06809 -0.6813,-0.05678 -0.363358,0.02273 -1.146671,0.397511 -1.351054,0.658674 -0.170329,0.204391 -0.170329,0.919708 0,1.090029 0.147612,0.147621 0.170193,0.420046 0.03395,0.420046 -0.05677,0 -0.158966,-0.124904 -0.227091,-0.28387 -0.07949,-0.158976 -0.136176,-0.374676 -0.136176,-0.465509 0,-0.34065 -0.340604,-0.806249 -0.692599,-0.953861 l -0.352187,-0.147476 0.658674,-0.318033 c 0.874329,-0.408775 1.237733,-0.737979 1.408062,-1.271657 0.07822,-0.252117 0.143131,-0.364553 0.235524,-0.377907 z m 17.818793,4.783482 h 16.328239 l -0.238408,0.340649 c -0.397421,0.567742 -1.03334,1.305812 -1.124183,1.305812 -0.04545,0 -0.03395,-0.124904 0.02282,-0.283871 0.09082,-0.2271 0.05667,-0.32925 -0.147703,-0.522287 -0.2271,-0.215737 -0.329205,-0.227137 -1.271667,-0.159012 -0.556386,0.03404 -1.81678,0.05687 -2.78195,0.04545 -0.965171,-0.01132 -3.168027,-0.02264 -4.882611,-0.02264 -1.714595,0.01131 -3.224798,0.01131 -3.349702,0.01131 h -1.249048 c -1.646461,0.01132 -3.077175,0.02264 -4.258092,0.01132 -12.04757,-0.06809 -14.193646,-0.158966 -14.193646,-0.56774 0,-0.136258 0.306579,-0.12495 0.39742,0.01132 0.05678,0.09082 0.136167,0.07959 0.249717,-0.02264 0.147621,-0.124904 3.293022,-0.147703 16.49879,-0.147703 z m -22.867518,7.356296 c 0.05714,-9.13e-4 0.139097,0.0104 0.248385,0.03596 0.579104,0.136267 1.442078,0.39743 1.64646,0.51098 0.249809,0.136257 4.962283,0.113458 5.632219,-0.03414 0.283879,-0.05677 0.545041,-0.05677 0.62452,0 0.06809,0.05677 1.305774,0.09081 2.736489,0.06809 1.442081,-0.02273 2.691121,-0.04545 2.781962,-0.04545 h 0.624521 c 0.249808,0 0.681291,2.19e-4 0.965171,0.0115 0.908389,0.02273 13.205765,0.01122 13.852993,-0.02282 1.180916,-0.04545 1.73722,0.238536 1.044567,0.545124 -0.601812,0.272516 -1.555492,0.385974 -2.588786,0.306487 -0.806204,-0.05678 -1.067494,-0.03395 -1.158335,0.07959 -0.06818,0.09082 -0.261035,0.31776 -0.431356,0.499443 -0.158966,0.193028 -0.352095,0.420129 -0.431573,0.51097 -0.272525,0.374713 -1.271712,0.931099 -2.225519,1.24904 -0.669945,0.215746 -2.657148,0.533816 -3.043213,0.477036 -0.215738,-0.02273 -0.613204,0.05667 -1.010632,0.204255 -0.726708,0.283879 -1.873424,0.817558 -1.964266,0.908399 -0.124904,0.136259 -1.022077,0.681292 -1.101556,0.681292 -0.05678,-0.01132 -0.238326,-0.136259 -0.431354,-0.283871 -0.181684,-0.158966 -0.43162,-0.28387 -0.533816,-0.28387 -0.102195,0 -0.215654,-0.04527 -0.249717,-0.102023 -0.03405,-0.04545 -0.283961,-0.124904 -0.545124,-0.17032 -0.272525,-0.04545 -0.715233,-0.159103 -0.999104,-0.249945 -0.874329,-0.306579 -0.862975,-0.306624 -3.633574,-0.613203 -1.76001,-0.193038 -2.804622,-0.817421 -3.758439,-2.248144 -0.352004,-0.522325 -0.590448,-0.590458 -1.53291,-0.4542 -1.169553,0.170329 -1.896315,0.07941 -2.770643,-0.329333 -1.321427,-0.625944 -2.147282,-1.243208 -1.74737,-1.25082 z"
     style="fill:#222;fill-opacity:1;stroke-width:0.11354904"
     inkscape:connector-curvature="0" />
</svg>
