<?xml version="1.0" encoding="UTF-8" standalone="no"?>
<svg
   width="475.58789"
   height="53.525391"
   version="1.1"
   id="svg4"
   sodipodi:docname="titile.svg"
   inkscape:version="1.2.1 (9c6d41e410, 2022-07-14)"
   xmlns:inkscape="http://www.inkscape.org/namespaces/inkscape"
   xmlns:sodipodi="http://sodipodi.sourceforge.net/DTD/sodipodi-0.dtd"
   xmlns:xlink="http://www.w3.org/1999/xlink"
   xmlns="http://www.w3.org/2000/svg"
   xmlns:svg="http://www.w3.org/2000/svg">
  <defs
     id="defs8">
    <linearGradient
       inkscape:collect="always"
       id="linearGradient967">
      <stop
         style="stop-color:#e73131;stop-opacity:1;"
         offset="0"
         id="stop963" />
      <stop
         style="stop-color:#ff3f20;stop-opacity:1;"
         offset="0.29785842"
         id="stop1786" />
      <stop
         style="stop-color:#ffca00;stop-opacity:1;"
         offset="0.44681048"
         id="stop1784" />
      <stop
         style="stop-color:#2fd1ca;stop-opacity:1;"
         offset="0.70039243"
         id="stop1788" />
      <stop
         style="stop-color:#6343c9;stop-opacity:1;"
         offset="1"
         id="stop965" />
    </linearGradient>
    <linearGradient
       inkscape:collect="always"
       xlink:href="#linearGradient967"
       id="linearGradient969"
       x1="16.412109"
       y1="369.7627"
       x2="492"
       y2="369.7627"
       gradientUnits="userSpaceOnUse"
       gradientTransform="translate(-16.412109,-343)" />
  </defs>
  <sodipodi:namedview
     id="namedview6"
     pagecolor="#ffffff"
     bordercolor="#ffffff"
     borderopacity="1"
     inkscape:showpageshadow="0"
     inkscape:pageopacity="0"
     inkscape:pagecheckerboard="false"
     inkscape:deskcolor="#ffffff"
     showgrid="false"
     inkscape:zoom="1.1387363"
     inkscape:cx="167.29071"
     inkscape:cy="-50.055489"
     inkscape:window-width="1920"
     inkscape:window-height="1009"
     inkscape:window-x="-8"
     inkscape:window-y="-8"
     inkscape:window-maximized="1"
     inkscape:current-layer="svg4" />
  <path
     id="rect897"
     style="fill:url(#linearGradient969);fill-opacity:1;stroke-width:0.871724"
     d="m 171.58789,0 0.0781,1.67188 0.0313,0.48242 0.0293,0.99023 -0.0332,0.85742 -0.41797,1.78907 -1.09375,1.55664 -0.78125,0.64257 -0.88477,0.55274 -1.9082,0.80469 -1.85937,0.4375 -1.48828,0.16796 -1.67191,0.04688 0.4707,1.65625 0.69727,1.41016 1.12891,1.62695 1.29492,1.55469 0.36914,0.39257 1.03906,1.35938 -1.625,0.19141 -0.375,0.0879 -1.375,0.28711 -1.625,0.43358 0.0996,1.64453 0.18945,1.35547 0.2793,1.35547 0.43165,1.64453 -1.67188,0.19727 -0.48632,0.11718 -1.00196,0.20117 -3.8164,0.97071 -0.97852,0.18945 -1.88672,0.23047 -0.48632,0.0508 -1.67188,0.04295 0.19141,1.625 0.0879,0.375 0.28711,1.375 0.43358,1.625 1.67188,-0.41406 1.48828,-0.4961 6.83984,-2.65429 c 1.311,-0.489 2.648,-0.91535 4,-1.27735 0.992,-0.266 1.98614,-0.48668 2.99414,-0.67968 l 0.98047,-0.14454 1.86523,-0.082 1.48828,0.17969 1.67188,0.56833 -1.00195,0.6543 -0.125,0.33984 -0.34766,0.61133 -0.20898,1.49805 -0.0605,1.75586 0.0215,0.47265 L 172.58789,34 171.83984,32.48828 171.52148,32.1543 171.00781,31.45117 170.01562,30.62891 168.58789,30 l -0.0391,3.16016 -0.13086,1.86523 c -0.114,1.333 -0.36999,2.65561 -0.58399,3.97461 l -0.79882,4.99805 -0.10157,0.99609 -0.0293,0.98633 0.30078,1.87109 0.83008,1.53906 0.70898,0.61524 1.8438,0.99414 0.43164,-1.67188 0.0898,-0.48632 0.30079,-1.88672 0.13867,-1.96094 0.0371,-2.96875 0.002,-5.02539 1.38672,0.6543 0.31445,0.33984 0.70899,0.61524 0.54492,0.70312 0.60937,0.82227 1.25196,1.79296 c 0.66,0.888 1.35468,1.74457 2.05468,2.60157 l 0.61329,0.73632 0.56054,0.85157 0.31641,0.39453 L 180.58789,48 178.93359,47.66211 177.54101,47.0293 176.01367,46.00391 173.58789,44 l 0.31445,2.11914 0.28907,0.95117 1,1.66407 0.71484,0.82617 1.74023,1.57617 1.94141,1.33594 0.97656,0.50586 1.86328,0.54687 1.00196,-0.0312 2.1582,-0.49419 -0.31641,-1.67188 -0.68554,-3.35351 c -0.264,-1.318 -0.53499,-2.63961 -0.70899,-3.97461 -0.259,-1.993 -0.29243,-3.993 -0.27344,-6 0.013,-1.334 0.0762,-2.68505 0.32422,-3.99805 0.19,-1.015 0.47885,-1.99103 0.83985,-2.95703 0.517,-1.382 1.19731,-2.70992 1.82031,-4.04492 l -2,-1 -1,-1 h 4.04492 l 1.95899,-0.006 1.98047,-0.0527 0.9707,-0.0879 1.8164,-0.43164 1.48829,-0.86524 0.6289,-0.71289 1.11133,-1.84363 -1.67188,-0.75195 -0.48632,-0.12696 -1.88672,-0.43359 -0.98047,-0.082 -1.97656,0.0781 -0.99805,0.11133 -2,0.28906 -3,0.49219 c -1.939,0.297 -3.88285,0.53569 -5.83984,0.67969 l -1.00196,-0.0195 -0.48632,0.0371 L 175.58789,21 l 2.1582,-0.80273 1.86719,-0.65235 0.94141,-0.3164 1.71679,-0.70313 1.28711,-0.95312 0.43946,-0.72461 0.58984,-1.84766 -1.49414,-0.59375 -0.50586,-0.29492 -2,-1.11133 1.625,-0.24219 1.30859,-0.47656 1.35157,-0.86328 0.9414,-0.99024 L 186.58789,9 l -2.1543,-1.04688 -0.98242,-0.375 -1.72656,-0.375 -0.98242,-0.0996 -0.48438,-0.0586 L 178.58789,7 l 0.3125,-1.625 0.375,-1.75 0.3125,-1.625 c -1.615,-0.514 -3.22328,-1.05238 -4.86328,-1.48438 l -1.4668,-0.31835 z M 14.587891,2 13.707032,3.08594 13.462891,3.51562 12.947266,4.31641 c -0.4545,0.839 -0.905094,1.67601 -1.308594,2.54101 L 11.041016,8.32812 10.587891,10 12.257813,9.57422 12.742188,9.38672 13.72461,9.04297 16.433594,7.88672 16.917969,7.65625 18.587891,7 V 5 L 17.09375,4.0918 16.587891,3.65234 Z M 219.58789,2 v 6 l -1.66797,0.31445 -3.03515,0.67774 -0.78516,0.27734 -0.42578,0.10352 -1.08594,0.62695 1.625,0.89648 0.375,0.14454 1.375,0.54492 1.625,0.41406 -0.9082,1.49414 -0.43946,0.50586 -1.65234,2 0.56836,1.67188 0.33789,1.48437 0.0566,0.87305 -0.35156,1.88086 -1.06836,1.75976 -1.51758,1.53125 -1.52344,1.32813 -0.41992,0.33008 -1.08199,1.14062 1.625,-0.19141 0.375,-0.0879 1.375,-0.28711 1.625,-0.43358 -0.94141,1.67188 -0.20898,0.48632 -0.48242,1.00196 -1.67578,3.84179 -2.3418,4.83789 -0.44922,1.00196 -0.24023,0.48632 -0.66016,1.67188 1.48438,-0.34375 1.20703,-0.68555 1.40625,-1.28906 1.35546,-1.74023 1.19532,-1.94727 1,-1.99414 0.80664,-2 c 0.747,-1.986 1.19444,-4.10953 2.39844,-5.89453 l 1.42578,-1.71485 1.77148,-1.42187 0.94336,-0.60156 1.8457,-1.00391 1.00196,-0.45898 0.48632,-0.24414 1.67188,-0.66016 0.76953,1.66797 0.31836,0.4668 0.60742,0.98046 c 0.555,0.762 1.144,1.4948 1.75,2.2168 L 232.58789,27 l -1.67188,-0.26562 -1.48828,-0.10157 -1.8457,0.1836 -0.93945,0.25781 -1.73438,0.79492 -1.23437,0.89063 L 222.58789,30 h 6 l 0.31445,1.49414 0.14258,0.50586 0.54297,2 -1.67188,-0.53906 -1.48828,-0.10547 -1.85937,0.18359 -2.82031,0.44727 -1.48828,0.10156 L 218.58789,34 l 0.006,2.1582 0.0527,1.88282 c 0.075,0.96599 0.17593,1.95823 0.54493,2.86523 l 1,1.74805 0.71484,0.76953 1.74023,1.23633 1.94727,0.78906 2.96875,0.7207 0.98047,0.27539 c 0.813,0.234 1.59005,0.56882 2.37304,0.88281 L 232.58789,48 l 0.002,-5.02539 c 0.008,-1.659 -0.003,-3.32261 0.17188,-4.97461 0.176,-1.676 0.55156,-3.31961 0.85156,-4.97461 l 0.2207,-1.86523 -0.002,-1.48828 L 233.58789,28 c 1.343,0.905 2.67992,1.81841 4.04492,2.69141 1.285,0.822 2.57913,1.6445 3.95313,2.3125 l 1.98242,0.84961 0.96094,0.3125 1.73828,0.34375 0.80273,-0.0508 0.43164,0.0234 1.08594,-0.48237 -1.67188,-0.88672 -0.48632,-0.31055 -1.00196,-0.5957 -2.84375,-1.78515 c -2.23599,-1.397 -4.52925,-2.73385 -6.53125,-4.46485 l -1.56054,-1.47265 -1.41992,-1.64454 -1.17579,-1.7207 -0.75195,-1.45117 L 230.58789,18 l 1.65234,-0.34766 0.43946,-0.0664 0.9082,-0.58594 -1.62891,-0.55859 -0.4375,-0.0352 -0.90039,-0.16797 -0.74804,-0.0371 -1.53711,-0.0703 -0.39063,-0.008 L 226.58789,16 l 1.32812,-1.33203 0.24024,-0.375 0.5625,-0.71289 0.55273,-1.11719 0.31641,-1.46289 -2.11328,0.18359 -0.88672,0.0762 -0.88672,-0.0234 -0.46875,0.0371 L 223.58789,11 l 1.66992,-0.65625 0.48438,-0.23047 2.70898,-1.15625 0.98242,-0.34375 0.48438,-0.1875 L 231.58789,8 230.59375,6.30664 229.97851,5.6875 228.44336,5.09375 226.61328,5.08975 224.74609,5.47061 224.25977,5.60538 222.58789,6 V 2 Z M 63.587891,3 63.003907,4.67188 62.945317,5.1582 62.748051,6.16016 62.621098,8.01953 c -0.0428,1.993 -0.03301,3.98747 -0.03321,5.98047 l -1.625,0.50586 -0.375,0.17383 -1,0.39843 -2,0.92188 0.490234,1.35938 0.476563,1.21874 0.232422,0.75196 0.242187,1.76367 -0.164062,1.92187 -0.195313,0.98829 L 58.146485,26 c -0.2982,1.017 -0.653204,2.00614 -1.033203,2.99414 L 56.69336,29.97461 55.748047,31.83984 54.830079,33.32812 53.587891,35 54.181641,36.49414 54.476563,37 l 1.111328,2 h 1 l 2,-1 0.316406,1.67188 0.742188,3.34765 0.61914,1.92383 0.900391,1.73633 0.996094,1.23437 1.425781,1.08594 -0.09766,-1.67188 -0.07031,-0.48437 -0.11914,-1 -0.425782,-2.6875 -0.11914,-1 -0.07031,-0.48437 L 62.587891,40 61.533203,40.0566 60.615235,39.44332 60.171875,38.8066 59.783203,37.94332 59.587891,37.05664 59.699219,35.5 60.587891,34 l 0.03516,1.60938 0.125,1.23046 0.197266,0.6875 0.05859,0.41211 0.583984,1.06055 0.01953,-1.67188 c 0.0565,-1.13299 0.184622,-2.27151 0.544922,-3.35351 0.4819,-1.446 1.269842,-2.72061 2.119141,-3.97461 l 2.888672,-4 2.08789,-3 c 0.928599,-1.349 1.84187,-2.71105 2.855469,-3.99805 C 74.076914,16.49396 76.345193,14.262 78.587891,12 l 0.1875,1.67188 0.103516,0.48632 0.173828,1.00196 L 80.138672,20 c 0.3355,1.663 0.559726,3.349 0.953125,5 0.3227,1.355 0.729313,2.688 1.195313,4 0.359799,1.013 0.746172,2.02014 1.201172,2.99414 l 0.476559,0.98633 1.07813,1.87109 1.17969,1.53906 1.05078,0.95508 1.31445,0.6543 -0.60547,-1.67188 -1.33594,-4.33398 c -0.526,-1.66 -1.13915,-3.29514 -1.53515,-4.99414 -0.308,-1.319 -0.4663,-2.66 -0.6543,-4 l -0.44726,-3 -0.29102,-2 c -0.1785,-1.332 -0.337876,-2.66247 -0.609376,-3.98047 l -0.554687,-1.87109 -0.400391,-0.82617 -0.503906,-0.70313 -1.365234,-0.90625 -0.837891,-0.16601 -0.902344,0.0351 -0.9375,0.21875 -1.849609,0.94531 -1.742188,1.48243 -0.83789,0.88086 -1.669922,1.90624 -2.46875,2.98243 -4.107422,5.33007 -1.34375,1.67193 0.04492,-1.67188 0.05859,-0.48632 0.271484,-1.88672 0.216797,-0.98047 L 64.943354,17 l 0.320312,-2 0.128907,-2 0.07617,-2 0.09375,-2.97461 L 65.587891,3 Z m 406.999999,4 -0.24219,1.06641 0.42774,1.09179 1.12109,1.20508 0.69531,0.46484 0.90039,0.22852 0.44727,0.18555 L 475.58789,11 474.52734,9.57227 473.42773,8.58008 472.60937,8.06641 472.19727,7.74805 Z M 34.535157,7.60742 32.980469,8.11719 c -1.438798,0.844 -2.113629,2.47234 -2.798828,3.90234 l -0.873047,1.97852 -1.265625,2.95703 -0.908203,2.37304 L 26.587891,21 l 1.628906,-0.6543 1.361328,-0.95508 c 1.196199,-1.03799 2.238845,-2.22015 3.277344,-3.41015 0.842099,-0.965 1.663026,-1.94708 2.453125,-2.95508 L 36.5625,11.16016 37.246094,9.67188 37.587891,8 35.933594,7.63086 35.472657,7.62686 Z M 18.587891,9 18.117188,9.77344 18.035158,10.10742 17.814454,10.71484 17.44922,12.06641 16.587891,15 l 1.644531,-0.41016 0.46875,-0.17187 0.886719,-0.28711 3,-1.13086 v -3 l -2,-0.54297 -0.505859,-0.14258 z m 445.999999,0 -0.11328,1.06641 0.45508,1.09179 1.08203,1.20508 0.6582,0.46484 0.86914,0.22852 0.42578,0.18555 1.62305,-0.24219 -0.76953,-1.42773 -0.92578,-0.99024 -1.3711,-0.88672 -0.3789,-0.22851 z m -149,1 -1.65039,0.3418 -1.36133,0.66406 -1.40234,1.15039 -0.9336,1.23437 -0.65234,1.60938 1.32812,0.6543 0.80274,0.95508 0.57617,1.53906 0.23633,1.87109 c 0.06,1.327 0.0536,2.65247 0.0566,3.98047 v 4 c -0.004,1.668 -0.003,3.334 -0.0898,5 l -0.40039,4 -0.0996,1.99805 -0.004,0.99804 -0.0156,0.98829 -0.24023,1.90039 -0.61133,1.66601 -0.70117,1.21094 -0.83784,1.23828 3.98633,-0.0332 1.69726,-0.12696 0.80079,-0.19726 0.42968,-0.0566 1.08594,-0.58598 -1.01758,-1.08594 -0.14648,-0.43164 -0.38672,-0.80273 -0.32617,-1.73828 c -0.083,-0.981 -0.10119,-1.95936 -0.11719,-2.94336 L 315.58789,34 l 0.002,-6 c 0.003,-1.333 -0.003,-2.669 0.0879,-4 l 0.19532,-2 0.39062,-3 0.0645,-1.99805 c -0.035,-1.294 -0.28107,-2.5638 -0.45507,-3.84179 l -0.1875,-1.48828 z m 47.03906,0.20703 -1.70703,0.40039 -0.68555,0.42188 -0.50976,0.57422 -0.30469,0.70898 -0.0801,0.81641 0.48243,1.73828 1.16406,1.47656 0.74023,0.49609 0.79492,0.27735 0.80469,0.0508 0.79297,-0.17383 0.74805,-0.37109 1.26758,-1.19532 0.45703,-0.7539 0.2832,-0.80469 0.0918,-0.81445 -0.46485,-1.46485 -1.23633,-0.98242 -0.82226,-0.26953 -0.89453,-0.13086 z m -83.03906,0.0625 -2,0.0488 -2,0.5 -1,0.39648 c -1.022,0.472 -2.016,0.98325 -3,1.53125 -1.017,0.567 -2.00538,1.16983 -2.98438,1.79883 l -1.92187,1.38281 -1.75,1.53907 -1.44922,1.68164 -1.03515,1.73047 -0.5586,1.45312 -0.30078,1.668 1.67188,-1.08594 0.48632,-0.42968 1.00196,-0.80079 c 1.61399,-1.44799 3.16498,-2.97047 4.83398,-4.35547 1.904,-1.57799 3.96686,-2.93512 6.00586,-4.32812 l 0.002,2.1582 0.0117,1.86719 c 0.029,0.886 0.0435,1.77425 0.14649,2.65625 l 0.19726,0.80078 0.0566,0.43164 L 276.58789,22 c 0.308,-1.66 0.65808,-3.318 0.83008,-5 0.171,-1.664 0.15592,-3.33 0.16992,-5 l 2.1582,0.42383 0.99805,0.31836 1.82813,1 1.84374,1.48633 0.8711,0.88086 1.61719,1.90624 c 0.752,0.956 1.42131,1.95738 2.07031,2.98438 l 0.5625,1 0.90625,2 0.3418,1 0.26953,1 0.35156,2 c 0.137,0.993 0.17295,2.001 0.25195,3 l 0.17383,2 0.16406,1.99414 c 0.047,0.957 0.0325,1.91019 0.0195,2.86719 l -0.0215,0.81836 0.10547,0.80273 -0.002,0.43164 0.49033,1.08594 0.43359,-1.67188 0.29102,-1.48828 0.54687,-3.84179 c 0.284,-1.991 0.66891,-3.97605 0.50391,-5.99805 -0.111,-1.368 -0.43781,-2.705 -0.88281,-4 -0.475,-1.383 -1.09088,-2.72 -1.79688,-4 -1.157,-2.096 -2.55025,-4.11916 -4.28125,-5.78516 l -1.85351,-1.5625 -1.96485,-1.19531 -0.99804,-0.44726 -0.99805,-0.35352 z M 11.587891,11 l 1.041016,1.33008 0.318359,0.23242 1.119141,0.83008 L 15.587891,14 15.476563,12.93164 15.503907,12.54297 15.587891,11 Z m 348.999999,0 2,0.34766 0.50586,0.0664 L 364.58789,12 v 2 l -1,1 h -2 l -0.54297,-2 -0.14258,-0.50586 z m 82,1 1.06641,1.66797 0.39062,0.4668 0.72656,0.98046 1.35938,1.75 0.39062,0.4668 1.06641,1.66797 1.51172,-0.62891 1.03711,-0.82226 0.5,-0.70313 0.32226,-0.33398 0.62891,-1.51172 -1.67188,-0.99414 -1.48437,-0.71289 -1.82422,-0.66602 -0.86328,-0.23633 -1.48437,-0.27734 z m -437.999999,2 0.898438,1.55469 0.318359,0.3789 1.1875,1.3711 0.771484,0.60742 0.355469,0.31836 L 9.587891,19 9.396485,17.375 9.308594,17 9.021485,15.625 8.587891,14 Z m 8,2 -0.169922,1.03906 0.08789,0.32032 0.287109,1.11914 L 13.587891,20 11.916016,20.24023 10.427735,20.69922 8.5625,21.51953 4.587891,23.5625 c -1.272599,0.624 -2.565429,1.20234 -3.861328,1.77734 L 0,25.65039 v 2.33203 l 0.748047,0.23828 1.863282,0.25 1.953124,-0.15625 0.978516,-0.21679 1.886719,-0.5293 L 7.916016,27.4082 9.587891,27 8.900391,28.67188 8.763672,29.1582 8.421875,30.16016 8.164063,31.04492 7.5625,33.00586 6.632813,35.99805 6.367188,36.99414 6.0625,38.94141 l 0.02734,0.90625 0.193359,0.82031 0.367188,0.68945 1.214844,0.86133 0.710937,0.17383 1.361328,-0.0234 L 11.587891,42 v 4 l 2,0.92188 1,0.39843 0.375,0.17383 1.625,0.50586 -0.09766,-1.67188 -0.07031,-0.48632 -0.11914,-1.00196 -0.427735,-2.8457 C 15.696746,40.67014 15.615187,39.336 15.617187,38 c 0.0021,-1.341 0.08397,-2.675 0.292969,-4 0.212599,-1.349 0.577316,-2.664 0.853515,-4 l 0.740235,-3.98047 0.24414,-0.96289 0.789063,-1.77344 1.197265,-1.41406 0.837891,-0.63672 L 22.587891,20 l -1.085938,-0.93945 -0.43164,-0.20117 -0.802734,-0.46485 -1.734376,-0.70508 -2.785156,-0.92383 -1.488281,-0.4121 z m 206.999999,1 1.35547,0.13281 0.37891,0.01 1.45898,0.0898 0.67969,0.0449 0.70312,0.16016 0.38086,0.0332 1.04297,0.52913 -1.66797,0.99219 -1.43359,0.68164 -1.60156,0.53711 -0.78516,0.0527 -0.42578,0.0937 L 218.58789,20 l 1,-1 h 2 l -2,-1 z m 126,0.17578 -2,0.0566 -2,0.41797 -2,0.76367 -2,1.02539 -2.99805,1.69532 c -1.258,0.68199 -2.5238,1.32962 -3.84179,1.89062 l -1.48828,0.54883 -1.67188,0.42582 0.34375,1.60938 0.68555,1.22851 1.28906,1.10352 0.83008,0.32617 0.91015,0.13672 1.94727,-0.32227 1.99414,-0.97656 2,-1.41016 2,-1.5957 1,-0.78125 2,-1.32031 1,-0.45508 1,-0.26563 1,-0.0605 2,0.47461 1,0.47265 1,0.56836 c 1.72,1.057 3.356,2.23821 5,3.4082 l 4,2.83399 4,2.74609 3.99414,2.80078 0.98047,0.625 1.86523,0.99805 1.48828,0.55469 1.67188,0.30074 -0.34375,-1.66797 -0.68555,-1.45117 -1.28906,-1.7207 -1.74023,-1.64454 -1.94727,-1.47656 -3.99414,-2.70703 -5,-3.32812 c -1.321,-0.875 -2.646,-1.74922 -4,-2.57422 -0.987,-0.601 -1.981,-1.17571 -3,-1.72071 l -1,-0.48437 -2,-0.7207 -1,-0.21485 z M 33.587891,19 l -0.107422,1.23828 -0.40039,1.21094 c -0.3719,0.882 -0.807457,1.7347 -1.222657,2.5957 l -0.890625,1.95313 -0.591797,1.94336 0.0293,1.72656 0.828125,1.21484 1.482422,0.51367 1.732422,-0.0293 1.470703,-0.18946 L 37.587891,31 l -1.125,1.67188 c -1.106199,1.74199 -2.145826,3.51622 -3.140625,5.32421 l -1.513672,2.84375 -0.435547,1.00196 -0.24414,0.48632 L 30.587891,44 l 1.671875,-0.73242 0.486328,-0.29102 1.001953,-0.54492 1.861328,-1.2207 c 1.306299,-0.942 2.57437,-1.92547 3.792969,-2.98047 0.824999,-0.713 1.61196,-1.45552 2.380859,-2.22852 l 0.65625,-0.72265 1.052735,-1.44336 0.640625,-1.26758 L 44.587891,31 42.916016,30.10352 41.431641,29.57812 c -0.888999,-0.21999 -1.776101,-0.3816 -2.6875,-0.4746 C 37.694342,28.99752 36.64079,29.024 35.587891,29 l 1.425781,-1.67188 0.992188,-1.48437 0.865234,-1.82422 0.287109,-0.86328 0.205079,-1 L 39.587891,20 37.94336,19.56836 36.587891,19.28906 35.232422,19.09961 Z m 406.999999,1 -0.12891,1.08594 0.16797,0.43164 0.2168,0.80273 0.92578,1.71875 1.33008,1.81641 1.51367,1.53515 1.3457,0.95508 1.62891,0.6543 0.45508,-2.14453 0.0391,-0.97266 -0.42187,-1.68359 -0.4043,-0.78516 -1.17774,-1.32422 -1.58007,-0.94336 -0.80469,-0.33789 -1.4375,-0.45117 z m -59,1 0.0273,1.08203 0.23828,0.41992 0.33594,0.77539 1.15625,1.54883 0.73828,0.74414 0.8125,0.65235 1.78125,0.86523 1.92578,0.25781 0.98829,-0.0332 1.99609,-0.19727 3,-0.38671 3,-0.44727 4,-0.43555 2,-0.26953 c 0.999,-0.146 1.995,-0.31025 3,-0.40625 1.662,-0.159 3.332,-0.16897 5,-0.16797 1.661,0 3.34614,-0.027 4.99414,0.20899 l 1.96094,0.39258 1.88672,0.5996 2.15824,0.79688 1.11133,-2 0.29492,-0.50586 0.59375,-1.49414 -1.67188,-0.89648 -1.48828,-0.5254 -1.86523,-0.375 -1.97656,-0.14648 c -1.005,-0.004 -1.99605,0.0242 -2.99805,0.11524 -1.006,0.09 -2,0.26529 -3,0.40429 -0.999,0.139 -1.993,0.25999 -3,0.33399 -1.665,0.122 -3.337,0.0988 -5,0.25976 -1.674,0.162 -3.326,0.49916 -5,0.66016 -1.632,0.158 -3.27316,0.16975 -4.91016,0.21875 -1.45499,0.044 -2.925,0.16133 -4.375,-0.0137 l -0.88281,-0.12891 -1.84765,-0.44922 -1.82813,-0.57812 -0.99805,-0.30274 -0.48632,-0.16601 z m 84,0 -1.08594,1.66797 -1.23437,1.45312 -1.73828,1.73243 c -1.277,1.15799 -2.59741,2.25989 -3.94141,3.33789 l -3,2.33007 -2,1.42774 -2,1.29101 c -0.972,0.609 -1.992,1.1376 -3,1.6836 l -1,0.53711 -1.99414,1.16797 -1.96094,1.27734 -0.88476,0.5918 -1.00196,0.55078 -0.48632,0.3125 -1.67188,0.63867 0.7207,2.01172 0.46485,0.82812 1.24609,1.11328 1.63672,0.50196 1.77734,-0.24024 1.73047,-0.85742 c 1.201,-0.802 2.34567,-1.68811 3.51367,-2.53711 l 1.92188,-1.3789 c 1.31,-0.976 2.60236,-1.96655 3.81836,-3.06055 1.535,-1.38 2.93222,-2.89992 4.32422,-4.41992 l 2.64843,-2.96289 0.81055,-0.99805 1.41797,-1.99414 c 0.594,-0.914 1.10747,-1.8767 1.60547,-2.8457 l 0.45898,-1.00196 0.24414,-0.48632 L 467.58789,21 Z m -451.999999,4 -0.634766,1.00195 -0.302734,0.12891 -0.535156,0.32617 -1.158203,0.0625 -0.34375,0.008 L 9.587891,26 l 1.494141,-0.58594 0.505859,-0.0664 z m 161.667969,0.33203 h 0.33203 l 0.33203,0.33594 h -0.66406 z M 177.58789,31 l 0.76758,1.08594 0.49804,1.23047 0.41602,1.69726 0.13477,0.84375 0.14062,1.4707 0.043,1.67188 h -2 l -0.14062,-1.62305 -0.32422,-1.31445 c -0.202,-0.629 -0.48202,-1.24513 -0.79102,-1.82812 L 175.58789,33 v -1 z m 85,5 -0.72461,1.08594 -0.35351,1.23437 -0.0742,1.71875 0.11523,0.92188 0.48633,1.71875 0.61719,1.23437 0.93357,1.08594 0.20703,-1.67188 -0.0918,-1.48437 -0.3457,-1.82422 -0.21484,-0.86328 -0.20508,-1 -0.12891,-0.48437 z m -41,1 h 3 l -0.41406,1.52148 -0.54492,1.11914 -0.14454,0.32032 L 222.58789,41 222.27344,39.50586 222.13086,39 Z m 6,0 h 2 v 6 l -2.58008,-0.13086 -1.08789,0.0117 L 224.58789,43 225.0332,41.35547 225.61914,40 l 0.76953,-1.35547 z m -214.999999,1 0.548828,1.02539 0.13086,0.97461 -0.13086,0.61914 v 0.35547 L 12.587891,42 Z m 93.044919,4.68164 -1.88672,0.0176 -2.1582,0.30076 1.08594,1.66797 1.23437,1.44922 1.73828,1.67969 0.95899,0.77343 1.95898,1.25 1.86328,0.7461 1.00196,0.20703 2.1582,0.22656 -0.31445,-2.14453 -0.28907,-0.97266 -1,-1.69336 -1.54492,-1.53515 -1.86914,-1.15821 -1.95898,-0.67382 z" />
</svg>
